<?xml version="1.0" encoding="UTF-8"?>
<svg width="177px" height="26px" viewBox="0 0 177 26" version="1.1" xmlns="http://www.w3.org/2000/svg" xmlns:xlink="http://www.w3.org/1999/xlink">
    <!-- Generator: Sketch 51.3 (57544) - http://www.bohemiancoding.com/sketch -->
    <title>installation</title>
    <desc>Created with Sketch.</desc>
    <defs></defs>
    <g id="Page-1" stroke="none" stroke-width="1" fill="none" fill-rule="evenodd">
        <path d="M0,24.9785156 L0,23.8710938 L0.94921875,23.8710938 C2.29688174,23.8710938 3.12597501,23.7626964 3.43652344,23.5458984 C3.74707187,23.3291005 3.90234375,22.8691441 3.90234375,22.1660156 L3.90234375,3.19921875 C3.90234375,2.50780904 3.74414221,2.05371202 3.42773438,1.83691406 C3.11132654,1.6201161 2.28516293,1.51171875 0.94921875,1.51171875 L0,1.51171875 L0,0.38671875 C0.843754219,0.457031602 2.68357957,0.4921875 5.51953125,0.4921875 C8.33204531,0.4921875 10.1542927,0.457031602 10.9863281,0.38671875 L10.9863281,1.51171875 L10.0546875,1.51171875 C8.70702451,1.51171875 7.87793124,1.6201161 7.56738281,1.83691406 C7.25683438,2.05371202 7.1015625,2.50780904 7.1015625,3.19921875 L7.1015625,22.1660156 C7.1015625,22.8574253 7.25683438,23.314452 7.56738281,23.5371094 C7.87793124,23.7597667 8.70702451,23.8710938 10.0546875,23.8710938 L10.9863281,23.8710938 L10.9863281,24.9785156 C10.1425739,24.9082028 8.30860787,24.8730469 5.484375,24.8730469 C2.67186094,24.8730469 0.843754219,24.9082028 0,24.9785156 Z M13.1484375,24.9785156 L13.1484375,23.8710938 C14.4257876,23.8710938 15.210936,23.791993 15.5039062,23.6337891 C15.7968765,23.4755851 15.9433594,23.0097695 15.9433594,22.2363281 L15.9433594,12.5859375 C15.9433594,11.695308 15.7880875,11.138673 15.4775391,10.9160156 C15.1669906,10.6933583 14.3906312,10.5820312 13.1484375,10.5820312 L13.1484375,9.45703125 L18.2109375,9.0703125 L18.2109375,12.8496094 C19.3359431,10.3300655 21.111316,9.0703125 23.5371094,9.0703125 C25.3418059,9.0703125 26.6015589,9.51562055 27.3164062,10.40625 C27.8437526,11.0039092 28.1630854,11.6367154 28.2744141,12.3046875 C28.3857427,12.9726596 28.4414062,14.1738195 28.4414062,15.9082031 L28.4414062,22.78125 C28.4648439,23.2851588 28.6699199,23.5927729 29.0566406,23.7041016 C29.4433613,23.8154302 30.1757759,23.8710938 31.2539062,23.8710938 L31.2539062,24.9785156 C28.8046753,24.9082028 27.4570325,24.8730469 27.2109375,24.8730469 C27.0234366,24.8730469 25.6699345,24.9082028 23.1503906,24.9785156 L23.1503906,23.8710938 C24.4277408,23.8710938 25.2158188,23.791993 25.5146484,23.6337891 C25.8134781,23.4755851 25.9628906,23.0097695 25.9628906,22.2363281 L25.9628906,13.8515625 C25.9628906,12.6328064 25.7753925,11.6630895 25.4003906,10.9423828 C25.0253888,10.2216761 24.3222708,9.86132812 23.2910156,9.86132812 C22.0488219,9.86132812 20.9296925,10.3828073 19.9335938,11.4257812 C18.937495,12.4687552 18.4394531,13.8691318 18.4394531,15.6269531 L18.4394531,22.2363281 C18.4394531,23.0097695 18.5888657,23.4755851 18.8876953,23.6337891 C19.1865249,23.791993 19.9687437,23.8710938 21.234375,23.8710938 L21.234375,24.9785156 C18.785144,24.9082028 17.4433605,24.8730469 17.2089844,24.8730469 C17.0214834,24.8730469 15.6679813,24.9082028 13.1484375,24.9785156 Z M33.1523438,24.5039062 L33.1523438,19.7578125 C33.1523438,19.4882799 33.1582031,19.3066411 33.1699219,19.2128906 C33.1816407,19.1191402 33.2226559,19.0371097 33.2929688,18.9667969 C33.3632816,18.896484 33.4687493,18.8613281 33.609375,18.8613281 C33.7734383,18.8613281 33.887695,18.896484 33.9521484,18.9667969 C34.0166019,19.0371097 34.0722654,19.2070299 34.1191406,19.4765625 C34.4824237,21.1289145 35.053707,22.3915972 35.8330078,23.2646484 C36.6123086,24.1376997 37.7109304,24.5742188 39.1289062,24.5742188 C40.4765692,24.5742188 41.490231,24.2753936 42.1699219,23.6777344 C42.8496128,23.0800751 43.1894531,22.2890674 43.1894531,21.3046875 C43.1894531,19.5468662 41.9414187,18.4453147 39.4453125,18 C38.003899,17.7070298 36.984378,17.4638682 36.3867188,17.2705078 C35.7890595,17.0771475 35.2265651,16.763674 34.6992188,16.3300781 C33.6679636,15.4863239 33.1523438,14.4668029 33.1523438,13.2714844 C33.1523438,12.0761659 33.6064408,11.0390669 34.5146484,10.1601562 C35.4228561,9.28124561 36.8847555,8.84179688 38.9003906,8.84179688 C40.2480536,8.84179688 41.3789017,9.18163723 42.2929688,9.86132812 C42.5625013,9.65038957 42.7675774,9.45703213 42.9082031,9.28125 C43.224611,8.98827979 43.4648429,8.84179688 43.6289062,8.84179688 C43.8164072,8.84179688 43.9277342,8.9033197 43.9628906,9.02636719 C43.9980471,9.14941468 44.015625,9.38085768 44.015625,9.72070312 L44.015625,13.3417969 C44.015625,13.6113295 44.0097657,13.7929683 43.9980469,13.8867188 C43.9863281,13.9804692 43.9453129,14.05957 43.875,14.1240234 C43.8046871,14.1884769 43.6933601,14.2207031 43.5410156,14.2207031 C43.271483,14.2207031 43.1308594,14.1093761 43.1191406,13.8867188 C42.9316397,10.9804542 41.5254037,9.52734375 38.9003906,9.52734375 C37.4824148,9.52734375 36.4570344,9.79980196 35.8242188,10.3447266 C35.1914031,10.8896512 34.875,11.5312463 34.875,12.2695312 C34.875,12.6796896 34.9716787,13.0400375 35.1650391,13.3505859 C35.3583994,13.6611344 35.5810534,13.9072257 35.8330078,14.0888672 C36.0849622,14.2705087 36.4453102,14.4462882 36.9140625,14.6162109 C37.3828148,14.7861337 37.7607408,14.9003903 38.0478516,14.9589844 C38.3349624,15.0175784 38.7539035,15.1054682 39.3046875,15.2226562 C41.2265721,15.5859393 42.5917928,16.1601523 43.4003906,16.9453125 C44.4082082,17.95313 44.9121094,19.0956967 44.9121094,20.3730469 C44.9121094,21.7910227 44.4316454,22.9804639 43.4707031,23.9414062 C42.5097608,24.9023486 41.0625097,25.3828125 39.1289062,25.3828125 C37.5703047,25.3828125 36.2460992,24.8613333 35.15625,23.8183594 C35.0156243,23.9589851 34.8925787,24.0908197 34.7871094,24.2138672 C34.6816401,24.3369147 34.6083986,24.4218748 34.5673828,24.46875 C34.526367,24.5156252 34.5000001,24.5537108 34.4882812,24.5830078 C34.4765624,24.6123048 34.4589845,24.6386718 34.4355469,24.6621094 C33.9550757,25.1425805 33.6562506,25.3828125 33.5390625,25.3828125 C33.3515616,25.3828125 33.2402346,25.3212897 33.2050781,25.1982422 C33.1699217,25.0751947 33.1523438,24.8437517 33.1523438,24.5039062 Z M46.8105469,10.5820312 L46.8105469,9.79101562 C47.9121149,9.74414039 48.8290979,9.33105858 49.5615234,8.55175781 C50.293949,7.77245704 50.7861316,6.90234855 51.0380859,5.94140625 C51.2900403,4.98046395 51.4277343,3.94336494 51.4511719,2.83007812 L52.3476562,2.83007812 L52.3476562,9.45703125 L57.4980469,9.45703125 L57.4980469,10.5820312 L52.3476562,10.5820312 L52.3476562,20.5839844 C52.3476562,23.1738411 53.1562419,24.46875 54.7734375,24.46875 C55.4648472,24.46875 56.0390602,24.1142614 56.4960938,23.4052734 C56.9531273,22.6962855 57.1816406,21.7089907 57.1816406,20.4433594 L57.1816406,18.4570312 L58.078125,18.4570312 L58.078125,20.5136719 C58.078125,21.8144596 57.7792999,22.951167 57.1816406,23.9238281 C56.5839814,24.8964892 55.6933653,25.3828125 54.5097656,25.3828125 C54.0761697,25.3828125 53.64551,25.327149 53.2177734,25.2158203 C52.7900369,25.1044916 52.2978543,24.9052749 51.7412109,24.6181641 C51.1845675,24.3310533 50.7334002,23.8330114 50.3876953,23.1240234 C50.0419905,22.4150355 49.8691406,21.544927 49.8691406,20.5136719 L49.8691406,10.5820312 L46.8105469,10.5820312 Z M61.59375,21.5507812 C61.59375,19.5117086 62.7949099,17.9531304 65.1972656,16.875 C66.6386791,16.1835903 68.8476414,15.7500009 71.8242188,15.5742188 L71.8242188,14.2558594 C71.8242188,12.7675707 71.4345742,11.6279336 70.6552734,10.8369141 C69.8759727,10.0458945 68.9941455,9.65039062 68.0097656,9.65039062 C66.2519443,9.65039062 64.9511761,10.2011664 64.1074219,11.3027344 C64.8222692,11.326172 65.3085925,11.5165998 65.5664062,11.8740234 C65.82422,12.2314471 65.953125,12.5917951 65.953125,12.9550781 C65.953125,13.4355493 65.8037124,13.8310531 65.5048828,14.1416016 C65.2060532,14.45215 64.80469,14.6074219 64.3007812,14.6074219 C63.8203101,14.6074219 63.4218766,14.4580093 63.1054688,14.1591797 C62.7890609,13.8603501 62.6308594,13.4472683 62.6308594,12.9199219 C62.6308594,11.748041 63.1611275,10.7753945 64.2216797,10.0019531 C65.2822319,9.22851176 66.5683518,8.84179688 68.0800781,8.84179688 C70.048838,8.84179688 71.6894466,9.50389963 73.0019531,10.828125 C73.4121114,11.2382833 73.7197255,11.7070286 73.9248047,12.234375 C74.1298838,12.7617214 74.2441405,13.1982405 74.2675781,13.5439453 C74.2910157,13.8896502 74.3027344,14.4023404 74.3027344,15.0820312 L74.3027344,22.2714844 C74.3027344,22.4121101 74.3261716,22.5996082 74.3730469,22.8339844 C74.4199221,23.0683605 74.5517567,23.3349594 74.7685547,23.6337891 C74.9853526,23.9326187 75.2753888,24.0820312 75.6386719,24.0820312 C76.5058637,24.0820312 76.9335938,23.3144608 76.921875,21.7792969 L76.921875,19.7578125 L77.8359375,19.7578125 L77.8359375,21.7792969 C77.8359375,23.056647 77.4990268,23.9443334 76.8251953,24.4423828 C76.1513638,24.9404322 75.5039094,25.1894531 74.8828125,25.1894531 C74.0859335,25.1894531 73.4355494,24.8964873 72.9316406,24.3105469 C72.4277319,23.7246064 72.1406254,23.0332071 72.0703125,22.2363281 C71.7070294,23.1503952 71.1123088,23.9033174 70.2861328,24.4951172 C69.4599568,25.086917 68.4843806,25.3828125 67.359375,25.3828125 C66.4921832,25.3828125 65.6513713,25.2744151 64.8369141,25.0576172 C64.0224569,24.8408192 63.2783237,24.4306671 62.6044922,23.8271484 C61.9306607,23.2236298 61.59375,22.4648483 61.59375,21.5507812 Z M64.3710938,21.515625 C64.3710938,22.4062545 64.6874968,23.138669 65.3203125,23.7128906 C65.9531282,24.2871122 66.7148393,24.5742188 67.6054688,24.5742188 C68.6132863,24.5742188 69.5683549,24.1845742 70.4707031,23.4052734 C71.3730514,22.6259727 71.8242188,21.4687577 71.8242188,19.9335938 L71.8242188,16.3300781 C69.1640492,16.4238286 67.2568417,17.0009713 66.1025391,18.0615234 C64.9482364,19.1220756 64.3710938,20.2734313 64.3710938,21.515625 Z M79.2773438,24.9785156 L79.2773438,23.8710938 C80.5546939,23.8710938 81.3398423,23.791993 81.6328125,23.6337891 C81.9257827,23.4755851 82.0722656,23.0097695 82.0722656,22.2363281 L82.0722656,3.515625 C82.0722656,2.62499555 81.9169937,2.06836049 81.6064453,1.84570313 C81.2958969,1.62304576 80.5195375,1.51171875 79.2773438,1.51171875 L79.2773438,0.38671875 L84.4453125,0 L84.4453125,22.2363281 C84.4453125,23.0097695 84.5976547,23.4755851 84.9023438,23.6337891 C85.2070328,23.791993 85.9921812,23.8710938 87.2578125,23.8710938 L87.2578125,24.9785156 C86.9648423,24.9785156 86.5136749,24.966797 85.9042969,24.9433594 C85.2949188,24.9199218 84.7675804,24.9023438 84.3222656,24.890625 C83.8769509,24.8789062 83.5253919,24.8730469 83.2675781,24.8730469 C82.9863267,24.8730469 81.6562619,24.9082028 79.2773438,24.9785156 Z M89.2441406,24.9785156 L89.2441406,23.8710938 C90.5214908,23.8710938 91.3066392,23.791993 91.5996094,23.6337891 C91.8925796,23.4755851 92.0390625,23.0097695 92.0390625,22.2363281 L92.0390625,3.515625 C92.0390625,2.62499555 91.8837906,2.06836049 91.5732422,1.84570313 C91.2626938,1.62304576 90.4863343,1.51171875 89.2441406,1.51171875 L89.2441406,0.38671875 L94.4121094,0 L94.4121094,22.2363281 C94.4121094,23.0097695 94.5644516,23.4755851 94.8691406,23.6337891 C95.1738296,23.791993 95.958978,23.8710938 97.2246094,23.8710938 L97.2246094,24.9785156 C96.9316392,24.9785156 96.4804718,24.966797 95.8710938,24.9433594 C95.2617157,24.9199218 94.7343772,24.9023438 94.2890625,24.890625 C93.8437478,24.8789062 93.4921888,24.8730469 93.234375,24.8730469 C92.9531236,24.8730469 91.6230588,24.9082028 89.2441406,24.9785156 Z M99.5273438,21.5507812 C99.5273438,19.5117086 100.728504,17.9531304 103.130859,16.875 C104.572273,16.1835903 106.781235,15.7500009 109.757812,15.5742188 L109.757812,14.2558594 C109.757812,12.7675707 109.368168,11.6279336 108.588867,10.8369141 C107.809566,10.0458945 106.927739,9.65039062 105.943359,9.65039062 C104.185538,9.65039062 102.88477,10.2011664 102.041016,11.3027344 C102.755863,11.326172 103.242186,11.5165998 103.5,11.8740234 C103.757814,12.2314471 103.886719,12.5917951 103.886719,12.9550781 C103.886719,13.4355493 103.737306,13.8310531 103.438477,14.1416016 C103.139647,14.45215 102.738284,14.6074219 102.234375,14.6074219 C101.753904,14.6074219 101.35547,14.4580093 101.039062,14.1591797 C100.722655,13.8603501 100.564453,13.4472683 100.564453,12.9199219 C100.564453,11.748041 101.094721,10.7753945 102.155273,10.0019531 C103.215826,9.22851176 104.501946,8.84179688 106.013672,8.84179688 C107.982432,8.84179688 109.62304,9.50389963 110.935547,10.828125 C111.345705,11.2382833 111.653319,11.7070286 111.858398,12.234375 C112.063478,12.7617214 112.177734,13.1982405 112.201172,13.5439453 C112.224609,13.8896502 112.236328,14.4023404 112.236328,15.0820312 L112.236328,22.2714844 C112.236328,22.4121101 112.259765,22.5996082 112.306641,22.8339844 C112.353516,23.0683605 112.48535,23.3349594 112.702148,23.6337891 C112.918946,23.9326187 113.208983,24.0820312 113.572266,24.0820312 C114.439457,24.0820312 114.867188,23.3144608 114.855469,21.7792969 L114.855469,19.7578125 L115.769531,19.7578125 L115.769531,21.7792969 C115.769531,23.056647 115.432621,23.9443334 114.758789,24.4423828 C114.084958,24.9404322 113.437503,25.1894531 112.816406,25.1894531 C112.019527,25.1894531 111.369143,24.8964873 110.865234,24.3105469 C110.361326,23.7246064 110.074219,23.0332071 110.003906,22.2363281 C109.640623,23.1503952 109.045903,23.9033174 108.219727,24.4951172 C107.393551,25.086917 106.417974,25.3828125 105.292969,25.3828125 C104.425777,25.3828125 103.584965,25.2744151 102.770508,25.0576172 C101.956051,24.8408192 101.211917,24.4306671 100.538086,23.8271484 C99.8642544,23.2236298 99.5273438,22.4648483 99.5273438,21.5507812 Z M102.304688,21.515625 C102.304688,22.4062545 102.621091,23.138669 103.253906,23.7128906 C103.886722,24.2871122 104.648433,24.5742188 105.539062,24.5742188 C106.54688,24.5742188 107.501949,24.1845742 108.404297,23.4052734 C109.306645,22.6259727 109.757812,21.4687577 109.757812,19.9335938 L109.757812,16.3300781 C107.097643,16.4238286 105.190435,17.0009713 104.036133,18.0615234 C102.88183,19.1220756 102.304688,20.2734313 102.304688,21.515625 Z M116.701172,10.5820312 L116.701172,9.79101562 C117.80274,9.74414039 118.719723,9.33105858 119.452148,8.55175781 C120.184574,7.77245704 120.676757,6.90234855 120.928711,5.94140625 C121.180665,4.98046395 121.318359,3.94336494 121.341797,2.83007812 L122.238281,2.83007812 L122.238281,9.45703125 L127.388672,9.45703125 L127.388672,10.5820312 L122.238281,10.5820312 L122.238281,20.5839844 C122.238281,23.1738411 123.046867,24.46875 124.664062,24.46875 C125.355472,24.46875 125.929685,24.1142614 126.386719,23.4052734 C126.843752,22.6962855 127.072266,21.7089907 127.072266,20.4433594 L127.072266,18.4570312 L127.96875,18.4570312 L127.96875,20.5136719 C127.96875,21.8144596 127.669925,22.951167 127.072266,23.9238281 C126.474606,24.8964892 125.58399,25.3828125 124.400391,25.3828125 C123.966795,25.3828125 123.536135,25.327149 123.108398,25.2158203 C122.680662,25.1044916 122.188479,24.9052749 121.631836,24.6181641 C121.075193,24.3310533 120.624025,23.8330114 120.27832,23.1240234 C119.932615,22.4150355 119.759766,21.544927 119.759766,20.5136719 L119.759766,10.5820312 L116.701172,10.5820312 Z M131.167969,24.9785156 L131.167969,23.8710938 C132.445319,23.8710938 133.230467,23.791993 133.523438,23.6337891 C133.816408,23.4755851 133.962891,23.0097695 133.962891,22.2363281 L133.962891,12.5507812 C133.962891,11.6601518 133.813478,11.1093761 133.514648,10.8984375 C133.215819,10.6874989 132.480475,10.5820312 131.308594,10.5820312 L131.308594,9.45703125 L136.335938,9.0703125 L136.335938,22.2714844 C136.335938,22.9863317 136.464842,23.4316397 136.722656,23.6074219 C136.98047,23.783204 137.695307,23.8710938 138.867188,23.8710938 L138.867188,24.9785156 C136.417957,24.9082028 135.169922,24.8730469 135.123047,24.8730469 C134.79492,24.8730469 133.476574,24.9082028 131.167969,24.9785156 Z M132.679688,2.79492188 C132.679688,2.31445072 132.864256,1.87793165 133.233398,1.48535156 C133.602541,1.09277147 134.050779,0.896484375 134.578125,0.896484375 C135.105471,0.896484375 135.556639,1.07519353 135.931641,1.43261719 C136.306642,1.79004085 136.494141,2.24706753 136.494141,2.80371094 C136.494141,3.36035435 136.306642,3.81738103 135.931641,4.17480469 C135.556639,4.53222835 135.105471,4.7109375 134.578125,4.7109375 C134.027341,4.7109375 133.573244,4.51758006 133.21582,4.13085938 C132.858397,3.74413869 132.679688,3.29883064 132.679688,2.79492188 Z M143.314453,23.0449219 C141.732414,21.4746015 140.941406,19.5498161 140.941406,17.2705078 C140.941406,14.9911995 141.717766,13.0166099 143.270508,11.3466797 C144.82325,9.67674946 146.712879,8.84179688 148.939453,8.84179688 C151.119152,8.84179688 152.991203,9.67089015 154.555664,11.3291016 C156.120125,12.987313 156.902344,14.9706916 156.902344,17.2792969 C156.902344,19.5410269 156.114266,21.4570234 154.538086,23.0273438 C152.961906,24.5976641 151.083995,25.3828125 148.904297,25.3828125 C146.771474,25.3828125 144.908211,24.6035234 143.314453,23.0449219 Z M143.929688,16.9804688 C143.929688,19.3125117 144.234372,21.0058541 144.84375,22.0605469 C145.781255,23.6660237 147.146475,24.46875 148.939453,24.46875 C149.830083,24.46875 150.647457,24.228518 151.391602,23.7480469 C152.135746,23.2675757 152.712889,22.6230509 153.123047,21.8144531 C153.650393,20.7597604 153.914062,19.1484483 153.914062,16.9804688 C153.914062,14.6718635 153.597659,13.0078176 152.964844,11.9882812 C152.027339,10.4296797 150.673837,9.65039062 148.904297,9.65039062 C148.130856,9.65039062 147.366215,9.85253704 146.610352,10.2568359 C145.854488,10.6611348 145.248049,11.2617148 144.791016,12.0585938 C144.216794,13.1132865 143.929688,14.7538951 143.929688,16.9804688 Z M159.099609,24.9785156 L159.099609,23.8710938 C160.37696,23.8710938 161.162108,23.791993 161.455078,23.6337891 C161.748048,23.4755851 161.894531,23.0097695 161.894531,22.2363281 L161.894531,12.5859375 C161.894531,11.695308 161.739259,11.138673 161.428711,10.9160156 C161.118163,10.6933583 160.341803,10.5820312 159.099609,10.5820312 L159.099609,9.45703125 L164.162109,9.0703125 L164.162109,12.8496094 C165.287115,10.3300655 167.062488,9.0703125 169.488281,9.0703125 C171.292978,9.0703125 172.552731,9.51562055 173.267578,10.40625 C173.794925,11.0039092 174.114257,11.6367154 174.225586,12.3046875 C174.336915,12.9726596 174.392578,14.1738195 174.392578,15.9082031 L174.392578,22.78125 C174.416016,23.2851588 174.621092,23.5927729 175.007812,23.7041016 C175.394533,23.8154302 176.126948,23.8710938 177.205078,23.8710938 L177.205078,24.9785156 C174.755847,24.9082028 173.408204,24.8730469 173.162109,24.8730469 C172.974608,24.8730469 171.621106,24.9082028 169.101562,24.9785156 L169.101562,23.8710938 C170.378913,23.8710938 171.166991,23.791993 171.46582,23.6337891 C171.76465,23.4755851 171.914062,23.0097695 171.914062,22.2363281 L171.914062,13.8515625 C171.914062,12.6328064 171.726564,11.6630895 171.351562,10.9423828 C170.976561,10.2216761 170.273443,9.86132812 169.242188,9.86132812 C167.999994,9.86132812 166.880864,10.3828073 165.884766,11.4257812 C164.888667,12.4687552 164.390625,13.8691318 164.390625,15.6269531 L164.390625,22.2363281 C164.390625,23.0097695 164.540038,23.4755851 164.838867,23.6337891 C165.137697,23.791993 165.919916,23.8710938 167.185547,23.8710938 L167.185547,24.9785156 C164.736316,24.9082028 163.394532,24.8730469 163.160156,24.8730469 C162.972655,24.8730469 161.619153,24.9082028 159.099609,24.9785156 Z" id="Installation" fill="#000000"></path>
    </g>
</svg>