<?xml version="1.0" encoding="UTF-8"?>
<svg width="117px" height="51px" viewBox="0 0 117 51" version="1.1" xmlns="http://www.w3.org/2000/svg" xmlns:xlink="http://www.w3.org/1999/xlink">
    <!-- Generator: Sketch 51.3 (57544) - http://www.bohemiancoding.com/sketch -->
    <title>logo</title>
    <desc>Created with Sketch.</desc>
    <defs></defs>
    <g id="Page-1" stroke="none" stroke-width="1" fill="none" fill-rule="evenodd">
        <path d="M0,50.1914062 L0,47.9765625 L1.72265625,47.9765625 C4.32423176,47.9765625 5.92382514,47.7597678 6.52148438,47.3261719 C7.11914361,46.892576 7.41796875,45.9726633 7.41796875,44.5664062 L7.41796875,6.6328125 C7.41796875,5.24999309 7.1132843,4.34179904 6.50390625,3.90820312 C5.8945282,3.47460721 4.30079414,3.2578125 1.72265625,3.2578125 L0,3.2578125 L0,1.0078125 C1.68750844,1.1484382 5.33200324,1.21875 10.9335938,1.21875 C17.2617504,1.21875 21.2929601,1.1484382 23.0273438,1.0078125 L23.0273438,3.2578125 L20.6367188,3.2578125 C18.4335827,3.2578125 16.82813,3.39843609 15.8203125,3.6796875 C14.812495,3.96093891 14.2265633,4.29491994 14.0625,4.68164062 C13.8984367,5.06836131 13.8164062,5.7421827 13.8164062,6.703125 L13.8164062,45.09375 C13.8164062,46.3359437 13.9980451,47.1269514 14.3613281,47.4667969 C14.7246112,47.8066423 15.7148357,47.9765625 17.3320312,47.9765625 L23.2382812,47.9765625 C25.6757934,47.9765625 27.7734287,47.6132849 29.53125,46.8867188 C31.2890713,46.1601526 32.6367141,45.3398483 33.5742188,44.4257812 C34.5117234,43.5117142 35.2910125,42.193368 35.9121094,40.4707031 C36.5332062,38.7480383 36.9433584,37.335943 37.1425781,36.234375 C37.3417979,35.132807 37.5351553,33.5976661 37.7226562,31.6289062 L39.515625,31.6289062 L37.5117188,50.1914062 L0,50.1914062 Z M49.359375,46.3242188 C46.1952967,43.183578 44.6132812,39.3340072 44.6132812,34.7753906 C44.6132812,30.2167741 46.1660001,26.2675948 49.2714844,22.9277344 C52.3769687,19.5878739 56.1562277,17.9179688 60.609375,17.9179688 C64.9687718,17.9179688 68.712875,19.5761553 71.8417969,22.8925781 C74.9707188,26.209001 76.5351562,30.1757582 76.5351562,34.7929688 C76.5351562,39.3164289 74.9590001,43.1484218 71.8066406,46.2890625 C68.6542811,49.4297032 64.8984593,51 60.5390625,51 C56.2734162,51 52.5468909,49.4414218 49.359375,46.3242188 Z M49.7460938,6.5625 C49.7460938,5.46093199 50.1152307,4.54687863 50.8535156,3.8203125 C51.5918006,3.09374637 52.4648387,2.73046875 53.4726562,2.73046875 C54.4335986,2.73046875 55.312496,3.105465 56.109375,3.85546875 C56.906254,4.6054725 57.3046875,5.50780723 57.3046875,6.5625 C57.3046875,7.61719277 56.906254,8.50194955 56.109375,9.21679688 C55.312496,9.9316442 54.4335986,10.2890625 53.4726562,10.2890625 C52.3710882,10.2890625 51.4746128,9.91992557 50.7832031,9.18164062 C50.0917934,8.44335568 49.7460938,7.57031754 49.7460938,6.5625 Z M50.5898438,34.1953125 C50.5898438,38.8593983 51.1992127,42.2460832 52.4179688,44.3554688 C54.2929781,47.5664223 57.0234196,49.171875 60.609375,49.171875 C62.3906339,49.171875 64.0253832,48.6914111 65.5136719,47.7304688 C67.0019606,46.7695264 68.1562459,45.4804768 68.9765625,43.8632812 C70.0312553,41.7538957 70.5585938,38.5312717 70.5585938,34.1953125 C70.5585938,29.5781019 69.9257876,26.2500102 68.6601562,24.2109375 C66.7851469,21.0937344 64.0781427,19.5351562 60.5390625,19.5351562 C58.9921798,19.5351562 57.4628982,19.9394491 55.9511719,20.7480469 C54.4394456,21.5566447 53.2265671,22.7578045 52.3125,24.3515625 C51.1640568,26.460948 50.5898438,29.7421652 50.5898438,34.1953125 Z M63.703125,6.5625 C63.703125,5.46093199 64.0898399,4.54687863 64.8632812,3.8203125 C65.6367226,3.09374637 66.5273387,2.73046875 67.5351562,2.73046875 C68.5429738,2.73046875 69.4160119,3.09374637 70.1542969,3.8203125 C70.8925818,4.54687863 71.2617188,5.46093199 71.2617188,6.5625 C71.2617188,7.61719277 70.8808632,8.50194955 70.1191406,9.21679688 C69.3574181,9.9316442 68.4960986,10.2890625 67.5351562,10.2890625 C66.4335882,10.2890625 65.5195349,9.91992557 64.7929688,9.18164062 C64.0664026,8.44335568 63.703125,7.57031754 63.703125,6.5625 Z M80.6132812,3.2578125 L80.6132812,1.0078125 L90.984375,0.234375 L90.984375,23.0507812 C93.7734514,19.9335782 97.0663873,18.375 100.863281,18.375 C104.988302,18.375 108.562485,19.9570154 111.585938,23.1210938 C114.60939,26.2851721 116.121094,30.1288836 116.121094,34.6523438 C116.121094,39.2226791 114.539078,43.0898279 111.375,46.2539062 C108.210922,49.4179846 104.437522,51 100.054688,51 C96.0702926,51 92.929699,49.2422051 90.6328125,45.7265625 C88.9453041,48.6562646 88.0781252,50.144531 88.03125,50.1914062 L86.2382812,50.1914062 L86.2382812,7.265625 C86.2382812,5.48436609 85.9218782,4.37109598 85.2890625,3.92578125 C84.6562468,3.48046652 83.0976687,3.2578125 80.6132812,3.2578125 Z M91.1953125,42 C91.1953125,43.0078175 91.5351529,44.01562 92.2148438,45.0234375 C94.1132907,47.929702 96.6093595,49.3828125 99.703125,49.3828125 C99.7265626,49.3828125 99.7499999,49.3828125 99.7734375,49.3828125 C103.125017,49.3828125 105.84374,47.8476716 107.929688,44.7773438 C109.406257,42.4804573 110.144531,39.0820538 110.144531,34.5820312 C110.144531,30.128884 109.453132,26.7890736 108.070312,24.5625 C106.148428,21.4921721 103.628922,19.9570312 100.511719,19.9570312 C96.9960762,19.9570312 94.160167,21.4921721 92.0039062,24.5625 C91.4648411,25.3359414 91.1953125,26.2031202 91.1953125,27.1640625 L91.1953125,42 Z" id="Löb" fill="#000000"></path>
    </g>
</svg>