<?xml version="1.0" encoding="UTF-8"?>
<svg width="298px" height="124px" viewBox="0 0 298 124" version="1.1" xmlns="http://www.w3.org/2000/svg" xmlns:xlink="http://www.w3.org/1999/xlink">
    <!-- Generator: Sketch 51.3 (57544) - http://www.bohemiancoding.com/sketch -->
    <title>logo</title>
    <desc>Created with Sketch.</desc>
    <defs></defs>
    <g id="Page-1" stroke="none" stroke-width="1" fill="none" fill-rule="evenodd">
        <g id="logo" fill="#000000">
            <path d="M0.1796875,50 L0.1796875,47.7851562 L1.90234375,47.7851562 C4.50391926,47.7851562 6.10351264,47.5683615 6.70117188,47.1347656 C7.29883111,46.7011697 7.59765625,45.781257 7.59765625,44.375 L7.59765625,6.44140625 C7.59765625,5.05858684 7.2929718,4.15039279 6.68359375,3.71679688 C6.0742157,3.28320096 4.48048164,3.06640625 1.90234375,3.06640625 L0.1796875,3.06640625 L0.1796875,0.81640625 C1.86719594,0.957031953 5.51169074,1.02734375 11.1132813,1.02734375 C17.4414379,1.02734375 21.4726476,0.957031953 23.2070312,0.81640625 L23.2070312,3.06640625 L20.8164062,3.06640625 C18.6132702,3.06640625 17.0078175,3.20702984 16,3.48828125 C14.9921825,3.76953266 14.4062508,4.10351369 14.2421875,4.49023438 C14.0781242,4.87695506 13.9960938,5.55077645 13.9960938,6.51171875 L13.9960938,44.9023438 C13.9960938,46.1445375 14.1777326,46.9355452 14.5410156,47.2753906 C14.9042987,47.6152361 15.8945232,47.7851562 17.5117188,47.7851562 L23.4179688,47.7851562 C25.8554809,47.7851562 27.9531162,47.4218786 29.7109375,46.6953125 C31.4687588,45.9687464 32.8164016,45.1484421 33.7539062,44.234375 C34.6914109,43.3203079 35.4707,42.0019617 36.0917969,40.2792969 C36.7128937,38.556632 37.1230459,37.1445368 37.3222656,36.0429688 C37.5214854,34.9414007 37.7148428,33.4062598 37.9023438,31.4375 L39.6953125,31.4375 L37.6914062,50 L0.1796875,50 Z M49.5390625,46.1328125 C46.3749842,42.9921718 44.7929688,39.1426009 44.7929688,34.5839844 C44.7929688,30.0253678 46.3456876,26.0761886 49.4511719,22.7363281 C52.5566562,19.3964677 56.3359152,17.7265625 60.7890625,17.7265625 C65.1484593,17.7265625 68.8925625,19.384749 72.0214844,22.7011719 C75.1504063,26.0175947 76.7148438,29.9843519 76.7148438,34.6015625 C76.7148438,39.1250226 75.1386876,42.9570155 71.9863281,46.0976562 C68.8339686,49.238297 65.0781468,50.8085938 60.71875,50.8085938 C56.4531037,50.8085938 52.7265784,49.2500156 49.5390625,46.1328125 Z M49.9257812,6.37109375 C49.9257812,5.26952574 50.2949182,4.35547238 51.0332031,3.62890625 C51.7714881,2.90234012 52.6445262,2.5390625 53.6523438,2.5390625 C54.6132861,2.5390625 55.4921835,2.91405875 56.2890625,3.6640625 C57.0859415,4.41406625 57.484375,5.31640098 57.484375,6.37109375 C57.484375,7.42578652 57.0859415,8.3105433 56.2890625,9.02539062 C55.4921835,9.74023795 54.6132861,10.0976562 53.6523438,10.0976562 C52.5507757,10.0976562 51.6543003,9.72851932 50.9628906,8.99023438 C50.2714809,8.25194943 49.9257812,7.37891129 49.9257812,6.37109375 Z M50.7695312,34.0039062 C50.7695312,38.6679921 51.3789002,42.054677 52.5976562,44.1640625 C54.4726656,47.3750161 57.2031071,48.9804688 60.7890625,48.9804688 C62.5703214,48.9804688 64.2050707,48.5000048 65.6933594,47.5390625 C67.1816481,46.5781202 68.3359334,45.2890706 69.15625,43.671875 C70.2109428,41.5624895 70.7382812,38.3398654 70.7382812,34.0039062 C70.7382812,29.3866957 70.1054751,26.0586039 68.8398438,24.0195312 C66.9648344,20.9023282 64.2578302,19.34375 60.71875,19.34375 C59.1718673,19.34375 57.6425857,19.7480428 56.1308594,20.5566406 C54.6191331,21.3652384 53.4062546,22.5663983 52.4921875,24.1601562 C51.3437443,26.2695418 50.7695312,29.550759 50.7695312,34.0039062 Z M63.8828125,6.37109375 C63.8828125,5.26952574 64.2695274,4.35547238 65.0429688,3.62890625 C65.8164101,2.90234012 66.7070262,2.5390625 67.7148438,2.5390625 C68.7226613,2.5390625 69.5956994,2.90234012 70.3339844,3.62890625 C71.0722693,4.35547238 71.4414062,5.26952574 71.4414062,6.37109375 C71.4414062,7.42578652 71.0605507,8.3105433 70.2988281,9.02539062 C69.5371056,9.74023795 68.6757861,10.0976562 67.7148438,10.0976562 C66.6132757,10.0976562 65.6992224,9.72851932 64.9726562,8.99023438 C64.2460901,8.25194943 63.8828125,7.37891129 63.8828125,6.37109375 Z M80.7929688,3.06640625 L80.7929688,0.81640625 L91.1640625,0.04296875 L91.1640625,22.859375 C93.9531389,19.7421719 97.2460748,18.1835938 101.042969,18.1835938 C105.167989,18.1835938 108.742172,19.7656092 111.765625,22.9296875 C114.789078,26.0937658 116.300781,29.9374774 116.300781,34.4609375 C116.300781,39.0312729 114.718766,42.8984217 111.554688,46.0625 C108.390609,49.2265783 104.617209,50.8085938 100.234375,50.8085938 C96.2499801,50.8085938 93.1093865,49.0507988 90.8125,45.5351562 C89.1249916,48.4648584 88.2578127,49.9531248 88.2109375,50 L86.4179688,50 L86.4179688,7.07421875 C86.4179688,5.29295984 86.1015657,4.17968973 85.46875,3.734375 C84.8359343,3.28906027 83.2773562,3.06640625 80.7929688,3.06640625 Z M91.375,41.8085938 C91.375,42.8164113 91.7148404,43.8242137 92.3945312,44.8320312 C94.2929782,47.7382958 96.789047,49.1914062 99.8828125,49.1914062 C99.9062501,49.1914062 99.9296874,49.1914062 99.953125,49.1914062 C103.304704,49.1914062 106.023427,47.6562654 108.109375,44.5859375 C109.585945,42.289051 110.324219,38.8906475 110.324219,34.390625 C110.324219,29.9374777 109.632819,26.5976674 108.25,24.3710938 C106.328115,21.3007659 103.808609,19.765625 100.691406,19.765625 C97.1757637,19.765625 94.3398545,21.3007659 92.1835938,24.3710938 C91.6445286,25.1445351 91.375,26.0117139 91.375,26.9726562 L91.375,41.8085938 Z" id="Löb"></path>
            <path d="M0.25,76.6389958 L0.70703125,71.2483708 L15.3671875,71.2483708 L15.8242188,76.6389958 L15.2265625,76.6389958 C15.1640622,75.9202422 15.1035159,75.3538416 15.0449219,74.9397771 C14.9863278,74.5257125 14.8886726,74.1214197 14.7519531,73.7268864 C14.6152337,73.3323532 14.4628915,73.0393874 14.2949219,72.8479802 C14.1269523,72.656573 13.8828141,72.4846997 13.5625,72.3323552 C13.2421859,72.1800107 12.8750021,72.0843085 12.4609375,72.0452458 C12.0468729,72.0061831 11.5273469,71.9866521 10.9023438,71.9866521 C10.1679651,71.9866521 9.7109384,72.0022769 9.53125,72.0335271 C9.33593652,72.0804023 9.21484398,72.1721983 9.16796875,72.3089177 C9.12109352,72.4456371 9.09765625,72.6585256 9.09765625,72.9475896 L9.09765625,85.5921208 C9.09765625,85.9124349 9.13085904,86.137042 9.19726562,86.2659489 C9.26367221,86.3948558 9.48046691,86.5081359 9.84765625,86.6057927 C10.2148456,86.7034494 10.8046834,86.7522771 11.6171875,86.7522771 L12.578125,86.7522771 L12.578125,87.4905583 C11.9218717,87.4436831 10.4023557,87.4202458 8.01953125,87.4202458 C5.65233191,87.4202458 4.14062828,87.4436831 3.484375,87.4905583 L3.484375,86.7522771 L4.4453125,86.7522771 C5.25781656,86.7522771 5.84960752,86.7034494 6.22070312,86.6057927 C6.59179873,86.5081359 6.80859344,86.3948558 6.87109375,86.2659489 C6.93359406,86.137042 6.96484375,85.9124349 6.96484375,85.5921208 L6.96484375,72.9475896 C6.96484375,72.7210259 6.95703133,72.5608713 6.94140625,72.4671208 C6.92578117,72.3733703 6.88281285,72.2854806 6.8125,72.2034489 C6.74218715,72.1214173 6.62695393,72.0647772 6.46679688,72.0335271 C6.30663982,72.0022769 5.87500352,71.9866521 5.171875,71.9866521 C4.54687187,71.9866521 4.02539271,72.0061831 3.60742188,72.0452458 C3.18945104,72.0843085 2.8203141,72.1800107 2.5,72.3323552 C2.1796859,72.4846997 1.93554771,72.656573 1.76757812,72.8479802 C1.59960854,73.0393874 1.44726631,73.3323532 1.31054688,73.7268864 C1.17382744,74.1214197 1.07812527,74.5257125 1.0234375,74.9397771 C0.968749727,75.3538416 0.910156562,75.9202422 0.84765625,76.6389958 L0.25,76.6389958 Z M17.4765625,87.4905583 L17.4765625,86.7522771 C18.3281293,86.7522771 18.8515615,86.6995432 19.046875,86.5940739 C19.2421885,86.4886047 19.3398438,86.1780609 19.3398438,85.6624333 L19.3398438,73.1819646 C19.3398438,72.5882116 19.2363292,72.2171216 19.0292969,72.0686833 C18.8222646,71.9202451 18.3046916,71.8460271 17.4765625,71.8460271 L17.4765625,71.0960271 L20.921875,70.8382146 L20.921875,79.1819646 L20.9453125,79.1819646 C21.2031263,78.6038367 21.6210909,78.0764982 22.1992188,77.5999333 C22.7773466,77.1233684 23.5117143,76.8850896 24.4023438,76.8850896 C25.6054748,76.8850896 26.4453101,77.1819616 26.921875,77.7757146 C27.2734393,78.1741541 27.4863278,78.5960248 27.5605469,79.0413396 C27.634766,79.4866543 27.671875,80.2874275 27.671875,81.4436833 L27.671875,86.0257146 C27.6875001,86.3616537 27.8242175,86.5667298 28.0820312,86.6409489 C28.339845,86.7151681 28.8281214,86.7522771 29.546875,86.7522771 L29.546875,87.4905583 C27.9140543,87.4436831 27.0156258,87.4202458 26.8515625,87.4202458 C26.7265619,87.4202458 25.8242271,87.4436831 24.1445312,87.4905583 L24.1445312,86.7522771 C24.996098,86.7522771 25.5214834,86.6995432 25.7207031,86.5940739 C25.9199229,86.4886047 26.0195312,86.1780609 26.0195312,85.6624333 L26.0195312,80.0725896 C26.0195312,79.2600855 25.8945325,78.6136076 25.6445312,78.1331364 C25.39453,77.6526653 24.9257847,77.4124333 24.2382812,77.4124333 C23.4101521,77.4124333 22.6640658,77.7600861 22,78.4554021 C21.3359342,79.150718 21.0039062,80.0843025 21.0039062,81.2561833 L21.0039062,85.6624333 C21.0039062,86.1780609 21.1035146,86.4886047 21.3027344,86.5940739 C21.5019541,86.6995432 22.0234333,86.7522771 22.8671875,86.7522771 L22.8671875,87.4905583 C21.2343668,87.4436831 20.3398445,87.4202458 20.1835938,87.4202458 C20.0585931,87.4202458 19.1562584,87.4436831 17.4765625,87.4905583 Z M30.6835938,82.2054021 C30.6835938,80.697582 31.1679639,79.4085324 32.1367188,78.3382146 C33.1054736,77.2678967 34.2851493,76.7327458 35.6757812,76.7327458 C37.0820383,76.7327458 38.150387,77.1897725 38.8808594,78.1038396 C39.6113318,79.0179066 39.9765625,80.1311768 39.9765625,81.4436833 C39.9765625,81.685872 39.9453128,81.8304018 39.8828125,81.8772771 C39.8203122,81.9241523 39.6523451,81.9475896 39.3789062,81.9475896 L32.6757812,81.9475896 C32.6757812,83.5804102 32.9179663,84.779617 33.4023438,85.5452458 C34.0742221,86.6155637 34.9765568,87.1507146 36.109375,87.1507146 C36.2656258,87.1507146 36.4374991,87.1350897 36.625,87.1038396 C36.8125009,87.0725894 37.0976543,86.9886059 37.4804688,86.8518864 C37.8632832,86.715167 38.2226546,86.4632164 38.5585938,86.0960271 C38.8945329,85.7288377 39.1601553,85.2561862 39.3554688,84.6780583 C39.402344,84.4514947 39.5039055,84.3421208 39.6601562,84.3499333 C39.8710948,84.3499333 39.9765625,84.4436824 39.9765625,84.6311833 C39.9765625,84.771809 39.9003914,85.0003224 39.7480469,85.3167302 C39.5957024,85.633138 39.3750014,85.9788377 39.0859375,86.3538396 C38.7968736,86.7288414 38.3730497,87.0569632 37.8144531,87.3382146 C37.2558566,87.619466 36.6406284,87.7600896 35.96875,87.7600896 C34.562493,87.7600896 33.3300834,87.2268918 32.2714844,86.1604802 C31.2128853,85.0940686 30.6835938,83.7757224 30.6835938,82.2054021 Z M32.6992188,81.4436833 L38.3945312,81.4436833 C38.3945312,81.1077441 38.3652347,80.7522789 38.3066406,80.3772771 C38.2480466,80.0022752 38.1347665,79.555014 37.9667969,79.0354802 C37.7988273,78.5159463 37.5195332,78.0921225 37.1289062,77.7639958 C36.7382793,77.4358692 36.2539091,77.2718083 35.6757812,77.2718083 C35.4179675,77.2718083 35.150392,77.3264953 34.8730469,77.4358708 C34.5957017,77.5452464 34.2890642,77.7327445 33.953125,77.9983708 C33.6171858,78.2639971 33.3320324,78.6975866 33.0976562,79.2991521 C32.8632801,79.9007176 32.7304689,80.6155542 32.6992188,81.4436833 Z M49.4453125,77.8929021 L49.4453125,77.1429021 L51.3320312,77.1429021 L51.3320312,74.3889958 C51.3320312,73.2014899 51.716793,72.2679055 52.4863281,71.5882146 C53.2558632,70.9085237 54.1132765,70.5686833 55.0585938,70.5686833 C55.6835969,70.5686833 56.1992167,70.7366504 56.6054688,71.0725896 C57.0117208,71.4085287 57.2148438,71.803056 57.2148438,72.2561833 C57.2148438,72.5608723 57.1230478,72.8128229 56.9394531,73.0120427 C56.7558585,73.2112624 56.4960954,73.3108708 56.1601562,73.3108708 C55.8398421,73.3108708 55.5878915,73.2093093 55.4042969,73.0061833 C55.2207022,72.8030573 55.1289062,72.5608722 55.1289062,72.2796208 C55.1289062,71.7639932 55.3671851,71.4280591 55.84375,71.2718083 C55.6015613,71.1624328 55.3398452,71.1038396 55.0585938,71.0960271 C54.4804659,71.0960271 53.9667991,71.3928991 53.5175781,71.9866521 C53.0683571,72.580405 52.84375,73.3733659 52.84375,74.3655583 L52.84375,77.1429021 L55.65625,77.1429021 L55.65625,77.8929021 L52.9257812,77.8929021 L52.9257812,85.6155583 C52.9257812,86.0764981 53.0214834,86.3811826 53.2128906,86.5296208 C53.4042978,86.6780591 53.9140584,86.7522771 54.7421875,86.7522771 L55.2460938,86.7522771 L55.2460938,87.4905583 C54.6054655,87.4436831 53.5898507,87.4202458 52.1992188,87.4202458 C52.0039053,87.4202458 51.7558609,87.424152 51.4550781,87.4319646 C51.1542954,87.4397771 50.8027364,87.4514957 50.4003906,87.4671208 C49.9980449,87.4827459 49.6875011,87.4905583 49.46875,87.4905583 L49.46875,86.7522771 C50.3203168,86.7522771 50.843749,86.6995432 51.0390625,86.5940739 C51.234376,86.4886047 51.3320312,86.1780609 51.3320312,85.6624333 L51.3320312,77.8929021 L49.4453125,77.8929021 Z M56.734375,77.8929021 L56.734375,77.1429021 L60.2617188,76.8850896 L60.2617188,84.8538396 C60.2617188,85.236654 60.2773436,85.5393853 60.3085938,85.7620427 C60.3398439,85.9847001 60.4199212,86.224932 60.5488281,86.4827458 C60.677735,86.7405596 60.8925766,86.9280577 61.1933594,87.0452458 C61.4941421,87.1624339 61.8867163,87.2210271 62.3710938,87.2210271 C63.2382856,87.2210271 63.9394504,86.8655619 64.4746094,86.1546208 C65.0097683,85.4436798 65.2773438,84.5608761 65.2773438,83.5061833 L65.2773438,79.2288396 C65.2773438,78.6350866 65.1718761,78.2639966 64.9609375,78.1155583 C64.7499989,77.9671201 64.2304729,77.8929021 63.4023438,77.8929021 L63.4023438,77.1429021 L66.9296875,76.8850896 L66.9296875,85.4046208 C66.9296875,85.9983738 67.0332021,86.3714169 67.2402344,86.5237614 C67.4472667,86.6761059 67.9687458,86.7522771 68.8046875,86.7522771 L68.8046875,87.4905583 L65.3476562,87.7600896 L65.3476562,85.5921208 C64.6757779,87.029628 63.6445382,87.752277 62.2539062,87.7600896 C61.5507777,87.7600896 60.9589868,87.6702467 60.4785156,87.4905583 C59.9980445,87.3108699 59.63672,87.1097001 59.3945312,86.8870427 C59.1523425,86.6643853 58.9667975,86.3382167 58.8378906,85.9085271 C58.7089837,85.4788374 58.6367188,85.1311846 58.6210938,84.8655583 C58.6054687,84.599932 58.5976562,84.2093109 58.5976562,83.6936833 L58.5976562,80.0960271 C58.5976562,79.0100841 58.519532,78.3714186 58.3632812,78.1800114 C58.2070305,77.9886042 57.6640671,77.8929021 56.734375,77.8929021 Z M70.046875,87.4905583 L70.046875,86.7522771 C70.8984418,86.7522771 71.421874,86.6995432 71.6171875,86.5940739 C71.812501,86.4886047 71.9101562,86.1780609 71.9101562,85.6624333 L71.9101562,79.2288396 C71.9101562,78.6350866 71.8066417,78.2639966 71.5996094,78.1155583 C71.3925771,77.9671201 70.8750041,77.8929021 70.046875,77.8929021 L70.046875,77.1429021 L73.421875,76.8850896 L73.421875,79.4046208 C74.1718788,77.7249249 75.3554607,76.8850896 76.9726562,76.8850896 C78.1757873,76.8850896 79.0156226,77.1819616 79.4921875,77.7757146 C79.8437518,78.1741541 80.0566403,78.5960248 80.1308594,79.0413396 C80.2050785,79.4866543 80.2421875,80.2874275 80.2421875,81.4436833 L80.2421875,86.0257146 C80.2578126,86.3616537 80.39453,86.5667298 80.6523438,86.6409489 C80.9101575,86.7151681 81.3984339,86.7522771 82.1171875,86.7522771 L82.1171875,87.4905583 C80.4843668,87.4436831 79.5859383,87.4202458 79.421875,87.4202458 C79.2968744,87.4202458 78.3945396,87.4436831 76.7148438,87.4905583 L76.7148438,86.7522771 C77.5664105,86.7522771 78.0917959,86.6995432 78.2910156,86.5940739 C78.4902354,86.4886047 78.5898438,86.1780609 78.5898438,85.6624333 L78.5898438,80.0725896 C78.5898438,79.2600855 78.464845,78.6136076 78.2148438,78.1331364 C77.9648425,77.6526653 77.4960972,77.4124333 76.8085938,77.4124333 C75.9804646,77.4124333 75.2343783,77.7600861 74.5703125,78.4554021 C73.9062467,79.150718 73.5742188,80.0843025 73.5742188,81.2561833 L73.5742188,85.6624333 C73.5742188,86.1780609 73.6738271,86.4886047 73.8730469,86.5940739 C74.0722666,86.6995432 74.5937458,86.7522771 75.4375,86.7522771 L75.4375,87.4905583 C73.8046793,87.4436831 72.910157,87.4202458 72.7539062,87.4202458 C72.6289056,87.4202458 71.7265709,87.4436831 70.046875,87.4905583 Z M91.3632812,87.1741521 L91.3632812,84.0100896 C91.3632812,83.8304012 91.3671875,83.7093086 91.375,83.6468083 C91.3828125,83.584308 91.410156,83.529621 91.4570312,83.4827458 C91.5039065,83.4358706 91.5742183,83.4124333 91.6679688,83.4124333 C91.7773443,83.4124333 91.8535154,83.4358706 91.8964844,83.4827458 C91.9394533,83.529621 91.9765623,83.6429012 92.0078125,83.8225896 C92.2500012,84.9241576 92.6308568,85.765946 93.1503906,86.3479802 C93.6699245,86.9300143 94.402339,87.2210271 95.3476562,87.2210271 C96.2460982,87.2210271 96.9218727,87.0218103 97.375,86.6233708 C97.8281273,86.2249313 98.0546875,85.6975928 98.0546875,85.0413396 C98.0546875,83.8694587 97.2226646,83.135091 95.5585938,82.8382146 C94.5976514,82.6429011 93.9179707,82.4807933 93.5195312,82.3518864 C93.1210918,82.2229795 92.7460955,82.0139973 92.3945312,81.7249333 C91.7070278,81.1624305 91.3632812,80.4827498 91.3632812,79.6858708 C91.3632812,78.8889918 91.6660126,78.1975925 92.2714844,77.6116521 C92.8769562,77.0257116 93.8515558,76.7327458 95.1953125,76.7327458 C96.0937545,76.7327458 96.8476532,76.959306 97.4570312,77.4124333 C97.6367196,77.2718076 97.773437,77.1429026 97.8671875,77.0257146 C98.0781261,76.8304011 98.2382807,76.7327458 98.3476562,76.7327458 C98.4726569,76.7327458 98.5468749,76.773761 98.5703125,76.8557927 C98.5937501,76.9378243 98.6054688,77.0921197 98.6054688,77.3186833 L98.6054688,79.7327458 C98.6054688,79.9124342 98.6015625,80.0335268 98.59375,80.0960271 C98.5859375,80.1585274 98.558594,80.2112612 98.5117188,80.2542302 C98.4648435,80.2971992 98.3906255,80.3186833 98.2890625,80.3186833 C98.1093741,80.3186833 98.015625,80.2444653 98.0078125,80.0960271 C97.8828119,78.1585174 96.9453213,77.1897771 95.1953125,77.1897771 C94.2499953,77.1897771 93.5664084,77.3714159 93.1445312,77.7346989 C92.7226541,78.097982 92.5117188,78.5257121 92.5117188,79.0179021 C92.5117188,79.2913409 92.5761712,79.5315729 92.7050781,79.7386052 C92.833985,79.9456375 92.982421,80.1096983 93.1503906,80.2307927 C93.3183602,80.351887 93.5585922,80.4690734 93.8710938,80.5823552 C94.1835953,80.695637 94.4355459,80.7718081 94.6269531,80.8108708 C94.8183603,80.8499335 95.0976544,80.9085267 95.4648438,80.9866521 C96.7461002,81.2288408 97.6562473,81.6116494 98.1953125,82.1350896 C98.8671909,82.8069679 99.203125,83.5686791 99.203125,84.4202458 C99.203125,85.365563 98.8828157,86.1585239 98.2421875,86.7991521 C97.6015593,87.4397803 96.6367252,87.7600896 95.3476562,87.7600896 C94.3085886,87.7600896 93.4257849,87.4124368 92.6992188,86.7171208 C92.6054683,86.8108713 92.5234379,86.898761 92.453125,86.9807927 C92.3828121,87.0628243 92.3339845,87.1194644 92.3066406,87.1507146 C92.2792967,87.1819647 92.2617188,87.2073551 92.2539062,87.2268864 C92.2460937,87.2464178 92.2343751,87.2639957 92.21875,87.2796208 C91.8984359,87.5999349 91.6992191,87.7600896 91.6210938,87.7600896 C91.4960931,87.7600896 91.4218751,87.7190743 91.3984375,87.6370427 C91.3749999,87.555011 91.3632812,87.4007157 91.3632812,87.1741521 Z M100.46875,77.8929021 L100.46875,77.3655583 C101.203129,77.3343082 101.814451,77.0589203 102.302734,76.5393864 C102.791018,76.0198526 103.11914,75.4397803 103.287109,74.7991521 C103.455079,74.1585239 103.546875,73.4671245 103.5625,72.7249333 L104.160156,72.7249333 L104.160156,77.1429021 L107.59375,77.1429021 L107.59375,77.8929021 L104.160156,77.8929021 L104.160156,84.5608708 C104.160156,86.2874419 104.699213,87.1507146 105.777344,87.1507146 C106.238284,87.1507146 106.621092,86.9143888 106.925781,86.4417302 C107.23047,85.9690716 107.382812,85.310875 107.382812,84.4671208 L107.382812,83.1429021 L107.980469,83.1429021 L107.980469,84.5139958 C107.980469,85.3811876 107.781252,86.1389926 107.382812,86.7874333 C106.984373,87.4358741 106.390629,87.7600896 105.601562,87.7600896 C105.312499,87.7600896 105.025392,87.7229806 104.740234,87.6487614 C104.455077,87.5745423 104.126955,87.4417311 103.755859,87.2503239 C103.384764,87.0589167 103.083986,86.7268888 102.853516,86.2542302 C102.623046,85.7815716 102.507812,85.2014993 102.507812,84.5139958 L102.507812,77.8929021 L100.46875,77.8929021 Z M110.324219,85.2054021 C110.324219,83.8460203 111.124992,82.8069682 112.726562,82.0882146 C113.687505,81.6272748 115.160146,81.3382151 117.144531,81.2210271 L117.144531,80.3421208 C117.144531,79.3499284 116.884768,78.5901703 116.365234,78.0628239 C115.845701,77.5354776 115.257816,77.2718083 114.601562,77.2718083 C113.429682,77.2718083 112.562503,77.6389921 112,78.3733708 C112.476565,78.3889959 112.80078,78.5159477 112.972656,78.7542302 C113.144532,78.9925126 113.230469,79.2327446 113.230469,79.4749333 C113.230469,79.7952474 113.13086,80.0589167 112.931641,80.2659489 C112.732421,80.4729812 112.464845,80.5764958 112.128906,80.5764958 C111.808592,80.5764958 111.54297,80.4768874 111.332031,80.2776677 C111.121093,80.0784479 111.015625,79.8030601 111.015625,79.4514958 C111.015625,78.6702419 111.369137,78.0218109 112.076172,77.5061833 C112.783207,76.9905557 113.64062,76.7327458 114.648438,76.7327458 C115.960944,76.7327458 117.054683,77.1741476 117.929688,78.0569646 C118.203126,78.3304034 118.408202,78.6429003 118.544922,78.9944646 C118.681641,79.3460288 118.757812,79.6370415 118.773438,79.8675114 C118.789063,80.0979813 118.796875,80.4397748 118.796875,80.8929021 L118.796875,85.6858708 C118.796875,85.7796213 118.8125,85.90462 118.84375,86.0608708 C118.875,86.2171216 118.96289,86.3948542 119.107422,86.5940739 C119.251954,86.7932937 119.445311,86.8929021 119.6875,86.8929021 C120.265628,86.8929021 120.550781,86.3811884 120.542969,85.3577458 L120.542969,84.0100896 L121.152344,84.0100896 L121.152344,85.3577458 C121.152344,86.2093126 120.927737,86.8011035 120.478516,87.1331364 C120.029295,87.4651693 119.597658,87.6311833 119.183594,87.6311833 C118.652341,87.6311833 118.218752,87.4358728 117.882812,87.0452458 C117.546873,86.6546189 117.355469,86.193686 117.308594,85.6624333 C117.066405,86.2718114 116.669925,86.7737595 116.119141,87.1682927 C115.568357,87.5628259 114.917973,87.7600896 114.167969,87.7600896 C113.589841,87.7600896 113.0293,87.6878247 112.486328,87.5432927 C111.943357,87.3987607 111.447268,87.1253259 110.998047,86.7229802 C110.548826,86.3206344 110.324219,85.8147801 110.324219,85.2054021 Z M112.175781,85.1819646 C112.175781,85.7757175 112.386717,86.2639939 112.808594,86.6468083 C113.230471,87.0296227 113.738278,87.2210271 114.332031,87.2210271 C115.00391,87.2210271 115.640622,86.961264 116.242188,86.4417302 C116.843753,85.9221963 117.144531,85.1507197 117.144531,84.1272771 L117.144531,81.7249333 C115.371085,81.7874336 114.099613,82.1721954 113.330078,82.8792302 C112.560543,83.586265 112.175781,84.3538354 112.175781,85.1819646 Z M121.773438,77.8929021 L121.773438,77.3655583 C122.507816,77.3343082 123.119138,77.0589203 123.607422,76.5393864 C124.095706,76.0198526 124.423827,75.4397803 124.591797,74.7991521 C124.759766,74.1585239 124.851562,73.4671245 124.867188,72.7249333 L125.464844,72.7249333 L125.464844,77.1429021 L128.898438,77.1429021 L128.898438,77.8929021 L125.464844,77.8929021 L125.464844,84.5608708 C125.464844,86.2874419 126.003901,87.1507146 127.082031,87.1507146 C127.542971,87.1507146 127.92578,86.9143888 128.230469,86.4417302 C128.535158,85.9690716 128.6875,85.310875 128.6875,84.4671208 L128.6875,83.1429021 L129.285156,83.1429021 L129.285156,84.5139958 C129.285156,85.3811876 129.085939,86.1389926 128.6875,86.7874333 C128.289061,87.4358741 127.695316,87.7600896 126.90625,87.7600896 C126.617186,87.7600896 126.33008,87.7229806 126.044922,87.6487614 C125.759764,87.5745423 125.431642,87.4417311 125.060547,87.2503239 C124.689451,87.0589167 124.388673,86.7268888 124.158203,86.2542302 C123.927733,85.7815716 123.8125,85.2014993 123.8125,84.5139958 L123.8125,77.8929021 L121.773438,77.8929021 Z M131.417969,87.4905583 L131.417969,86.7522771 C132.269536,86.7522771 132.792968,86.6995432 132.988281,86.5940739 C133.183595,86.4886047 133.28125,86.1780609 133.28125,85.6624333 L133.28125,79.2054021 C133.28125,78.6116491 133.181642,78.2444653 132.982422,78.1038396 C132.783202,77.9632139 132.292973,77.8929021 131.511719,77.8929021 L131.511719,77.1429021 L134.863281,76.8850896 L134.863281,85.6858708 C134.863281,86.1624357 134.949218,86.4593077 135.121094,86.5764958 C135.29297,86.6936839 135.769527,86.7522771 136.550781,86.7522771 L136.550781,87.4905583 C134.917961,87.4436831 134.085938,87.4202458 134.054688,87.4202458 C133.835936,87.4202458 132.957039,87.4436831 131.417969,87.4905583 Z M132.425781,72.7014958 C132.425781,72.3811817 132.548827,72.090169 132.794922,71.8284489 C133.041017,71.5667289 133.339842,71.4358708 133.691406,71.4358708 C134.042971,71.4358708 134.343749,71.5550102 134.59375,71.7932927 C134.843751,72.0315751 134.96875,72.3362596 134.96875,72.7073552 C134.96875,73.0784508 134.843751,73.3831352 134.59375,73.6214177 C134.343749,73.8597001 134.042971,73.9788396 133.691406,73.9788396 C133.324217,73.9788396 133.021486,73.8499346 132.783203,73.5921208 C132.544921,73.334307 132.425781,73.037435 132.425781,72.7014958 Z M139.609375,86.1780583 C138.593745,85.115553 138.085938,83.8245503 138.085938,82.3050114 C138.085938,80.7854726 138.585933,79.4768919 139.585938,78.3792302 C140.585942,77.2815684 141.820305,76.7327458 143.289062,76.7327458 C144.26563,76.7327458 145.12109,76.9651654 145.855469,77.4300114 C146.589847,77.8948575 146.957031,78.5218044 146.957031,79.3108708 C146.957031,79.6624351 146.853517,79.9378229 146.646484,80.1370427 C146.439452,80.3362624 146.175783,80.4358708 145.855469,80.4358708 C145.51953,80.4358708 145.251954,80.3323562 145.052734,80.1253239 C144.853515,79.9182917 144.753906,79.6546224 144.753906,79.3343083 C144.753906,79.1936826 144.777344,79.053059 144.824219,78.9124333 C144.871094,78.7718076 144.982421,78.6272778 145.158203,78.4788396 C145.333985,78.3304013 145.574217,78.2444647 145.878906,78.2210271 C145.308591,77.6350866 144.468756,77.3421208 143.359375,77.3421208 L143.3125,77.3421208 C142.499996,77.3421208 141.757816,77.7249295 141.085938,78.4905583 C140.414059,79.2561871 140.078125,80.5139871 140.078125,82.2639958 C140.078125,83.1780629 140.189452,83.9690706 140.412109,84.6370427 C140.634767,85.3050148 140.929686,85.8108691 141.296875,86.1546208 C141.664064,86.4983725 142.027342,86.7503231 142.386719,86.9104802 C142.746096,87.0706372 143.101561,87.1507146 143.453125,87.1507146 C145.023445,87.1507146 146.074216,86.3108792 146.605469,84.6311833 C146.652344,84.4749325 146.753905,84.3968083 146.910156,84.3968083 C147.121095,84.3968083 147.226562,84.4749325 147.226562,84.6311833 C147.226562,84.7093087 147.195313,84.8499323 147.132812,85.0530583 C147.070312,85.2561843 146.941407,85.5179005 146.746094,85.8382146 C146.55078,86.1585287 146.314455,86.4573538 146.037109,86.7346989 C145.759764,87.0120441 145.376956,87.252276 144.888672,87.4554021 C144.400388,87.6585281 143.851566,87.7600896 143.242188,87.7600896 C141.83593,87.7600896 140.625005,87.2327511 139.609375,86.1780583 Z M156.695312,87.1741521 L156.695312,84.0100896 C156.695312,83.8304012 156.699219,83.7093086 156.707031,83.6468083 C156.714844,83.584308 156.742187,83.529621 156.789062,83.4827458 C156.835938,83.4358706 156.90625,83.4124333 157,83.4124333 C157.109376,83.4124333 157.185547,83.4358706 157.228516,83.4827458 C157.271485,83.529621 157.308594,83.6429012 157.339844,83.8225896 C157.582032,84.9241576 157.962888,85.765946 158.482422,86.3479802 C159.001956,86.9300143 159.73437,87.2210271 160.679688,87.2210271 C161.578129,87.2210271 162.253904,87.0218103 162.707031,86.6233708 C163.160159,86.2249313 163.386719,85.6975928 163.386719,85.0413396 C163.386719,83.8694587 162.554696,83.135091 160.890625,82.8382146 C159.929683,82.6429011 159.250002,82.4807933 158.851562,82.3518864 C158.453123,82.2229795 158.078127,82.0139973 157.726562,81.7249333 C157.039059,81.1624305 156.695312,80.4827498 156.695312,79.6858708 C156.695312,78.8889918 156.998044,78.1975925 157.603516,77.6116521 C158.208987,77.0257116 159.183587,76.7327458 160.527344,76.7327458 C161.425786,76.7327458 162.179684,76.959306 162.789062,77.4124333 C162.968751,77.2718076 163.105468,77.1429026 163.199219,77.0257146 C163.410157,76.8304011 163.570312,76.7327458 163.679688,76.7327458 C163.804688,76.7327458 163.878906,76.773761 163.902344,76.8557927 C163.925781,76.9378243 163.9375,77.0921197 163.9375,77.3186833 L163.9375,79.7327458 C163.9375,79.9124342 163.933594,80.0335268 163.925781,80.0960271 C163.917969,80.1585274 163.890625,80.2112612 163.84375,80.2542302 C163.796875,80.2971992 163.722657,80.3186833 163.621094,80.3186833 C163.441405,80.3186833 163.347656,80.2444653 163.339844,80.0960271 C163.214843,78.1585174 162.277353,77.1897771 160.527344,77.1897771 C159.582027,77.1897771 158.89844,77.3714159 158.476562,77.7346989 C158.054685,78.097982 157.84375,78.5257121 157.84375,79.0179021 C157.84375,79.2913409 157.908202,79.5315729 158.037109,79.7386052 C158.166016,79.9456375 158.314452,80.1096983 158.482422,80.2307927 C158.650391,80.351887 158.890623,80.4690734 159.203125,80.5823552 C159.515627,80.695637 159.767577,80.7718081 159.958984,80.8108708 C160.150392,80.8499335 160.429686,80.9085267 160.796875,80.9866521 C162.078131,81.2288408 162.988279,81.6116494 163.527344,82.1350896 C164.199222,82.8069679 164.535156,83.5686791 164.535156,84.4202458 C164.535156,85.365563 164.214847,86.1585239 163.574219,86.7991521 C162.933591,87.4397803 161.968756,87.7600896 160.679688,87.7600896 C159.64062,87.7600896 158.757816,87.4124368 158.03125,86.7171208 C157.9375,86.8108713 157.855469,86.898761 157.785156,86.9807927 C157.714843,87.0628243 157.666016,87.1194644 157.638672,87.1507146 C157.611328,87.1819647 157.59375,87.2073551 157.585938,87.2268864 C157.578125,87.2464178 157.566406,87.2639957 157.550781,87.2796208 C157.230467,87.5999349 157.03125,87.7600896 156.953125,87.7600896 C156.828124,87.7600896 156.753906,87.7190743 156.730469,87.6370427 C156.707031,87.555011 156.695312,87.4007157 156.695312,87.1741521 Z M166.140625,87.4905583 L166.140625,86.7522771 C166.992192,86.7522771 167.515624,86.6995432 167.710938,86.5940739 C167.906251,86.4886047 168.003906,86.1780609 168.003906,85.6624333 L168.003906,79.2054021 C168.003906,78.6116491 167.904298,78.2444653 167.705078,78.1038396 C167.505858,77.9632139 167.015629,77.8929021 166.234375,77.8929021 L166.234375,77.1429021 L169.585938,76.8850896 L169.585938,85.6858708 C169.585938,86.1624357 169.671874,86.4593077 169.84375,86.5764958 C170.015626,86.6936839 170.492184,86.7522771 171.273438,86.7522771 L171.273438,87.4905583 C169.640617,87.4436831 168.808594,87.4202458 168.777344,87.4202458 C168.558593,87.4202458 167.679695,87.4436831 166.140625,87.4905583 Z M167.148438,72.7014958 C167.148438,72.3811817 167.271483,72.090169 167.517578,71.8284489 C167.763673,71.5667289 168.062498,71.4358708 168.414062,71.4358708 C168.765627,71.4358708 169.066405,71.5550102 169.316406,71.7932927 C169.566408,72.0315751 169.691406,72.3362596 169.691406,72.7073552 C169.691406,73.0784508 169.566408,73.3831352 169.316406,73.6214177 C169.066405,73.8597001 168.765627,73.9788396 168.414062,73.9788396 C168.046873,73.9788396 167.744142,73.8499346 167.505859,73.5921208 C167.267577,73.334307 167.148438,73.037435 167.148438,72.7014958 Z M172.445312,77.8929021 L172.445312,77.3655583 C173.179691,77.3343082 173.791013,77.0589203 174.279297,76.5393864 C174.767581,76.0198526 175.095702,75.4397803 175.263672,74.7991521 C175.431641,74.1585239 175.523437,73.4671245 175.539062,72.7249333 L176.136719,72.7249333 L176.136719,77.1429021 L179.570312,77.1429021 L179.570312,77.8929021 L176.136719,77.8929021 L176.136719,84.5608708 C176.136719,86.2874419 176.675776,87.1507146 177.753906,87.1507146 C178.214846,87.1507146 178.597655,86.9143888 178.902344,86.4417302 C179.207033,85.9690716 179.359375,85.310875 179.359375,84.4671208 L179.359375,83.1429021 L179.957031,83.1429021 L179.957031,84.5139958 C179.957031,85.3811876 179.757814,86.1389926 179.359375,86.7874333 C178.960936,87.4358741 178.367191,87.7600896 177.578125,87.7600896 C177.289061,87.7600896 177.001955,87.7229806 176.716797,87.6487614 C176.431639,87.5745423 176.103517,87.4417311 175.732422,87.2503239 C175.361326,87.0589167 175.060548,86.7268888 174.830078,86.2542302 C174.599608,85.7815716 174.484375,85.2014993 174.484375,84.5139958 L174.484375,77.8929021 L172.445312,77.8929021 Z M181.960938,82.2054021 C181.960938,80.697582 182.445308,79.4085324 183.414062,78.3382146 C184.382817,77.2678967 185.562493,76.7327458 186.953125,76.7327458 C188.359382,76.7327458 189.427731,77.1897725 190.158203,78.1038396 C190.888676,79.0179066 191.253906,80.1311768 191.253906,81.4436833 C191.253906,81.685872 191.222657,81.8304018 191.160156,81.8772771 C191.097656,81.9241523 190.929689,81.9475896 190.65625,81.9475896 L183.953125,81.9475896 C183.953125,83.5804102 184.19531,84.779617 184.679688,85.5452458 C185.351566,86.6155637 186.253901,87.1507146 187.386719,87.1507146 C187.54297,87.1507146 187.714843,87.1350897 187.902344,87.1038396 C188.089845,87.0725894 188.374998,86.9886059 188.757812,86.8518864 C189.140627,86.715167 189.499998,86.4632164 189.835938,86.0960271 C190.171877,85.7288377 190.437499,85.2561862 190.632812,84.6780583 C190.679688,84.4514947 190.781249,84.3421208 190.9375,84.3499333 C191.148439,84.3499333 191.253906,84.4436824 191.253906,84.6311833 C191.253906,84.771809 191.177735,85.0003224 191.025391,85.3167302 C190.873046,85.633138 190.652345,85.9788377 190.363281,86.3538396 C190.074217,86.7288414 189.650393,87.0569632 189.091797,87.3382146 C188.5332,87.619466 187.917972,87.7600896 187.246094,87.7600896 C185.839837,87.7600896 184.607427,87.2268918 183.548828,86.1604802 C182.490229,85.0940686 181.960938,83.7757224 181.960938,82.2054021 Z M183.976562,81.4436833 L189.671875,81.4436833 C189.671875,81.1077441 189.642578,80.7522789 189.583984,80.3772771 C189.52539,80.0022752 189.41211,79.555014 189.244141,79.0354802 C189.076171,78.5159463 188.796877,78.0921225 188.40625,77.7639958 C188.015623,77.4358692 187.531253,77.2718083 186.953125,77.2718083 C186.695311,77.2718083 186.427736,77.3264953 186.150391,77.4358708 C185.873045,77.5452464 185.566408,77.7327445 185.230469,77.9983708 C184.89453,78.2639971 184.609376,78.6975866 184.375,79.2991521 C184.140624,79.9007176 184.007813,80.6155542 183.976562,81.4436833 Z M200.59375,89.3889958 C200.59375,88.8733682 200.791014,88.3929043 201.185547,87.9475896 C201.58008,87.5022748 202.12109,87.1819655 202.808594,86.9866521 C202.105465,86.5413373 201.753906,85.8304069 201.753906,84.8538396 C201.753906,84.1038358 201.999998,83.43978 202.492188,82.8616521 C201.742184,82.2366489 201.367188,81.4124384 201.367188,80.3889958 C201.367188,79.4436786 201.742184,78.6233743 202.492188,77.9280583 C203.242191,77.2327423 204.164057,76.8850896 205.257812,76.8850896 C206.218755,76.8850896 207.066403,77.1741492 207.800781,77.7522771 C208.56641,77.0022733 209.414058,76.6233709 210.34375,76.6155583 C210.757815,76.6155583 211.064452,76.7444633 211.263672,77.0022771 C211.462892,77.2600909 211.5625,77.5257132 211.5625,77.7991521 C211.5625,78.0413408 211.486329,78.2210265 211.333984,78.3382146 C211.18164,78.4554026 211.027345,78.5139958 210.871094,78.5139958 C210.67578,78.5139958 210.509766,78.4495433 210.373047,78.3206364 C210.236327,78.1917295 210.167969,78.0257156 210.167969,77.8225896 C210.167969,77.4866504 210.296874,77.2679026 210.554688,77.1663396 C210.507812,77.1507145 210.429688,77.1429021 210.320312,77.1429021 C209.539059,77.1429021 208.81641,77.4553989 208.152344,78.0804021 C208.808597,78.6897801 209.136719,79.4671161 209.136719,80.4124333 C209.136719,81.3577505 208.761723,82.1780548 208.011719,82.8733708 C207.261715,83.5686868 206.343755,83.9163396 205.257812,83.9163396 C204.359371,83.9163396 203.56641,83.6663421 202.878906,83.1663396 C202.605467,83.4866537 202.46875,83.8655561 202.46875,84.3030583 C202.46875,84.7014978 202.589843,85.056963 202.832031,85.3694646 C203.07422,85.6819661 203.378904,85.8616518 203.746094,85.9085271 C203.855469,85.9241521 204.45312,85.9319646 205.539062,85.9319646 C206.179691,85.9319646 206.675779,85.939777 207.027344,85.9554021 C207.378908,85.9710271 207.806638,86.0315734 208.310547,86.1370427 C208.814456,86.242512 209.265623,86.3968073 209.664062,86.5999333 C210.70313,87.1780612 211.226562,88.0921146 211.234375,89.3421208 C211.234375,90.2561879 210.70899,91.0003211 209.658203,91.5745427 C208.607417,92.1487643 207.355476,92.4358708 205.902344,92.4358708 C204.433586,92.4358708 203.181646,92.1448581 202.146484,91.5628239 C201.111323,90.9807898 200.59375,90.2561876 200.59375,89.3889958 Z M201.847656,89.3889958 C201.847656,90.0452491 202.234371,90.6253214 203.007812,91.1292302 C203.781254,91.633139 204.7539,91.8850896 205.925781,91.8850896 C207.074224,91.8850896 208.037105,91.6370452 208.814453,91.1409489 C209.591801,90.6448527 209.980469,90.0608742 209.980469,89.3889958 C209.980469,88.9124309 209.843751,88.5218098 209.570312,88.2171208 C209.296874,87.9124318 208.880862,87.6995433 208.322266,87.5784489 C207.763669,87.4573546 207.289064,87.3850897 206.898438,87.3616521 C206.507811,87.3382144 205.953129,87.3264958 205.234375,87.3264958 L203.816406,87.3264958 C203.269529,87.357746 202.804689,87.5725876 202.421875,87.9710271 C202.039061,88.3694666 201.847656,88.8421181 201.847656,89.3889958 Z M203.160156,80.4124333 C203.160156,82.3811932 203.859368,83.3655583 205.257812,83.3655583 C205.960941,83.3655583 206.527342,83.045249 206.957031,82.4046208 C207.214845,81.9749312 207.34375,81.3030629 207.34375,80.3889958 C207.34375,78.420236 206.648444,77.4358708 205.257812,77.4358708 C204.554684,77.4358708 203.984377,77.7561801 203.546875,78.3968083 C203.289061,78.826498 203.160156,79.4983662 203.160156,80.4124333 Z M212.59375,82.2054021 C212.59375,80.697582 213.07812,79.4085324 214.046875,78.3382146 C215.01563,77.2678967 216.195306,76.7327458 217.585938,76.7327458 C218.992195,76.7327458 220.060543,77.1897725 220.791016,78.1038396 C221.521488,79.0179066 221.886719,80.1311768 221.886719,81.4436833 C221.886719,81.685872 221.855469,81.8304018 221.792969,81.8772771 C221.730468,81.9241523 221.562501,81.9475896 221.289062,81.9475896 L214.585938,81.9475896 C214.585938,83.5804102 214.828123,84.779617 215.3125,85.5452458 C215.984378,86.6155637 216.886713,87.1507146 218.019531,87.1507146 C218.175782,87.1507146 218.347655,87.1350897 218.535156,87.1038396 C218.722657,87.0725894 219.007811,86.9886059 219.390625,86.8518864 C219.773439,86.715167 220.132811,86.4632164 220.46875,86.0960271 C220.804689,85.7288377 221.070312,85.2561862 221.265625,84.6780583 C221.3125,84.4514947 221.414062,84.3421208 221.570312,84.3499333 C221.781251,84.3499333 221.886719,84.4436824 221.886719,84.6311833 C221.886719,84.771809 221.810548,85.0003224 221.658203,85.3167302 C221.505859,85.633138 221.285158,85.9788377 220.996094,86.3538396 C220.70703,86.7288414 220.283206,87.0569632 219.724609,87.3382146 C219.166013,87.619466 218.550785,87.7600896 217.878906,87.7600896 C216.472649,87.7600896 215.24024,87.2268918 214.181641,86.1604802 C213.123042,85.0940686 212.59375,83.7757224 212.59375,82.2054021 Z M214.609375,81.4436833 L220.304688,81.4436833 C220.304688,81.1077441 220.275391,80.7522789 220.216797,80.3772771 C220.158203,80.0022752 220.044923,79.555014 219.876953,79.0354802 C219.708984,78.5159463 219.429689,78.0921225 219.039062,77.7639958 C218.648436,77.4358692 218.164065,77.2718083 217.585938,77.2718083 C217.328124,77.2718083 217.060548,77.3264953 216.783203,77.4358708 C216.505858,77.5452464 216.19922,77.7327445 215.863281,77.9983708 C215.527342,78.2639971 215.242189,78.6975866 215.007812,79.2991521 C214.773436,79.9007176 214.640625,80.6155542 214.609375,81.4436833 Z M223.351562,87.4905583 L223.351562,86.7522771 C224.203129,86.7522771 224.726562,86.6995432 224.921875,86.5940739 C225.117188,86.4886047 225.214844,86.1780609 225.214844,85.6624333 L225.214844,79.2288396 C225.214844,78.6350866 225.111329,78.2639966 224.904297,78.1155583 C224.697265,77.9671201 224.179692,77.8929021 223.351562,77.8929021 L223.351562,77.1429021 L226.726562,76.8850896 L226.726562,79.4046208 C227.476566,77.7249249 228.660148,76.8850896 230.277344,76.8850896 C231.480475,76.8850896 232.32031,77.1819616 232.796875,77.7757146 C233.148439,78.1741541 233.361328,78.5960248 233.435547,79.0413396 C233.509766,79.4866543 233.546875,80.2874275 233.546875,81.4436833 L233.546875,86.0257146 C233.5625,86.3616537 233.699217,86.5667298 233.957031,86.6409489 C234.214845,86.7151681 234.703121,86.7522771 235.421875,86.7522771 L235.421875,87.4905583 C233.789054,87.4436831 232.890626,87.4202458 232.726562,87.4202458 C232.601562,87.4202458 231.699227,87.4436831 230.019531,87.4905583 L230.019531,86.7522771 C230.871098,86.7522771 231.396483,86.6995432 231.595703,86.5940739 C231.794923,86.4886047 231.894531,86.1780609 231.894531,85.6624333 L231.894531,80.0725896 C231.894531,79.2600855 231.769533,78.6136076 231.519531,78.1331364 C231.26953,77.6526653 230.800785,77.4124333 230.113281,77.4124333 C229.285152,77.4124333 228.539066,77.7600861 227.875,78.4554021 C227.210934,79.150718 226.878906,80.0843025 226.878906,81.2561833 L226.878906,85.6624333 C226.878906,86.1780609 226.978515,86.4886047 227.177734,86.5940739 C227.376954,86.6995432 227.898433,86.7522771 228.742188,86.7522771 L228.742188,87.4905583 C227.109367,87.4436831 226.214845,87.4202458 226.058594,87.4202458 C225.933593,87.4202458 225.031258,87.4436831 223.351562,87.4905583 Z M236.558594,82.2054021 C236.558594,80.697582 237.042964,79.4085324 238.011719,78.3382146 C238.980474,77.2678967 240.160149,76.7327458 241.550781,76.7327458 C242.957038,76.7327458 244.025387,77.1897725 244.755859,78.1038396 C245.486332,79.0179066 245.851563,80.1311768 245.851562,81.4436833 C245.851563,81.685872 245.820313,81.8304018 245.757812,81.8772771 C245.695312,81.9241523 245.527345,81.9475896 245.253906,81.9475896 L238.550781,81.9475896 C238.550781,83.5804102 238.792966,84.779617 239.277344,85.5452458 C239.949222,86.6155637 240.851557,87.1507146 241.984375,87.1507146 C242.140626,87.1507146 242.312499,87.1350897 242.5,87.1038396 C242.687501,87.0725894 242.972654,86.9886059 243.355469,86.8518864 C243.738283,86.715167 244.097655,86.4632164 244.433594,86.0960271 C244.769533,85.7288377 245.035155,85.2561862 245.230469,84.6780583 C245.277344,84.4514947 245.378905,84.3421208 245.535156,84.3499333 C245.746095,84.3499333 245.851563,84.4436824 245.851562,84.6311833 C245.851563,84.771809 245.775391,85.0003224 245.623047,85.3167302 C245.470702,85.633138 245.250001,85.9788377 244.960938,86.3538396 C244.671874,86.7288414 244.24805,87.0569632 243.689453,87.3382146 C243.130857,87.619466 242.515628,87.7600896 241.84375,87.7600896 C240.437493,87.7600896 239.205083,87.2268918 238.146484,86.1604802 C237.087885,85.0940686 236.558594,83.7757224 236.558594,82.2054021 Z M238.574219,81.4436833 L244.269531,81.4436833 C244.269531,81.1077441 244.240235,80.7522789 244.181641,80.3772771 C244.123047,80.0022752 244.009766,79.555014 243.841797,79.0354802 C243.673827,78.5159463 243.394533,78.0921225 243.003906,77.7639958 C242.613279,77.4358692 242.128909,77.2718083 241.550781,77.2718083 C241.292967,77.2718083 241.025392,77.3264953 240.748047,77.4358708 C240.470702,77.5452464 240.164064,77.7327445 239.828125,77.9983708 C239.492186,78.2639971 239.207032,78.6975866 238.972656,79.2991521 C238.73828,79.9007176 238.605469,80.6155542 238.574219,81.4436833 Z M247.210938,87.4905583 L247.210938,86.7522771 C248.062504,86.7522771 248.58789,86.6995432 248.787109,86.5940739 C248.986329,86.4886047 249.085937,86.1780609 249.085938,85.6624333 L249.085938,79.2288396 C249.085937,78.6350866 248.982423,78.2639966 248.775391,78.1155583 C248.568358,77.9671201 248.046879,77.8929021 247.210938,77.8929021 L247.210938,77.1429021 L250.550781,76.8850896 L250.550781,79.5218083 C250.777345,78.8343049 251.130857,78.2229829 251.611328,77.6878239 C252.091799,77.152665 252.722652,76.8850896 253.503906,76.8850896 C254.019534,76.8850896 254.443358,77.0296194 254.775391,77.3186833 C255.107424,77.6077473 255.273437,77.9514938 255.273438,78.3499333 C255.273437,78.7014976 255.166017,78.9651668 254.951172,79.1409489 C254.736327,79.3167311 254.500001,79.4046208 254.242188,79.4046208 C253.953124,79.4046208 253.708985,79.3128249 253.509766,79.1292302 C253.310546,78.9456355 253.210937,78.6936849 253.210938,78.3733708 C253.210937,78.1780573 253.255859,78.0042309 253.345703,77.8518864 C253.435547,77.6995419 253.515625,77.5960273 253.585938,77.5413396 C253.65625,77.4866518 253.714844,77.4514959 253.761719,77.4358708 C253.730469,77.4202457 253.644532,77.4124333 253.503906,77.4124333 C252.621089,77.4124333 251.927737,77.851882 251.423828,78.7307927 C250.919919,79.6097033 250.667969,80.6741458 250.667969,81.9241521 L250.667969,85.6155583 C250.667969,86.0764981 250.763671,86.3811826 250.955078,86.5296208 C251.146485,86.6780591 251.660152,86.7522771 252.496094,86.7522771 L253,86.7522771 L253,87.4905583 C252.359372,87.4436831 251.343757,87.4202458 249.953125,87.4202458 C249.757812,87.4202458 249.507814,87.424152 249.203125,87.4319646 C248.898436,87.4397771 248.546877,87.4514957 248.148438,87.4671208 C247.749998,87.4827459 247.437501,87.4905583 247.210938,87.4905583 Z M256.925781,85.2054021 C256.925781,83.8460203 257.726554,82.8069682 259.328125,82.0882146 C260.289067,81.6272748 261.761709,81.3382151 263.746094,81.2210271 L263.746094,80.3421208 C263.746094,79.3499284 263.486331,78.5901703 262.966797,78.0628239 C262.447263,77.5354776 261.859378,77.2718083 261.203125,77.2718083 C260.031244,77.2718083 259.164065,77.6389921 258.601562,78.3733708 C259.078127,78.3889959 259.402343,78.5159477 259.574219,78.7542302 C259.746095,78.9925126 259.832031,79.2327446 259.832031,79.4749333 C259.832031,79.7952474 259.732423,80.0589167 259.533203,80.2659489 C259.333983,80.4729812 259.066408,80.5764958 258.730469,80.5764958 C258.410155,80.5764958 258.144532,80.4768874 257.933594,80.2776677 C257.722655,80.0784479 257.617188,79.8030601 257.617188,79.4514958 C257.617188,78.6702419 257.9707,78.0218109 258.677734,77.5061833 C259.384769,76.9905557 260.242182,76.7327458 261.25,76.7327458 C262.562507,76.7327458 263.656246,77.1741476 264.53125,78.0569646 C264.804689,78.3304034 265.009765,78.6429003 265.146484,78.9944646 C265.283204,79.3460288 265.359375,79.6370415 265.375,79.8675114 C265.390625,80.0979813 265.398437,80.4397748 265.398438,80.8929021 L265.398438,85.6858708 C265.398437,85.7796213 265.414062,85.90462 265.445312,86.0608708 C265.476563,86.2171216 265.564452,86.3948542 265.708984,86.5940739 C265.853516,86.7932937 266.046874,86.8929021 266.289062,86.8929021 C266.86719,86.8929021 267.152344,86.3811884 267.144531,85.3577458 L267.144531,84.0100896 L267.753906,84.0100896 L267.753906,85.3577458 C267.753906,86.2093126 267.529299,86.8011035 267.080078,87.1331364 C266.630857,87.4651693 266.199221,87.6311833 265.785156,87.6311833 C265.253904,87.6311833 264.820314,87.4358728 264.484375,87.0452458 C264.148436,86.6546189 263.957031,86.193686 263.910156,85.6624333 C263.667968,86.2718114 263.271487,86.7737595 262.720703,87.1682927 C262.169919,87.5628259 261.519535,87.7600896 260.769531,87.7600896 C260.191403,87.7600896 259.630862,87.6878247 259.087891,87.5432927 C258.544919,87.3987607 258.04883,87.1253259 257.599609,86.7229802 C257.150388,86.3206344 256.925781,85.8147801 256.925781,85.2054021 Z M258.777344,85.1819646 C258.777344,85.7757175 258.988279,86.2639939 259.410156,86.6468083 C259.832033,87.0296227 260.339841,87.2210271 260.933594,87.2210271 C261.605472,87.2210271 262.242184,86.961264 262.84375,86.4417302 C263.445316,85.9221963 263.746094,85.1507197 263.746094,84.1272771 L263.746094,81.7249333 C261.972647,81.7874336 260.701176,82.1721954 259.931641,82.8792302 C259.162106,83.586265 258.777344,84.3538354 258.777344,85.1819646 Z M268.375,77.8929021 L268.375,77.3655583 C269.109379,77.3343082 269.720701,77.0589203 270.208984,76.5393864 C270.697268,76.0198526 271.02539,75.4397803 271.193359,74.7991521 C271.361329,74.1585239 271.453125,73.4671245 271.46875,72.7249333 L272.066406,72.7249333 L272.066406,77.1429021 L275.5,77.1429021 L275.5,77.8929021 L272.066406,77.8929021 L272.066406,84.5608708 C272.066406,86.2874419 272.605463,87.1507146 273.683594,87.1507146 C274.144534,87.1507146 274.527342,86.9143888 274.832031,86.4417302 C275.13672,85.9690716 275.289062,85.310875 275.289062,84.4671208 L275.289062,83.1429021 L275.886719,83.1429021 L275.886719,84.5139958 C275.886719,85.3811876 275.687502,86.1389926 275.289062,86.7874333 C274.890623,87.4358741 274.296879,87.7600896 273.507812,87.7600896 C273.218749,87.7600896 272.931642,87.7229806 272.646484,87.6487614 C272.361327,87.5745423 272.033205,87.4417311 271.662109,87.2503239 C271.291014,87.0589167 270.990236,86.7268888 270.759766,86.2542302 C270.529296,85.7815716 270.414062,85.2014993 270.414062,84.5139958 L270.414062,77.8929021 L268.375,77.8929021 Z M279.472656,86.2014958 C278.417963,85.1546156 277.890625,83.8714253 277.890625,82.3518864 C277.890625,80.8323476 278.408198,79.5159545 279.443359,78.4026677 C280.478521,77.2893809 281.738274,76.7327458 283.222656,76.7327458 C284.675789,76.7327458 285.923823,77.2854747 286.966797,78.3909489 C288.009771,79.4964232 288.53125,80.8186756 288.53125,82.3577458 C288.53125,83.8655659 288.005865,85.1428968 286.955078,86.1897771 C285.904292,87.2366573 284.652351,87.7600896 283.199219,87.7600896 C281.777337,87.7600896 280.535162,87.2405635 279.472656,86.2014958 Z M279.882812,82.1585271 C279.882812,83.7132223 280.085935,84.8421173 280.492188,85.5452458 C281.117191,86.6155637 282.027338,87.1507146 283.222656,87.1507146 C283.816409,87.1507146 284.361326,86.9905599 284.857422,86.6702458 C285.353518,86.3499317 285.73828,85.9202485 286.011719,85.3811833 C286.363283,84.6780548 286.539062,83.6038468 286.539062,82.1585271 C286.539062,80.6194569 286.328127,79.510093 285.90625,78.8304021 C285.281247,77.7913344 284.378912,77.2718083 283.199219,77.2718083 C282.683591,77.2718083 282.173831,77.4065726 281.669922,77.6761052 C281.166013,77.9456378 280.76172,78.3460244 280.457031,78.8772771 C280.074217,79.5804056 279.882812,80.6741446 279.882812,82.1585271 Z M289.890625,87.4905583 L289.890625,86.7522771 C290.742192,86.7522771 291.267577,86.6995432 291.466797,86.5940739 C291.666017,86.4886047 291.765625,86.1780609 291.765625,85.6624333 L291.765625,79.2288396 C291.765625,78.6350866 291.66211,78.2639966 291.455078,78.1155583 C291.248046,77.9671201 290.726567,77.8929021 289.890625,77.8929021 L289.890625,77.1429021 L293.230469,76.8850896 L293.230469,79.5218083 C293.457032,78.8343049 293.810544,78.2229829 294.291016,77.6878239 C294.771487,77.152665 295.40234,76.8850896 296.183594,76.8850896 C296.699221,76.8850896 297.123045,77.0296194 297.455078,77.3186833 C297.787111,77.6077473 297.953125,77.9514938 297.953125,78.3499333 C297.953125,78.7014976 297.845704,78.9651668 297.630859,79.1409489 C297.416015,79.3167311 297.179689,79.4046208 296.921875,79.4046208 C296.632811,79.4046208 296.388673,79.3128249 296.189453,79.1292302 C295.990233,78.9456355 295.890625,78.6936849 295.890625,78.3733708 C295.890625,78.1780573 295.935546,78.0042309 296.025391,77.8518864 C296.115235,77.6995419 296.195312,77.5960273 296.265625,77.5413396 C296.335938,77.4866518 296.394531,77.4514959 296.441406,77.4358708 C296.410156,77.4202457 296.324219,77.4124333 296.183594,77.4124333 C295.300777,77.4124333 294.607424,77.851882 294.103516,78.7307927 C293.599607,79.6097033 293.347656,80.6741458 293.347656,81.9241521 L293.347656,85.6155583 C293.347656,86.0764981 293.443358,86.3811826 293.634766,86.5296208 C293.826173,86.6780591 294.33984,86.7522771 295.175781,86.7522771 L295.679688,86.7522771 L295.679688,87.4905583 C295.039059,87.4436831 294.023444,87.4202458 292.632812,87.4202458 C292.437499,87.4202458 292.187502,87.424152 291.882812,87.4319646 C291.578123,87.4397771 291.226564,87.4514957 290.828125,87.4671208 C290.429686,87.4827459 290.117189,87.4905583 289.890625,87.4905583 Z M0.1796875,108.892902 L0.1796875,108.142902 L2.06640625,108.142902 L2.06640625,105.388996 C2.06640625,104.20149 2.45116803,103.267905 3.22070312,102.588215 C3.99023822,101.908524 4.84765152,101.568683 5.79296875,101.568683 C6.41797187,101.568683 6.93359172,101.73665 7.33984375,102.07259 C7.74609578,102.408529 7.94921875,102.803056 7.94921875,103.256183 C7.94921875,103.560872 7.85742279,103.812823 7.67382812,104.012043 C7.49023346,104.211262 7.23047043,104.310871 6.89453125,104.310871 C6.57421715,104.310871 6.32226654,104.209309 6.13867188,104.006183 C5.95507721,103.803057 5.86328125,103.560872 5.86328125,103.279621 C5.86328125,102.763993 6.10156012,102.428059 6.578125,102.271808 C6.33593629,102.162433 6.07422016,102.10384 5.79296875,102.096027 C5.21484086,102.096027 4.70117412,102.392899 4.25195312,102.986652 C3.80273213,103.580405 3.578125,104.373366 3.578125,105.365558 L3.578125,108.142902 L6.390625,108.142902 L6.390625,108.892902 L3.66015625,108.892902 L3.66015625,116.615558 C3.66015625,117.076498 3.75585842,117.381183 3.94726562,117.529621 C4.13867283,117.678059 4.64843336,117.752277 5.4765625,117.752277 L5.98046875,117.752277 L5.98046875,118.490558 C5.33984055,118.443683 4.3242257,118.420246 2.93359375,118.420246 C2.73828027,118.420246 2.49023588,118.424152 2.18945312,118.431965 C1.88867037,118.439777 1.53711139,118.451496 1.13476562,118.467121 C0.732419863,118.482746 0.421876094,118.490558 0.203125,118.490558 L0.203125,117.752277 C1.05469176,117.752277 1.57812402,117.699543 1.7734375,117.594074 C1.96875098,117.488605 2.06640625,117.178061 2.06640625,116.662433 L2.06640625,108.892902 L0.1796875,108.892902 Z M8.9453125,117.201496 C7.89061973,116.154616 7.36328125,114.871425 7.36328125,113.351886 C7.36328125,111.832348 7.8808542,110.515955 8.91601562,109.402668 C9.95117705,108.289381 11.2109301,107.732746 12.6953125,107.732746 C14.1484448,107.732746 15.3964792,108.285475 16.4394531,109.390949 C17.4824271,110.496423 18.0039062,111.818676 18.0039062,113.357746 C18.0039062,114.865566 17.4785209,116.142897 16.4277344,117.189777 C15.3769479,118.236657 14.1250073,118.76009 12.671875,118.76009 C11.2499929,118.76009 10.0078178,118.240564 8.9453125,117.201496 Z M9.35546875,113.158527 C9.35546875,114.713222 9.55859172,115.842117 9.96484375,116.545246 C10.5898469,117.615564 11.499994,118.150715 12.6953125,118.150715 C13.2890655,118.150715 13.8339819,117.99056 14.3300781,117.670246 C14.8261744,117.349932 15.2109361,116.920249 15.484375,116.381183 C15.8359393,115.678055 16.0117188,114.603847 16.0117188,113.158527 C16.0117188,111.619457 15.8007834,110.510093 15.3789062,109.830402 C14.7539031,108.791334 13.8515684,108.271808 12.671875,108.271808 C12.1562474,108.271808 11.6464869,108.406573 11.1425781,108.676105 C10.6386694,108.945638 10.2343765,109.346024 9.9296875,109.877277 C9.54687309,110.580406 9.35546875,111.674145 9.35546875,113.158527 Z M19.3632812,118.490558 L19.3632812,117.752277 C20.214848,117.752277 20.7402334,117.699543 20.9394531,117.594074 C21.1386729,117.488605 21.2382812,117.178061 21.2382812,116.662433 L21.2382812,110.22884 C21.2382812,109.635087 21.1347667,109.263997 20.9277344,109.115558 C20.7207021,108.96712 20.1992229,108.892902 19.3632812,108.892902 L19.3632812,108.142902 L22.703125,107.88509 L22.703125,110.521808 C22.9296886,109.834305 23.2832007,109.222983 23.7636719,108.687824 C24.244143,108.152665 24.8749961,107.88509 25.65625,107.88509 C26.1718776,107.88509 26.5957015,108.029619 26.9277344,108.318683 C27.2597673,108.607747 27.4257812,108.951494 27.4257812,109.349933 C27.4257812,109.701498 27.3183604,109.965167 27.1035156,110.140949 C26.8886708,110.316731 26.652345,110.404621 26.3945312,110.404621 C26.1054673,110.404621 25.8613291,110.312825 25.6621094,110.12923 C25.4628896,109.945636 25.3632812,109.693685 25.3632812,109.373371 C25.3632812,109.178057 25.4082027,109.004231 25.4980469,108.851886 C25.5878911,108.699542 25.6679684,108.596027 25.7382812,108.54134 C25.8085941,108.486652 25.8671873,108.451496 25.9140625,108.435871 C25.8828123,108.420246 25.7968757,108.412433 25.65625,108.412433 C24.7734331,108.412433 24.0800806,108.851882 23.5761719,109.730793 C23.0722631,110.609703 22.8203125,111.674146 22.8203125,112.924152 L22.8203125,116.615558 C22.8203125,117.076498 22.9160147,117.381183 23.1074219,117.529621 C23.2988291,117.678059 23.8124958,117.752277 24.6484375,117.752277 L25.1523438,117.752277 L25.1523438,118.490558 C24.5117155,118.443683 23.4961007,118.420246 22.1054688,118.420246 C21.9101553,118.420246 21.6601578,118.424152 21.3554688,118.431965 C21.0507797,118.439777 20.6992207,118.451496 20.3007812,118.467121 C19.9023418,118.482746 19.5898449,118.490558 19.3632812,118.490558 Z M36.8476562,118.174152 L36.8476562,115.01009 C36.8476562,114.830401 36.8515625,114.709309 36.859375,114.646808 C36.8671875,114.584308 36.894531,114.529621 36.9414062,114.482746 C36.9882815,114.435871 37.0585933,114.412433 37.1523438,114.412433 C37.2617193,114.412433 37.3378904,114.435871 37.3808594,114.482746 C37.4238283,114.529621 37.4609373,114.642901 37.4921875,114.82259 C37.7343762,115.924158 38.1152318,116.765946 38.6347656,117.34798 C39.1542995,117.930014 39.886714,118.221027 40.8320312,118.221027 C41.7304732,118.221027 42.4062477,118.02181 42.859375,117.623371 C43.3125023,117.224931 43.5390625,116.697593 43.5390625,116.04134 C43.5390625,114.869459 42.7070396,114.135091 41.0429688,113.838215 C40.0820264,113.642901 39.4023457,113.480793 39.0039062,113.351886 C38.6054668,113.22298 38.2304705,113.013997 37.8789062,112.724933 C37.1914028,112.162431 36.8476562,111.48275 36.8476562,110.685871 C36.8476562,109.888992 37.1503876,109.197592 37.7558594,108.611652 C38.3613312,108.025712 39.3359308,107.732746 40.6796875,107.732746 C41.5781295,107.732746 42.3320282,107.959306 42.9414062,108.412433 C43.1210946,108.271808 43.257812,108.142903 43.3515625,108.025715 C43.5625011,107.830401 43.7226557,107.732746 43.8320312,107.732746 C43.9570319,107.732746 44.0312499,107.773761 44.0546875,107.855793 C44.0781251,107.937824 44.0898438,108.09212 44.0898438,108.318683 L44.0898438,110.732746 C44.0898438,110.912434 44.0859375,111.033527 44.078125,111.096027 C44.0703125,111.158527 44.042969,111.211261 43.9960938,111.25423 C43.9492185,111.297199 43.8750005,111.318683 43.7734375,111.318683 C43.5937491,111.318683 43.5,111.244465 43.4921875,111.096027 C43.3671869,109.158517 42.4296963,108.189777 40.6796875,108.189777 C39.7343703,108.189777 39.0507834,108.371416 38.6289062,108.734699 C38.2070291,109.097982 37.9960938,109.525712 37.9960938,110.017902 C37.9960938,110.291341 38.0605462,110.531573 38.1894531,110.738605 C38.31836,110.945637 38.466796,111.109698 38.6347656,111.230793 C38.8027352,111.351887 39.0429672,111.469073 39.3554688,111.582355 C39.6679703,111.695637 39.9199209,111.771808 40.1113281,111.810871 C40.3027353,111.849934 40.5820294,111.908527 40.9492188,111.986652 C42.2304752,112.228841 43.1406223,112.611649 43.6796875,113.13509 C44.3515659,113.806968 44.6875,114.568679 44.6875,115.420246 C44.6875,116.365563 44.3671907,117.158524 43.7265625,117.799152 C43.0859343,118.43978 42.1211002,118.76009 40.8320312,118.76009 C39.7929636,118.76009 38.9101599,118.412437 38.1835938,117.717121 C38.0898433,117.810871 38.0078129,117.898761 37.9375,117.980793 C37.8671871,118.062824 37.8183595,118.119464 37.7910156,118.150715 C37.7636717,118.181965 37.7460938,118.207355 37.7382812,118.226886 C37.7304687,118.246418 37.7187501,118.263996 37.703125,118.279621 C37.3828109,118.599935 37.1835941,118.76009 37.1054688,118.76009 C36.9804681,118.76009 36.9062501,118.719074 36.8828125,118.637043 C36.8593749,118.555011 36.8476562,118.400716 36.8476562,118.174152 Z M46.1640625,113.205402 C46.1640625,111.697582 46.6484327,110.408532 47.6171875,109.338215 C48.5859423,108.267897 49.765618,107.732746 51.15625,107.732746 C52.562507,107.732746 53.6308557,108.189772 54.3613281,109.10384 C55.0918005,110.017907 55.4570312,111.131177 55.4570312,112.443683 C55.4570312,112.685872 55.4257816,112.830402 55.3632812,112.877277 C55.3007809,112.924152 55.1328139,112.94759 54.859375,112.94759 L48.15625,112.94759 C48.15625,114.58041 48.3984351,115.779617 48.8828125,116.545246 C49.5546909,117.615564 50.4570256,118.150715 51.5898438,118.150715 C51.7460945,118.150715 51.9179678,118.13509 52.1054688,118.10384 C52.2929697,118.072589 52.5781231,117.988606 52.9609375,117.851886 C53.3437519,117.715167 53.7031233,117.463216 54.0390625,117.096027 C54.3750017,116.728838 54.640624,116.256186 54.8359375,115.678058 C54.8828127,115.451495 54.9843742,115.342121 55.140625,115.349933 C55.3515636,115.349933 55.4570312,115.443682 55.4570312,115.631183 C55.4570312,115.771809 55.3808601,116.000322 55.2285156,116.31673 C55.0761711,116.633138 54.8554702,116.978838 54.5664062,117.35384 C54.2773423,117.728841 53.8535184,118.056963 53.2949219,118.338215 C52.7363253,118.619466 52.1210971,118.76009 51.4492188,118.76009 C50.0429617,118.76009 48.8105522,118.226892 47.7519531,117.16048 C46.6933541,116.094069 46.1640625,114.775722 46.1640625,113.205402 Z M48.1796875,112.443683 L53.875,112.443683 C53.875,112.107744 53.8457034,111.752279 53.7871094,111.377277 C53.7285153,111.002275 53.6152352,110.555014 53.4472656,110.03548 C53.279296,109.515946 53.000002,109.092122 52.609375,108.763996 C52.218748,108.435869 51.7343779,108.271808 51.15625,108.271808 C50.8984362,108.271808 50.6308608,108.326495 50.3535156,108.435871 C50.0761705,108.545246 49.7695329,108.732744 49.4335938,108.998371 C49.0976546,109.263997 48.8125012,109.697587 48.578125,110.299152 C48.3437488,110.900718 48.2109377,111.615554 48.1796875,112.443683 Z M56.8164062,118.490558 L56.8164062,117.752277 C57.667973,117.752277 58.1933584,117.699543 58.3925781,117.594074 C58.5917979,117.488605 58.6914062,117.178061 58.6914062,116.662433 L58.6914062,110.22884 C58.6914062,109.635087 58.5878917,109.263997 58.3808594,109.115558 C58.1738271,108.96712 57.6523479,108.892902 56.8164062,108.892902 L56.8164062,108.142902 L60.15625,107.88509 L60.15625,110.521808 C60.3828136,109.834305 60.7363257,109.222983 61.2167969,108.687824 C61.697268,108.152665 62.3281211,107.88509 63.109375,107.88509 C63.6250026,107.88509 64.0488265,108.029619 64.3808594,108.318683 C64.7128923,108.607747 64.8789062,108.951494 64.8789062,109.349933 C64.8789062,109.701498 64.7714854,109.965167 64.5566406,110.140949 C64.3417958,110.316731 64.10547,110.404621 63.8476562,110.404621 C63.5585923,110.404621 63.3144541,110.312825 63.1152344,110.12923 C62.9160146,109.945636 62.8164062,109.693685 62.8164062,109.373371 C62.8164062,109.178057 62.8613277,109.004231 62.9511719,108.851886 C63.0410161,108.699542 63.1210934,108.596027 63.1914062,108.54134 C63.2617191,108.486652 63.3203123,108.451496 63.3671875,108.435871 C63.3359373,108.420246 63.2500007,108.412433 63.109375,108.412433 C62.2265581,108.412433 61.5332056,108.851882 61.0292969,109.730793 C60.5253881,110.609703 60.2734375,111.674146 60.2734375,112.924152 L60.2734375,116.615558 C60.2734375,117.076498 60.3691397,117.381183 60.5605469,117.529621 C60.7519541,117.678059 61.2656208,117.752277 62.1015625,117.752277 L62.6054688,117.752277 L62.6054688,118.490558 C61.9648405,118.443683 60.9492257,118.420246 59.5585938,118.420246 C59.3632803,118.420246 59.1132828,118.424152 58.8085938,118.431965 C58.5039047,118.439777 58.1523457,118.451496 57.7539062,118.467121 C57.3554668,118.482746 57.0429699,118.490558 56.8164062,118.490558 Z M66.3203125,118.490558 L66.3203125,117.752277 C67.1718793,117.752277 67.6953115,117.699543 67.890625,117.594074 C68.0859385,117.488605 68.1835938,117.178061 68.1835938,116.662433 L68.1835938,110.205402 C68.1835938,109.611649 68.0839854,109.244465 67.8847656,109.10384 C67.6855459,108.963214 67.1953164,108.892902 66.4140625,108.892902 L66.4140625,108.142902 L69.765625,107.88509 L69.765625,116.685871 C69.765625,117.162436 69.8515616,117.459308 70.0234375,117.576496 C70.1953134,117.693684 70.6718711,117.752277 71.453125,117.752277 L71.453125,118.490558 C69.8203043,118.443683 68.9882814,118.420246 68.9570312,118.420246 C68.7382802,118.420246 67.8593827,118.443683 66.3203125,118.490558 Z M67.328125,103.701496 C67.328125,103.381182 67.4511706,103.090169 67.6972656,102.828449 C67.9433606,102.566729 68.2421857,102.435871 68.59375,102.435871 C68.9453143,102.435871 69.2460925,102.55501 69.4960938,102.793293 C69.746095,103.031575 69.8710938,103.33626 69.8710938,103.707355 C69.8710938,104.078451 69.746095,104.383135 69.4960938,104.621418 C69.2460925,104.8597 68.9453143,104.97884 68.59375,104.97884 C68.2265607,104.97884 67.9238293,104.849935 67.6855469,104.592121 C67.4472644,104.334307 67.328125,104.037435 67.328125,103.701496 Z M74.4179688,117.201496 C73.363276,116.154616 72.8359375,114.871425 72.8359375,113.351886 C72.8359375,111.832348 73.3535104,110.515955 74.3886719,109.402668 C75.4238333,108.289381 76.6835863,107.732746 78.1679688,107.732746 C79.621101,107.732746 80.8691354,108.285475 81.9121094,109.390949 C82.9550833,110.496423 83.4765625,111.818676 83.4765625,113.357746 C83.4765625,114.865566 82.9511771,116.142897 81.9003906,117.189777 C80.8496041,118.236657 79.5976635,118.76009 78.1445312,118.76009 C76.7226491,118.76009 75.4804741,118.240564 74.4179688,117.201496 Z M74.828125,113.158527 C74.828125,114.713222 75.031248,115.842117 75.4375,116.545246 C76.0625031,117.615564 76.9726503,118.150715 78.1679688,118.150715 C78.7617217,118.150715 79.3066381,117.99056 79.8027344,117.670246 C80.2988306,117.349932 80.6835924,116.920249 80.9570312,116.381183 C81.3085955,115.678055 81.484375,114.603847 81.484375,113.158527 C81.484375,111.619457 81.2734396,110.510093 80.8515625,109.830402 C80.2265594,108.791334 79.3242246,108.271808 78.1445312,108.271808 C77.6289037,108.271808 77.1191431,108.406573 76.6152344,108.676105 C76.1113256,108.945638 75.7070328,109.346024 75.4023438,109.877277 C75.0195293,110.580406 74.828125,111.674145 74.828125,113.158527 Z M84.9414062,108.892902 L84.9414062,108.142902 L88.46875,107.88509 L88.46875,115.85384 C88.46875,116.236654 88.4843748,116.539385 88.515625,116.762043 C88.5468752,116.9847 88.6269525,117.224932 88.7558594,117.482746 C88.8847663,117.74056 89.0996079,117.928058 89.4003906,118.045246 C89.7011734,118.162434 90.0937476,118.221027 90.578125,118.221027 C91.4453168,118.221027 92.1464817,117.865562 92.6816406,117.154621 C93.2167996,116.44368 93.484375,115.560876 93.484375,114.506183 L93.484375,110.22884 C93.484375,109.635087 93.3789073,109.263997 93.1679688,109.115558 C92.9570302,108.96712 92.4375041,108.892902 91.609375,108.892902 L91.609375,108.142902 L95.1367188,107.88509 L95.1367188,116.404621 C95.1367188,116.998374 95.2402333,117.371417 95.4472656,117.523761 C95.6542979,117.676106 96.1757771,117.752277 97.0117188,117.752277 L97.0117188,118.490558 L93.5546875,118.76009 L93.5546875,116.592121 C92.8828091,118.029628 91.8515695,118.752277 90.4609375,118.76009 C89.757809,118.76009 89.166018,118.670247 88.6855469,118.490558 C88.2050757,118.31087 87.8437512,118.1097 87.6015625,117.887043 C87.3593738,117.664385 87.1738288,117.338217 87.0449219,116.908527 C86.916015,116.478837 86.8437501,116.131185 86.828125,115.865558 C86.8124999,115.599932 86.8046875,115.209311 86.8046875,114.693683 L86.8046875,111.096027 C86.8046875,110.010084 86.7265633,109.371419 86.5703125,109.180011 C86.4140617,108.988604 85.8710984,108.892902 84.9414062,108.892902 Z M98.2773438,118.174152 L98.2773438,115.01009 C98.2773438,114.830401 98.28125,114.709309 98.2890625,114.646808 C98.296875,114.584308 98.3242185,114.529621 98.3710938,114.482746 C98.417969,114.435871 98.4882808,114.412433 98.5820312,114.412433 C98.6914068,114.412433 98.7675779,114.435871 98.8105469,114.482746 C98.8535158,114.529621 98.8906248,114.642901 98.921875,114.82259 C99.1640637,115.924158 99.5449193,116.765946 100.064453,117.34798 C100.583987,117.930014 101.316402,118.221027 102.261719,118.221027 C103.160161,118.221027 103.835935,118.02181 104.289062,117.623371 C104.74219,117.224931 104.96875,116.697593 104.96875,116.04134 C104.96875,114.869459 104.136727,114.135091 102.472656,113.838215 C101.511714,113.642901 100.832033,113.480793 100.433594,113.351886 C100.035154,113.22298 99.660158,113.013997 99.3085938,112.724933 C98.6210903,112.162431 98.2773438,111.48275 98.2773438,110.685871 C98.2773438,109.888992 98.5800751,109.197592 99.1855469,108.611652 C99.7910187,108.025712 100.765618,107.732746 102.109375,107.732746 C103.007817,107.732746 103.761716,107.959306 104.371094,108.412433 C104.550782,108.271808 104.6875,108.142903 104.78125,108.025715 C104.992189,107.830401 105.152343,107.732746 105.261719,107.732746 C105.386719,107.732746 105.460937,107.773761 105.484375,107.855793 C105.507813,107.937824 105.519531,108.09212 105.519531,108.318683 L105.519531,110.732746 C105.519531,110.912434 105.515625,111.033527 105.507812,111.096027 C105.5,111.158527 105.472656,111.211261 105.425781,111.25423 C105.378906,111.297199 105.304688,111.318683 105.203125,111.318683 C105.023437,111.318683 104.929688,111.244465 104.921875,111.096027 C104.796874,109.158517 103.859384,108.189777 102.109375,108.189777 C101.164058,108.189777 100.480471,108.371416 100.058594,108.734699 C99.6367166,109.097982 99.4257812,109.525712 99.4257812,110.017902 C99.4257812,110.291341 99.4902337,110.531573 99.6191406,110.738605 C99.7480475,110.945637 99.8964835,111.109698 100.064453,111.230793 C100.232423,111.351887 100.472655,111.469073 100.785156,111.582355 C101.097658,111.695637 101.349608,111.771808 101.541016,111.810871 C101.732423,111.849934 102.011717,111.908527 102.378906,111.986652 C103.660163,112.228841 104.57031,112.611649 105.109375,113.13509 C105.781253,113.806968 106.117188,114.568679 106.117188,115.420246 C106.117188,116.365563 105.796878,117.158524 105.15625,117.799152 C104.515622,118.43978 103.550788,118.76009 102.261719,118.76009 C101.222651,118.76009 100.339847,118.412437 99.6132812,117.717121 C99.5195308,117.810871 99.4375004,117.898761 99.3671875,117.980793 C99.2968746,118.062824 99.248047,118.119464 99.2207031,118.150715 C99.1933592,118.181965 99.1757813,118.207355 99.1679688,118.226886 C99.1601562,118.246418 99.1484376,118.263996 99.1328125,118.279621 C98.8124984,118.599935 98.6132816,118.76009 98.5351562,118.76009 C98.4101556,118.76009 98.3359376,118.719074 98.3125,118.637043 C98.2890624,118.555011 98.2773438,118.400716 98.2773438,118.174152 Z M115.574219,122.404621 C116.425786,122.404621 116.951171,122.351887 117.150391,122.246418 C117.34961,122.140948 117.449219,121.834311 117.449219,121.326496 L117.449219,110.088215 C117.449219,109.556962 117.34961,109.224934 117.150391,109.092121 C116.951171,108.959308 116.425786,108.892902 115.574219,108.892902 L115.574219,108.142902 L119.03125,107.88509 L119.03125,109.467121 C119.992192,108.412428 121.113275,107.88509 122.394531,107.88509 C123.753913,107.88509 124.929683,108.412428 125.921875,109.467121 C126.914067,110.521814 127.410156,111.803051 127.410156,113.310871 C127.410156,114.834316 126.882818,116.123366 125.828125,117.178058 C124.773432,118.232751 123.515632,118.76009 122.054688,118.76009 C121.257809,118.76009 120.5918,118.555013 120.056641,118.144855 C119.521482,117.734697 119.203126,117.377279 119.101562,117.07259 L119.101562,121.326496 C119.101562,121.842123 119.203124,122.150714 119.40625,122.252277 C119.609376,122.35384 120.132808,122.404621 120.976562,122.404621 L120.976562,123.142902 C119.296867,123.096027 118.394532,123.07259 118.269531,123.07259 C118.11328,123.07259 117.214852,123.096027 115.574219,123.142902 L115.574219,122.404621 Z M119.101562,115.76009 C119.101562,116.002278 119.11914,116.166339 119.154297,116.252277 C119.189453,116.338215 119.285155,116.510088 119.441406,116.767902 C120.074222,117.736657 120.906245,118.221027 121.9375,118.221027 L121.960938,118.221027 C122.875005,118.221027 123.679684,117.754235 124.375,116.820636 C125.070316,115.887038 125.417969,114.717128 125.417969,113.310871 C125.417969,111.967114 125.101566,110.826501 124.46875,109.888996 C123.835934,108.951491 123.082036,108.482746 122.207031,108.482746 C121.582028,108.482746 120.996096,108.650713 120.449219,108.986652 C119.902341,109.322591 119.453127,109.795243 119.101562,110.404621 L119.101562,115.76009 Z M129.554688,113.205402 C129.554688,111.697582 130.039058,110.408532 131.007812,109.338215 C131.976567,108.267897 133.156243,107.732746 134.546875,107.732746 C135.953132,107.732746 137.021481,108.189772 137.751953,109.10384 C138.482426,110.017907 138.847656,111.131177 138.847656,112.443683 C138.847656,112.685872 138.816407,112.830402 138.753906,112.877277 C138.691406,112.924152 138.523439,112.94759 138.25,112.94759 L131.546875,112.94759 C131.546875,114.58041 131.78906,115.779617 132.273438,116.545246 C132.945316,117.615564 133.847651,118.150715 134.980469,118.150715 C135.13672,118.150715 135.308593,118.13509 135.496094,118.10384 C135.683595,118.072589 135.968748,117.988606 136.351562,117.851886 C136.734377,117.715167 137.093748,117.463216 137.429688,117.096027 C137.765627,116.728838 138.031249,116.256186 138.226562,115.678058 C138.273438,115.451495 138.374999,115.342121 138.53125,115.349933 C138.742189,115.349933 138.847656,115.443682 138.847656,115.631183 C138.847656,115.771809 138.771485,116.000322 138.619141,116.31673 C138.466796,116.633138 138.246095,116.978838 137.957031,117.35384 C137.667967,117.728841 137.244143,118.056963 136.685547,118.338215 C136.12695,118.619466 135.511722,118.76009 134.839844,118.76009 C133.433587,118.76009 132.201177,118.226892 131.142578,117.16048 C130.083979,116.094069 129.554688,114.775722 129.554688,113.205402 Z M131.570312,112.443683 L137.265625,112.443683 C137.265625,112.107744 137.236328,111.752279 137.177734,111.377277 C137.11914,111.002275 137.00586,110.555014 136.837891,110.03548 C136.669921,109.515946 136.390627,109.092122 136,108.763996 C135.609373,108.435869 135.125003,108.271808 134.546875,108.271808 C134.289061,108.271808 134.021486,108.326495 133.744141,108.435871 C133.466795,108.545246 133.160158,108.732744 132.824219,108.998371 C132.48828,109.263997 132.203126,109.697587 131.96875,110.299152 C131.734374,110.900718 131.601563,111.615554 131.570312,112.443683 Z M141.789062,117.201496 C140.73437,116.154616 140.207031,114.871425 140.207031,113.351886 C140.207031,111.832348 140.724604,110.515955 141.759766,109.402668 C142.794927,108.289381 144.05468,107.732746 145.539062,107.732746 C146.992195,107.732746 148.240229,108.285475 149.283203,109.390949 C150.326177,110.496423 150.847656,111.818676 150.847656,113.357746 C150.847656,114.865566 150.322271,116.142897 149.271484,117.189777 C148.220698,118.236657 146.968757,118.76009 145.515625,118.76009 C144.093743,118.76009 142.851568,118.240564 141.789062,117.201496 Z M142.199219,113.158527 C142.199219,114.713222 142.402342,115.842117 142.808594,116.545246 C143.433597,117.615564 144.343744,118.150715 145.539062,118.150715 C146.132815,118.150715 146.677732,117.99056 147.173828,117.670246 C147.669924,117.349932 148.054686,116.920249 148.328125,116.381183 C148.679689,115.678055 148.855469,114.603847 148.855469,113.158527 C148.855469,111.619457 148.644533,110.510093 148.222656,109.830402 C147.597653,108.791334 146.695318,108.271808 145.515625,108.271808 C144.999997,108.271808 144.490237,108.406573 143.986328,108.676105 C143.482419,108.945638 143.078127,109.346024 142.773438,109.877277 C142.390623,110.580406 142.199219,111.674145 142.199219,113.158527 Z M152.207031,122.404621 C153.058598,122.404621 153.583983,122.351887 153.783203,122.246418 C153.982423,122.140948 154.082031,121.834311 154.082031,121.326496 L154.082031,110.088215 C154.082031,109.556962 153.982423,109.224934 153.783203,109.092121 C153.583983,108.959308 153.058598,108.892902 152.207031,108.892902 L152.207031,108.142902 L155.664062,107.88509 L155.664062,109.467121 C156.625005,108.412428 157.746087,107.88509 159.027344,107.88509 C160.386726,107.88509 161.562495,108.412428 162.554688,109.467121 C163.54688,110.521814 164.042969,111.803051 164.042969,113.310871 C164.042969,114.834316 163.51563,116.123366 162.460938,117.178058 C161.406245,118.232751 160.148445,118.76009 158.6875,118.76009 C157.890621,118.76009 157.224612,118.555013 156.689453,118.144855 C156.154294,117.734697 155.835938,117.377279 155.734375,117.07259 L155.734375,121.326496 C155.734375,121.842123 155.835936,122.150714 156.039062,122.252277 C156.242189,122.35384 156.765621,122.404621 157.609375,122.404621 L157.609375,123.142902 C155.929679,123.096027 155.027344,123.07259 154.902344,123.07259 C154.746093,123.07259 153.847664,123.096027 152.207031,123.142902 L152.207031,122.404621 Z M155.734375,115.76009 C155.734375,116.002278 155.751953,116.166339 155.787109,116.252277 C155.822266,116.338215 155.917968,116.510088 156.074219,116.767902 C156.707034,117.736657 157.539057,118.221027 158.570312,118.221027 L158.59375,118.221027 C159.507817,118.221027 160.312497,117.754235 161.007812,116.820636 C161.703128,115.887038 162.050781,114.717128 162.050781,113.310871 C162.050781,111.967114 161.734378,110.826501 161.101562,109.888996 C160.468747,108.951491 159.714848,108.482746 158.839844,108.482746 C158.214841,108.482746 157.628909,108.650713 157.082031,108.986652 C156.535154,109.322591 156.085939,109.795243 155.734375,110.404621 L155.734375,115.76009 Z M165.648438,118.490558 L165.648438,117.752277 C166.500004,117.752277 167.023437,117.699543 167.21875,117.594074 C167.414063,117.488605 167.511719,117.178061 167.511719,116.662433 L167.511719,104.181965 C167.511719,103.588212 167.408204,103.217122 167.201172,103.068683 C166.99414,102.920245 166.476567,102.846027 165.648438,102.846027 L165.648438,102.096027 L169.09375,101.838215 L169.09375,116.662433 C169.09375,117.178061 169.195311,117.488605 169.398438,117.594074 C169.601564,117.699543 170.124996,117.752277 170.96875,117.752277 L170.96875,118.490558 C170.773437,118.490558 170.472658,118.482746 170.066406,118.467121 C169.660154,118.451496 169.308595,118.439777 169.011719,118.431965 C168.714842,118.424152 168.48047,118.420246 168.308594,118.420246 C168.121093,118.420246 167.234383,118.443683 165.648438,118.490558 Z M172.164062,113.205402 C172.164062,111.697582 172.648433,110.408532 173.617188,109.338215 C174.585942,108.267897 175.765618,107.732746 177.15625,107.732746 C178.562507,107.732746 179.630856,108.189772 180.361328,109.10384 C181.091801,110.017907 181.457031,111.131177 181.457031,112.443683 C181.457031,112.685872 181.425782,112.830402 181.363281,112.877277 C181.300781,112.924152 181.132814,112.94759 180.859375,112.94759 L174.15625,112.94759 C174.15625,114.58041 174.398435,115.779617 174.882812,116.545246 C175.554691,117.615564 176.457026,118.150715 177.589844,118.150715 C177.746095,118.150715 177.917968,118.13509 178.105469,118.10384 C178.29297,118.072589 178.578123,117.988606 178.960938,117.851886 C179.343752,117.715167 179.703123,117.463216 180.039062,117.096027 C180.375002,116.728838 180.640624,116.256186 180.835938,115.678058 C180.882813,115.451495 180.984374,115.342121 181.140625,115.349933 C181.351564,115.349933 181.457031,115.443682 181.457031,115.631183 C181.457031,115.771809 181.38086,116.000322 181.228516,116.31673 C181.076171,116.633138 180.85547,116.978838 180.566406,117.35384 C180.277342,117.728841 179.853518,118.056963 179.294922,118.338215 C178.736325,118.619466 178.121097,118.76009 177.449219,118.76009 C176.042962,118.76009 174.810552,118.226892 173.751953,117.16048 C172.693354,116.094069 172.164062,114.775722 172.164062,113.205402 Z M174.179688,112.443683 L179.875,112.443683 C179.875,112.107744 179.845703,111.752279 179.787109,111.377277 C179.728515,111.002275 179.615235,110.555014 179.447266,110.03548 C179.279296,109.515946 179.000002,109.092122 178.609375,108.763996 C178.218748,108.435869 177.734378,108.271808 177.15625,108.271808 C176.898436,108.271808 176.630861,108.326495 176.353516,108.435871 C176.07617,108.545246 175.769533,108.732744 175.433594,108.998371 C175.097655,109.263997 174.812501,109.697587 174.578125,110.299152 C174.343749,110.900718 174.210938,111.615554 174.179688,112.443683 Z" id="The-fun-static-site"></path>
        </g>
    </g>
</svg>