<?xml version="1.0" encoding="UTF-8"?>
<svg width="114px" height="33px" viewBox="0 0 114 33" version="1.1" xmlns="http://www.w3.org/2000/svg" xmlns:xlink="http://www.w3.org/1999/xlink">
    <!-- Generator: Sketch 51.3 (57544) - http://www.bohemiancoding.com/sketch -->
    <title>plugins</title>
    <desc>Created with Sketch.</desc>
    <defs></defs>
    <g id="Page-1" stroke="none" stroke-width="1" fill="none" fill-rule="evenodd">
        <path d="M-0.029296875,24.9785156 L-0.029296875,23.8710938 L0.83203125,23.8710938 C2.132819,23.8710938 2.93261569,23.7626964 3.23144531,23.5458984 C3.53027493,23.3291005 3.6796875,22.8691441 3.6796875,22.1660156 L3.6796875,3.19921875 C3.6796875,2.50780904 3.52734527,2.05371202 3.22265625,1.83691406 C2.91796723,1.6201161 2.1211002,1.51171875 0.83203125,1.51171875 L-0.029296875,1.51171875 L-0.029296875,0.38671875 L12.6796875,0.38671875 C15.1054809,0.38671875 17.126945,1.05468082 18.7441406,2.390625 C20.3613362,3.72656918 21.1699219,5.29100666 21.1699219,7.08398438 C21.1699219,8.86524328 20.3466879,10.3974545 18.7001953,11.6806641 C17.0537027,12.9638736 15.1406359,13.6054687 12.9609375,13.6054688 L6.87890625,13.6054688 L6.87890625,22.1660156 C6.87890625,22.8574253 7.02831882,23.314452 7.32714844,23.5371094 C7.62597806,23.7597667 8.42577475,23.8710938 9.7265625,23.8710938 L10.5878906,23.8710938 L10.5878906,24.9785156 C9.74413641,24.9082028 7.96876354,24.8730469 5.26171875,24.8730469 C2.57811158,24.8730469 0.814457344,24.9082028 -0.029296875,24.9785156 Z M6.7734375,12.6738281 L11.7304688,12.6738281 C12.8085991,12.6738281 13.7402304,12.5214859 14.5253906,12.2167969 C15.3105508,11.9121079 15.8818342,11.5751972 16.2392578,11.2060547 C16.5966815,10.8369122 16.8779287,10.350589 17.0830078,9.74707031 C17.288087,9.14355167 17.4023436,8.67480636 17.4257812,8.34082031 C17.4492189,8.00683427 17.4609375,7.58789314 17.4609375,7.08398438 C17.4609375,6.55663799 17.4492189,6.12597823 17.4257812,5.79199219 C17.4023436,5.45800614 17.288087,4.98926083 17.0830078,4.38574219 C16.8779287,3.78222354 16.5966815,3.29590028 16.2392578,2.92675781 C15.8818342,2.55761534 15.3134805,2.22949362 14.5341797,1.94238281 C13.7548789,1.655272 12.8203179,1.51171875 11.7304688,1.51171875 L8.53125,1.51171875 C7.7109334,1.51171875 7.2128915,1.59374918 7.03710938,1.7578125 C6.86132725,1.92187582 6.7734375,2.32030934 6.7734375,2.953125 L6.7734375,12.6738281 Z M24.3691406,24.9785156 L24.3691406,23.8710938 C25.6464908,23.8710938 26.4316392,23.791993 26.7246094,23.6337891 C27.0175796,23.4755851 27.1640625,23.0097695 27.1640625,22.2363281 L27.1640625,3.515625 C27.1640625,2.62499555 27.0087906,2.06836049 26.6982422,1.84570313 C26.3876938,1.62304576 25.6113343,1.51171875 24.3691406,1.51171875 L24.3691406,0.38671875 L29.5371094,0 L29.5371094,22.2363281 C29.5371094,23.0097695 29.6894516,23.4755851 29.9941406,23.6337891 C30.2988296,23.791993 31.083978,23.8710938 32.3496094,23.8710938 L32.3496094,24.9785156 C32.0566392,24.9785156 31.6054718,24.966797 30.9960938,24.9433594 C30.3867157,24.9199218 29.8593772,24.9023438 29.4140625,24.890625 C28.9687478,24.8789062 28.6171888,24.8730469 28.359375,24.8730469 C28.0781236,24.8730469 26.7480588,24.9082028 24.3691406,24.9785156 Z M34.3007812,10.5820312 L34.3007812,9.45703125 L39.5917969,9.0703125 L39.5917969,21.0234375 C39.5917969,21.5976591 39.6152341,22.0517561 39.6621094,22.3857422 C39.7089846,22.7197282 39.8291006,23.0800762 40.0224609,23.4667969 C40.2158213,23.8535176 40.5380837,24.1347647 40.9892578,24.3105469 C41.4404319,24.486329 42.0292932,24.5742188 42.7558594,24.5742188 C44.0566471,24.5742188 45.1083944,24.041021 45.9111328,22.9746094 C46.7138712,21.9081978 47.1152344,20.5839923 47.1152344,19.0019531 L47.1152344,12.5859375 C47.1152344,11.695308 46.9570328,11.138673 46.640625,10.9160156 C46.3242172,10.6933583 45.5449281,10.5820312 44.3027344,10.5820312 L44.3027344,9.45703125 L49.59375,9.0703125 L49.59375,21.8496094 C49.59375,22.7402388 49.7490219,23.2998035 50.0595703,23.5283203 C50.3701187,23.7568371 51.1523375,23.8710938 52.40625,23.8710938 L52.40625,24.9785156 L47.2207031,25.3828125 L47.2207031,22.1308594 C46.2128856,24.2871202 44.6660261,25.3710937 42.5800781,25.3828125 C41.5253854,25.3828125 40.6376989,25.2480482 39.9169922,24.9785156 C39.1962855,24.708983 38.6542987,24.4072282 38.2910156,24.0732422 C37.9277326,23.7392561 37.649415,23.2500032 37.4560547,22.6054688 C37.2626943,21.9609343 37.154297,21.4394551 37.1308594,21.0410156 C37.1074218,20.6425761 37.0957031,20.0566445 37.0957031,19.2832031 L37.0957031,13.8867188 C37.0957031,12.2578044 36.9785168,11.2998061 36.7441406,11.0126953 C36.5097645,10.7255845 35.6953195,10.5820312 34.3007812,10.5820312 Z M54.1113281,27.8261719 C54.1113281,27.0527305 54.4072236,26.3320346 54.9990234,25.6640625 C55.5908233,24.9960904 56.4023386,24.5156265 57.4335938,24.2226562 C56.378901,23.5546842 55.8515625,22.4882886 55.8515625,21.0234375 C55.8515625,19.8984319 56.2206994,18.9023481 56.9589844,18.0351562 C55.8339787,17.0976516 55.2714844,15.8613358 55.2714844,14.3261719 C55.2714844,12.908196 55.8339787,11.6777396 56.9589844,10.6347656 C58.08399,9.59179166 59.4667887,9.0703125 61.1074219,9.0703125 C62.5488353,9.0703125 63.820307,9.50390191 64.921875,10.3710938 C66.0703182,9.24608812 67.3417899,8.67773443 68.7363281,8.66601562 C69.357425,8.66601562 69.8173813,8.85937307 70.1162109,9.24609375 C70.4150406,9.63281443 70.5644531,10.0312479 70.5644531,10.4414062 C70.5644531,10.8046893 70.4501965,11.0742179 70.2216797,11.25 C69.9931629,11.4257821 69.7617199,11.5136719 69.5273438,11.5136719 C69.2343735,11.5136719 68.9853526,11.4169932 68.7802734,11.2236328 C68.5751943,11.0302725 68.4726562,10.7812515 68.4726562,10.4765625 C68.4726562,9.97265373 68.6660137,9.64453201 69.0527344,9.4921875 C68.9824215,9.46874988 68.8652352,9.45703125 68.7011719,9.45703125 C67.529291,9.45703125 66.4453175,9.92577656 65.4492188,10.8632812 C66.4335987,11.7773483 66.9257812,12.9433523 66.9257812,14.3613281 C66.9257812,15.779304 66.3632869,17.0097604 65.2382812,18.0527344 C64.1132756,19.0957083 62.7363363,19.6171875 61.1074219,19.6171875 C59.7597589,19.6171875 58.5703177,19.2421912 57.5390625,18.4921875 C57.1289042,18.9726587 56.9238281,19.5410123 56.9238281,20.1972656 C56.9238281,20.7949249 57.1054669,21.3281227 57.46875,21.796875 C57.8320331,22.2656273 58.2890597,22.5351559 58.8398438,22.6054688 C59.0039071,22.6289064 59.9003825,22.640625 61.5292969,22.640625 C62.4902392,22.640625 63.2343724,22.6523436 63.7617188,22.6757812 C64.2890651,22.6992189 64.9306603,22.7900383 65.6865234,22.9482422 C66.4423866,23.1064461 67.1191376,23.3378891 67.7167969,23.6425781 C69.2753984,24.50977 70.0605468,25.88085 70.0722656,27.7558594 C70.0722656,29.12696 69.2841876,30.2431598 67.7080078,31.1044922 C66.1318281,31.9658246 64.2539171,32.3964844 62.0742188,32.3964844 C59.8710827,32.3964844 57.9931718,31.9599653 56.4404297,31.0869141 C54.8876875,30.2138628 54.1113281,29.1269596 54.1113281,27.8261719 Z M55.9921875,27.8261719 C55.9921875,28.8105518 56.5722598,29.6806603 57.7324219,30.4365234 C58.8925839,31.1923866 60.3515537,31.5703125 62.109375,31.5703125 C63.8320399,31.5703125 65.2763614,31.1982459 66.4423828,30.4541016 C67.6084043,29.7099572 68.1914062,28.8339894 68.1914062,27.8261719 C68.1914062,27.1113246 67.9863302,26.5253929 67.5761719,26.0683594 C67.1660136,25.6113258 66.5419964,25.2919931 65.7041016,25.1103516 C64.8662067,24.92871 64.1542998,24.8203127 63.5683594,24.7851562 C62.9824189,24.7499998 62.150396,24.7324219 61.0722656,24.7324219 L58.9453125,24.7324219 C58.1249959,24.7792971 57.4277372,25.1015595 56.8535156,25.6992188 C56.279294,26.296878 55.9921875,27.0058553 55.9921875,27.8261719 Z M57.9609375,14.3613281 C57.9609375,17.3144679 59.0097551,18.7910156 61.1074219,18.7910156 C62.1621146,18.7910156 63.0117155,18.3105517 63.65625,17.3496094 C64.0429707,16.7050749 64.2363281,15.6972725 64.2363281,14.3261719 C64.2363281,11.3730321 63.1933698,9.89648438 61.1074219,9.89648438 C60.0527291,9.89648438 59.1972689,10.3769483 58.5410156,11.3378906 C58.1542949,11.9824251 57.9609375,12.9902275 57.9609375,14.3613281 Z M72.3046875,24.9785156 L72.3046875,23.8710938 C73.5820376,23.8710938 74.367186,23.791993 74.6601562,23.6337891 C74.9531265,23.4755851 75.0996094,23.0097695 75.0996094,22.2363281 L75.0996094,12.5507812 C75.0996094,11.6601518 74.9501968,11.1093761 74.6513672,10.8984375 C74.3525376,10.6874989 73.6171934,10.5820312 72.4453125,10.5820312 L72.4453125,9.45703125 L77.4726562,9.0703125 L77.4726562,22.2714844 C77.4726562,22.9863317 77.6015612,23.4316397 77.859375,23.6074219 C78.1171888,23.783204 78.8320254,23.8710938 80.0039062,23.8710938 L80.0039062,24.9785156 C77.5546753,24.9082028 76.3066409,24.8730469 76.2597656,24.8730469 C75.931639,24.8730469 74.6132928,24.9082028 72.3046875,24.9785156 Z M73.8164062,2.79492188 C73.8164062,2.31445072 74.0009747,1.87793165 74.3701172,1.48535156 C74.7392597,1.09277147 75.1874974,0.896484375 75.7148438,0.896484375 C76.2421901,0.896484375 76.6933575,1.07519353 77.0683594,1.43261719 C77.4433612,1.79004085 77.6308594,2.24706753 77.6308594,2.80371094 C77.6308594,3.36035435 77.4433612,3.81738103 77.0683594,4.17480469 C76.6933575,4.53222835 76.2421901,4.7109375 75.7148438,4.7109375 C75.1640597,4.7109375 74.7099627,4.51758006 74.3525391,4.13085938 C73.9951154,3.74413869 73.8164062,3.29883064 73.8164062,2.79492188 Z M82.2363281,24.9785156 L82.2363281,23.8710938 C83.5136783,23.8710938 84.2988267,23.791993 84.5917969,23.6337891 C84.8847671,23.4755851 85.03125,23.0097695 85.03125,22.2363281 L85.03125,12.5859375 C85.03125,11.695308 84.8759781,11.138673 84.5654297,10.9160156 C84.2548813,10.6933583 83.4785218,10.5820312 82.2363281,10.5820312 L82.2363281,9.45703125 L87.2988281,9.0703125 L87.2988281,12.8496094 C88.4238338,10.3300655 90.1992066,9.0703125 92.625,9.0703125 C94.4296965,9.0703125 95.6894496,9.51562055 96.4042969,10.40625 C96.9316433,11.0039092 97.250976,11.6367154 97.3623047,12.3046875 C97.4736334,12.9726596 97.5292969,14.1738195 97.5292969,15.9082031 L97.5292969,22.78125 C97.5527345,23.2851588 97.7578106,23.5927729 98.1445312,23.7041016 C98.5312519,23.8154302 99.2636665,23.8710938 100.341797,23.8710938 L100.341797,24.9785156 C97.8925659,24.9082028 96.5449231,24.8730469 96.2988281,24.8730469 C96.1113272,24.8730469 94.7578251,24.9082028 92.2382812,24.9785156 L92.2382812,23.8710938 C93.5156314,23.8710938 94.3037094,23.791993 94.6025391,23.6337891 C94.9013687,23.4755851 95.0507812,23.0097695 95.0507812,22.2363281 L95.0507812,13.8515625 C95.0507812,12.6328064 94.8632831,11.6630895 94.4882812,10.9423828 C94.1132794,10.2216761 93.4101614,9.86132812 92.3789062,9.86132812 C91.1367125,9.86132812 90.0175831,10.3828073 89.0214844,11.4257812 C88.0253856,12.4687552 87.5273438,13.8691318 87.5273438,15.6269531 L87.5273438,22.2363281 C87.5273438,23.0097695 87.6767563,23.4755851 87.9755859,23.6337891 C88.2744156,23.791993 89.0566343,23.8710938 90.3222656,23.8710938 L90.3222656,24.9785156 C87.8730346,24.9082028 86.5312512,24.8730469 86.296875,24.8730469 C86.1093741,24.8730469 84.755872,24.9082028 82.2363281,24.9785156 Z M102.240234,24.5039062 L102.240234,19.7578125 C102.240234,19.4882799 102.246094,19.3066411 102.257812,19.2128906 C102.269531,19.1191402 102.310547,19.0371097 102.380859,18.9667969 C102.451172,18.896484 102.55664,18.8613281 102.697266,18.8613281 C102.861329,18.8613281 102.975586,18.896484 103.040039,18.9667969 C103.104493,19.0371097 103.160156,19.2070299 103.207031,19.4765625 C103.570314,21.1289145 104.141598,22.3915972 104.920898,23.2646484 C105.700199,24.1376997 106.798821,24.5742188 108.216797,24.5742188 C109.56446,24.5742188 110.578122,24.2753936 111.257812,23.6777344 C111.937503,23.0800751 112.277344,22.2890674 112.277344,21.3046875 C112.277344,19.5468662 111.029309,18.4453147 108.533203,18 C107.09179,17.7070298 106.072269,17.4638682 105.474609,17.2705078 C104.87695,17.0771475 104.314456,16.763674 103.787109,16.3300781 C102.755854,15.4863239 102.240234,14.4668029 102.240234,13.2714844 C102.240234,12.0761659 102.694331,11.0390669 103.602539,10.1601562 C104.510747,9.28124561 105.972646,8.84179687 107.988281,8.84179688 C109.335944,8.84179687 110.466792,9.18163723 111.380859,9.86132812 C111.650392,9.65038957 111.855468,9.45703213 111.996094,9.28125 C112.312502,8.98827979 112.552734,8.84179687 112.716797,8.84179688 C112.904298,8.84179687 113.015625,8.9033197 113.050781,9.02636719 C113.085938,9.14941468 113.103516,9.38085768 113.103516,9.72070312 L113.103516,13.3417969 C113.103516,13.6113295 113.097656,13.7929683 113.085938,13.8867188 C113.074219,13.9804692 113.033203,14.05957 112.962891,14.1240234 C112.892578,14.1884769 112.781251,14.2207031 112.628906,14.2207031 C112.359374,14.2207031 112.21875,14.1093761 112.207031,13.8867188 C112.01953,10.9804542 110.613294,9.52734375 107.988281,9.52734375 C106.570305,9.52734375 105.544925,9.79980196 104.912109,10.3447266 C104.279294,10.8896512 103.962891,11.5312463 103.962891,12.2695312 C103.962891,12.6796896 104.059569,13.0400375 104.25293,13.3505859 C104.44629,13.6611344 104.668944,13.9072257 104.920898,14.0888672 C105.172853,14.2705087 105.533201,14.4462882 106.001953,14.6162109 C106.470705,14.7861337 106.848631,14.9003903 107.135742,14.9589844 C107.422853,15.0175784 107.841794,15.1054682 108.392578,15.2226562 C110.314463,15.5859393 111.679683,16.1601523 112.488281,16.9453125 C113.496099,17.95313 114,19.0956967 114,20.3730469 C114,21.7910227 113.519536,22.9804639 112.558594,23.9414062 C111.597651,24.9023486 110.1504,25.3828125 108.216797,25.3828125 C106.658195,25.3828125 105.33399,24.8613333 104.244141,23.8183594 C104.103515,23.9589851 103.980469,24.0908197 103.875,24.2138672 C103.769531,24.3369147 103.696289,24.4218748 103.655273,24.46875 C103.614258,24.5156252 103.587891,24.5537108 103.576172,24.5830078 C103.564453,24.6123048 103.546875,24.6386718 103.523438,24.6621094 C103.042966,25.1425805 102.744141,25.3828125 102.626953,25.3828125 C102.439452,25.3828125 102.328125,25.3212897 102.292969,25.1982422 C102.257812,25.0751947 102.240234,24.8437517 102.240234,24.5039062 Z" id="Plugins" fill="#000000"></path>
    </g>
</svg>