<?xml version="1.0" encoding="UTF-8"?>
<svg width="489px" height="22px" viewBox="0 0 489 22" version="1.1" xmlns="http://www.w3.org/2000/svg" xmlns:xlink="http://www.w3.org/1999/xlink">
    <!-- Generator: Sketch 51.3 (57544) - http://www.bohemiancoding.com/sketch -->
    <title>tagline</title>
    <desc>Created with Sketch.</desc>
    <defs></defs>
    <g id="Page-1" stroke="none" stroke-width="1" fill="none" fill-rule="evenodd">
        <path d="M0,6.203125 L0.45703125,0.8125 L15.1171875,0.8125 L15.5742188,6.203125 L14.9765625,6.203125 C14.9140622,5.48437141 14.8535159,4.91797082 14.7949219,4.50390625 C14.7363278,4.08984168 14.6386726,3.68554885 14.5019531,3.29101562 C14.3652337,2.8964824 14.2128915,2.60351658 14.0449219,2.41210938 C13.8769523,2.22070217 13.6328141,2.04882889 13.3125,1.89648438 C12.9921859,1.74413986 12.6250021,1.6484377 12.2109375,1.609375 C11.7968729,1.5703123 11.2773469,1.55078125 10.6523438,1.55078125 C9.91796508,1.55078125 9.4609384,1.56640609 9.28125,1.59765625 C9.08593652,1.64453148 8.96484398,1.73632744 8.91796875,1.87304688 C8.87109352,2.00976631 8.84765625,2.2226548 8.84765625,2.51171875 L8.84765625,15.15625 C8.84765625,15.4765641 8.88085904,15.7011712 8.94726562,15.8300781 C9.01367221,15.958985 9.23046691,16.0722651 9.59765625,16.1699219 C9.96484559,16.2675786 10.5546834,16.3164062 11.3671875,16.3164062 L12.328125,16.3164062 L12.328125,17.0546875 C11.6718717,17.0078123 10.1523557,16.984375 7.76953125,16.984375 C5.40233191,16.984375 3.89062828,17.0078123 3.234375,17.0546875 L3.234375,16.3164062 L4.1953125,16.3164062 C5.00781656,16.3164062 5.59960752,16.2675786 5.97070312,16.1699219 C6.34179873,16.0722651 6.55859344,15.958985 6.62109375,15.8300781 C6.68359406,15.7011712 6.71484375,15.4765641 6.71484375,15.15625 L6.71484375,2.51171875 C6.71484375,2.28515512 6.70703133,2.12500047 6.69140625,2.03125 C6.67578117,1.93749953 6.63281285,1.84960979 6.5625,1.76757812 C6.49218715,1.68554646 6.37695393,1.62890641 6.21679688,1.59765625 C6.05663982,1.56640609 5.62500352,1.55078125 4.921875,1.55078125 C4.29687188,1.55078125 3.77539271,1.5703123 3.35742188,1.609375 C2.93945104,1.6484377 2.5703141,1.74413986 2.25,1.89648438 C1.9296859,2.04882889 1.68554771,2.22070217 1.51757812,2.41210938 C1.34960854,2.60351658 1.19726631,2.8964824 1.06054688,3.29101562 C0.923827441,3.68554885 0.828125273,4.08984168 0.7734375,4.50390625 C0.718749727,4.91797082 0.660156563,5.48437141 0.59765625,6.203125 L0,6.203125 Z M17.2265625,17.0546875 L17.2265625,16.3164062 C18.0781293,16.3164062 18.6015615,16.2636724 18.796875,16.1582031 C18.9921885,16.0527338 19.0898438,15.7421901 19.0898438,15.2265625 L19.0898438,2.74609375 C19.0898438,2.15234078 18.9863292,1.78125074 18.7792969,1.6328125 C18.5722646,1.48437426 18.0546916,1.41015625 17.2265625,1.41015625 L17.2265625,0.66015625 L20.671875,0.40234375 L20.671875,8.74609375 L20.6953125,8.74609375 C20.9531263,8.16796586 21.3710909,7.64062738 21.9492188,7.1640625 C22.5273466,6.68749762 23.2617143,6.44921875 24.1523438,6.44921875 C25.3554748,6.44921875 26.1953101,6.74609078 26.671875,7.33984375 C27.0234393,7.73828324 27.2363278,8.16015402 27.3105469,8.60546875 C27.384766,9.05078348 27.421875,9.85155672 27.421875,11.0078125 L27.421875,15.5898438 C27.4375001,15.9257829 27.5742175,16.130859 27.8320312,16.2050781 C28.089845,16.2792972 28.5781214,16.3164062 29.296875,16.3164062 L29.296875,17.0546875 C27.6640543,17.0078123 26.7656258,16.984375 26.6015625,16.984375 C26.4765619,16.984375 25.5742271,17.0078123 23.8945312,17.0546875 L23.8945312,16.3164062 C24.746098,16.3164062 25.2714834,16.2636724 25.4707031,16.1582031 C25.6699229,16.0527338 25.7695312,15.7421901 25.7695312,15.2265625 L25.7695312,9.63671875 C25.7695312,8.82421469 25.6445325,8.17773678 25.3945312,7.69726562 C25.14453,7.21679447 24.6757847,6.9765625 23.9882812,6.9765625 C23.1601521,6.9765625 22.4140658,7.32421527 21.75,8.01953125 C21.0859342,8.71484723 20.7539062,9.64843164 20.7539062,10.8203125 L20.7539062,15.2265625 C20.7539062,15.7421901 20.8535146,16.0527338 21.0527344,16.1582031 C21.2519541,16.2636724 21.7734333,16.3164062 22.6171875,16.3164062 L22.6171875,17.0546875 C20.9843668,17.0078123 20.0898445,16.984375 19.9335938,16.984375 C19.8085931,16.984375 18.9062584,17.0078123 17.2265625,17.0546875 Z M30.4335938,11.7695312 C30.4335938,10.2617112 30.9179639,8.9726616 31.8867188,7.90234375 C32.8554736,6.8320259 34.0351493,6.296875 35.4257812,6.296875 C36.8320383,6.296875 37.900387,6.75390168 38.6308594,7.66796875 C39.3613318,8.58203582 39.7265625,9.69530594 39.7265625,11.0078125 C39.7265625,11.2500012 39.6953128,11.394531 39.6328125,11.4414062 C39.5703122,11.4882815 39.4023451,11.5117188 39.1289062,11.5117188 L32.4257812,11.5117188 C32.4257812,13.1445394 32.6679663,14.3437462 33.1523438,15.109375 C33.8242221,16.1796929 34.7265568,16.7148438 35.859375,16.7148438 C36.0156258,16.7148438 36.1874991,16.6992189 36.375,16.6679688 C36.5625009,16.6367186 36.8476543,16.5527351 37.2304688,16.4160156 C37.6132832,16.2792962 37.9726546,16.0273456 38.3085938,15.6601562 C38.6445329,15.2929669 38.9101553,14.8203154 39.1054688,14.2421875 C39.152344,14.0156239 39.2539055,13.90625 39.4101562,13.9140625 C39.6210948,13.9140625 39.7265625,14.0078116 39.7265625,14.1953125 C39.7265625,14.3359382 39.6503914,14.5644515 39.4980469,14.8808594 C39.3457024,15.1972672 39.1250014,15.5429669 38.8359375,15.9179688 C38.5468736,16.2929706 38.1230497,16.6210923 37.5644531,16.9023438 C37.0058566,17.1835952 36.3906284,17.3242188 35.71875,17.3242188 C34.312493,17.3242188 33.0800834,16.791021 32.0214844,15.7246094 C30.9628853,14.6581978 30.4335938,13.3398516 30.4335938,11.7695312 Z M32.4492188,11.0078125 L38.1445312,11.0078125 C38.1445312,10.6718733 38.1152347,10.3164081 38.0566406,9.94140625 C37.9980466,9.56640438 37.8847665,9.11914322 37.7167969,8.59960938 C37.5488273,8.08007553 37.2695332,7.65625164 36.8789062,7.328125 C36.4882793,6.99999836 36.0039091,6.8359375 35.4257812,6.8359375 C35.1679675,6.8359375 34.900392,6.89062445 34.6230469,7 C34.3457017,7.10937555 34.0390642,7.29687367 33.703125,7.5625 C33.3671858,7.82812633 33.0820324,8.26171574 32.8476562,8.86328125 C32.6132801,9.46484676 32.4804689,10.1796834 32.4492188,11.0078125 Z M49.1953125,7.45703125 L49.1953125,6.70703125 L51.0820312,6.70703125 L51.0820312,3.953125 C51.0820312,2.76561906 51.466793,1.83203465 52.2363281,1.15234375 C53.0058632,0.472652852 53.8632765,0.1328125 54.8085938,0.1328125 C55.4335969,0.1328125 55.9492167,0.30077957 56.3554688,0.63671875 C56.7617208,0.97265793 56.9648438,1.36718523 56.9648438,1.8203125 C56.9648438,2.12500152 56.8730478,2.37695213 56.6894531,2.57617188 C56.5058585,2.77539162 56.2460954,2.875 55.9101562,2.875 C55.5898421,2.875 55.3378915,2.77343852 55.1542969,2.5703125 C54.9707022,2.36718648 54.8789062,2.12500141 54.8789062,1.84375 C54.8789062,1.32812242 55.1171851,0.992188281 55.59375,0.8359375 C55.3515613,0.726561953 55.0898452,0.667968789 54.8085938,0.66015625 C54.2304659,0.66015625 53.7167991,0.957028281 53.2675781,1.55078125 C52.8183571,2.14453422 52.59375,2.93749504 52.59375,3.9296875 L52.59375,6.70703125 L55.40625,6.70703125 L55.40625,7.45703125 L52.6757812,7.45703125 L52.6757812,15.1796875 C52.6757812,15.6406273 52.7714834,15.9453118 52.9628906,16.09375 C53.1542978,16.2421882 53.6640584,16.3164062 54.4921875,16.3164062 L54.9960938,16.3164062 L54.9960938,17.0546875 C54.3554655,17.0078123 53.3398507,16.984375 51.9492188,16.984375 C51.7539053,16.984375 51.5058609,16.9882812 51.2050781,16.9960938 C50.9042954,17.0039063 50.5527364,17.0156249 50.1503906,17.03125 C49.7480449,17.0468751 49.4375011,17.0546875 49.21875,17.0546875 L49.21875,16.3164062 C50.0703168,16.3164062 50.593749,16.2636724 50.7890625,16.1582031 C50.984376,16.0527338 51.0820312,15.7421901 51.0820312,15.2265625 L51.0820312,7.45703125 L49.1953125,7.45703125 Z M56.484375,7.45703125 L56.484375,6.70703125 L60.0117188,6.44921875 L60.0117188,14.4179688 C60.0117188,14.8007832 60.0273436,15.1035145 60.0585938,15.3261719 C60.0898439,15.5488292 60.1699212,15.7890612 60.2988281,16.046875 C60.427735,16.3046888 60.6425766,16.4921869 60.9433594,16.609375 C61.2441421,16.7265631 61.6367163,16.7851562 62.1210938,16.7851562 C62.9882856,16.7851562 63.6894504,16.4296911 64.2246094,15.71875 C64.7597683,15.0078089 65.0273438,14.1250053 65.0273438,13.0703125 L65.0273438,8.79296875 C65.0273438,8.19921578 64.9218761,7.82812574 64.7109375,7.6796875 C64.4999989,7.53124926 63.9804729,7.45703125 63.1523438,7.45703125 L63.1523438,6.70703125 L66.6796875,6.44921875 L66.6796875,14.96875 C66.6796875,15.562503 66.7832021,15.9355461 66.9902344,16.0878906 C67.1972667,16.2402351 67.7187458,16.3164062 68.5546875,16.3164062 L68.5546875,17.0546875 L65.0976562,17.3242188 L65.0976562,15.15625 C64.4257779,16.5937572 63.3945382,17.3164062 62.0039062,17.3242188 C61.3007777,17.3242188 60.7089868,17.2343759 60.2285156,17.0546875 C59.7480445,16.8749991 59.38672,16.6738292 59.1445312,16.4511719 C58.9023425,16.2285145 58.7167975,15.9023459 58.5878906,15.4726562 C58.4589837,15.0429666 58.3867188,14.6953138 58.3710938,14.4296875 C58.3554687,14.1640612 58.3476562,13.7734401 58.3476562,13.2578125 L58.3476562,9.66015625 C58.3476562,8.57421332 58.269532,7.93554783 58.1132812,7.74414062 C57.9570305,7.55273342 57.4140671,7.45703125 56.484375,7.45703125 Z M69.796875,17.0546875 L69.796875,16.3164062 C70.6484418,16.3164062 71.171874,16.2636724 71.3671875,16.1582031 C71.562501,16.0527338 71.6601562,15.7421901 71.6601562,15.2265625 L71.6601562,8.79296875 C71.6601562,8.19921578 71.5566417,7.82812574 71.3496094,7.6796875 C71.1425771,7.53124926 70.6250041,7.45703125 69.796875,7.45703125 L69.796875,6.70703125 L73.171875,6.44921875 L73.171875,8.96875 C73.9218787,7.2890541 75.1054607,6.44921875 76.7226562,6.44921875 C77.9257873,6.44921875 78.7656226,6.74609078 79.2421875,7.33984375 C79.5937518,7.73828324 79.8066403,8.16015402 79.8808594,8.60546875 C79.9550785,9.05078348 79.9921875,9.85155672 79.9921875,11.0078125 L79.9921875,15.5898438 C80.0078126,15.9257829 80.14453,16.130859 80.4023438,16.2050781 C80.6601575,16.2792972 81.1484339,16.3164062 81.8671875,16.3164062 L81.8671875,17.0546875 C80.2343668,17.0078123 79.3359383,16.984375 79.171875,16.984375 C79.0468744,16.984375 78.1445396,17.0078123 76.4648438,17.0546875 L76.4648438,16.3164062 C77.3164105,16.3164062 77.8417959,16.2636724 78.0410156,16.1582031 C78.2402354,16.0527338 78.3398438,15.7421901 78.3398438,15.2265625 L78.3398438,9.63671875 C78.3398438,8.82421469 78.214845,8.17773678 77.9648438,7.69726562 C77.7148425,7.21679447 77.2460972,6.9765625 76.5585938,6.9765625 C75.7304646,6.9765625 74.9843783,7.32421527 74.3203125,8.01953125 C73.6562467,8.71484723 73.3242188,9.64843164 73.3242188,10.8203125 L73.3242188,15.2265625 C73.3242188,15.7421901 73.4238271,16.0527338 73.6230469,16.1582031 C73.8222666,16.2636724 74.3437458,16.3164062 75.1875,16.3164062 L75.1875,17.0546875 C73.5546793,17.0078123 72.660157,16.984375 72.5039062,16.984375 C72.3789056,16.984375 71.4765709,17.0078123 69.796875,17.0546875 Z M91.1132812,16.7382812 L91.1132812,13.5742188 C91.1132812,13.3945304 91.1171875,13.2734378 91.125,13.2109375 C91.1328125,13.1484372 91.160156,13.0937502 91.2070312,13.046875 C91.2539065,12.9999998 91.3242183,12.9765625 91.4179688,12.9765625 C91.5273443,12.9765625 91.6035154,12.9999998 91.6464844,13.046875 C91.6894533,13.0937502 91.7265623,13.2070304 91.7578125,13.3867188 C92.0000012,14.4882868 92.3808568,15.3300752 92.9003906,15.9121094 C93.4199245,16.4941435 94.152339,16.7851562 95.0976562,16.7851562 C95.9960982,16.7851562 96.6718727,16.5859395 97.125,16.1875 C97.5781273,15.7890605 97.8046875,15.261722 97.8046875,14.6054688 C97.8046875,13.4335879 96.9726646,12.6992202 95.3085938,12.4023438 C94.3476514,12.2070303 93.6679707,12.0449225 93.2695312,11.9160156 C92.8710918,11.7871087 92.4960955,11.5781264 92.1445312,11.2890625 C91.4570278,10.7265597 91.1132812,10.046879 91.1132812,9.25 C91.1132812,8.45312102 91.4160126,7.76172168 92.0214844,7.17578125 C92.6269562,6.58984082 93.6015558,6.296875 94.9453125,6.296875 C95.8437545,6.296875 96.5976532,6.52343523 97.2070312,6.9765625 C97.3867196,6.8359368 97.523437,6.70703184 97.6171875,6.58984375 C97.8281261,6.39453027 97.9882807,6.296875 98.0976562,6.296875 C98.2226569,6.296875 98.2968749,6.33789021 98.3203125,6.41992188 C98.3437501,6.50195354 98.3554688,6.65624887 98.3554688,6.8828125 L98.3554688,9.296875 C98.3554688,9.4765634 98.3515625,9.59765594 98.34375,9.66015625 C98.3359375,9.72265656 98.308594,9.77539041 98.2617188,9.81835938 C98.2148435,9.86132834 98.1406255,9.8828125 98.0390625,9.8828125 C97.8593741,9.8828125 97.765625,9.80859449 97.7578125,9.66015625 C97.6328119,7.72264656 96.6953213,6.75390625 94.9453125,6.75390625 C93.9999953,6.75390625 93.3164084,6.93554506 92.8945312,7.29882812 C92.4726541,7.66211119 92.2617188,8.08984129 92.2617188,8.58203125 C92.2617188,8.85547012 92.3261712,9.09570209 92.4550781,9.30273438 C92.583985,9.50976666 92.732421,9.67382752 92.9003906,9.79492188 C93.0683602,9.91601623 93.3085922,10.0332026 93.6210938,10.1464844 C93.9335953,10.2597662 94.1855459,10.3359373 94.3769531,10.375 C94.5683603,10.4140627 94.8476544,10.4726559 95.2148438,10.5507812 C96.4961002,10.79297 97.4062473,11.1757786 97.9453125,11.6992188 C98.6171909,12.3710971 98.953125,13.1328082 98.953125,13.984375 C98.953125,14.9296922 98.6328157,15.722653 97.9921875,16.3632812 C97.3515593,17.0039095 96.3867252,17.3242188 95.0976562,17.3242188 C94.0585886,17.3242188 93.1757849,16.976566 92.4492188,16.28125 C92.3554683,16.3750005 92.2734379,16.4628902 92.203125,16.5449219 C92.1328121,16.6269535 92.0839845,16.6835936 92.0566406,16.7148438 C92.0292967,16.7460939 92.0117188,16.7714843 92.0039062,16.7910156 C91.9960937,16.810547 91.9843751,16.8281249 91.96875,16.84375 C91.6484359,17.1640641 91.4492191,17.3242188 91.3710938,17.3242188 C91.2460931,17.3242188 91.1718751,17.2832035 91.1484375,17.2011719 C91.1249999,17.1191402 91.1132812,16.9648449 91.1132812,16.7382812 Z M100.21875,7.45703125 L100.21875,6.9296875 C100.953129,6.89843734 101.564451,6.62304947 102.052734,6.10351562 C102.541018,5.58398178 102.86914,5.00390945 103.037109,4.36328125 C103.205079,3.72265305 103.296875,3.03125371 103.3125,2.2890625 L103.910156,2.2890625 L103.910156,6.70703125 L107.34375,6.70703125 L107.34375,7.45703125 L103.910156,7.45703125 L103.910156,14.125 C103.910156,15.8515711 104.449213,16.7148438 105.527344,16.7148438 C105.988284,16.7148438 106.371092,16.478518 106.675781,16.0058594 C106.98047,15.5332008 107.132812,14.8750042 107.132812,14.03125 L107.132812,12.7070312 L107.730469,12.7070312 L107.730469,14.078125 C107.730469,14.9453168 107.531252,15.7031218 107.132812,16.3515625 C106.734373,17.0000032 106.140629,17.3242188 105.351562,17.3242188 C105.062499,17.3242188 104.775392,17.2871097 104.490234,17.2128906 C104.205077,17.1386715 103.876955,17.0058603 103.505859,16.8144531 C103.134764,16.6230459 102.833986,16.291018 102.603516,15.8183594 C102.373046,15.3457008 102.257812,14.7656284 102.257812,14.078125 L102.257812,7.45703125 L100.21875,7.45703125 Z M110.074219,14.7695312 C110.074219,13.4101495 110.874992,12.3710973 112.476562,11.6523438 C113.437505,11.1914039 114.910146,10.9023443 116.894531,10.7851562 L116.894531,9.90625 C116.894531,8.91405754 116.634768,8.15429951 116.115234,7.62695312 C115.595701,7.09960674 115.007816,6.8359375 114.351562,6.8359375 C113.179682,6.8359375 112.312503,7.20312133 111.75,7.9375 C112.226565,7.95312508 112.55078,8.08007693 112.722656,8.31835938 C112.894532,8.55664182 112.980469,8.79687379 112.980469,9.0390625 C112.980469,9.3593766 112.88086,9.62304584 112.681641,9.83007812 C112.482421,10.0371104 112.214845,10.140625 111.878906,10.140625 C111.558592,10.140625 111.29297,10.0410166 111.082031,9.84179688 C110.871093,9.64257713 110.765625,9.36718926 110.765625,9.015625 C110.765625,8.23437109 111.119137,7.58594008 111.826172,7.0703125 C112.533207,6.55468492 113.39062,6.296875 114.398438,6.296875 C115.710944,6.296875 116.804683,6.73827684 117.679688,7.62109375 C117.953126,7.89453262 118.158202,8.20702949 118.294922,8.55859375 C118.431641,8.91015801 118.507812,9.20117072 118.523438,9.43164062 C118.539063,9.66211053 118.546875,10.003904 118.546875,10.4570312 L118.546875,15.25 C118.546875,15.3437505 118.5625,15.4687492 118.59375,15.625 C118.625,15.7812508 118.71289,15.9589834 118.857422,16.1582031 C119.001954,16.3574229 119.195311,16.4570312 119.4375,16.4570312 C120.015628,16.4570312 120.300781,15.9453176 120.292969,14.921875 L120.292969,13.5742188 L120.902344,13.5742188 L120.902344,14.921875 C120.902344,15.7734418 120.677737,16.3652327 120.228516,16.6972656 C119.779295,17.0292985 119.347658,17.1953125 118.933594,17.1953125 C118.402341,17.1953125 117.968752,17.000002 117.632812,16.609375 C117.296873,16.218748 117.105469,15.7578152 117.058594,15.2265625 C116.816405,15.8359405 116.419925,16.3378887 115.869141,16.7324219 C115.318357,17.1269551 114.667972,17.3242188 113.917969,17.3242188 C113.339841,17.3242188 112.7793,17.2519538 112.236328,17.1074219 C111.693357,16.9628899 111.197268,16.6894551 110.748047,16.2871094 C110.298826,15.8847636 110.074219,15.3789093 110.074219,14.7695312 Z M111.925781,14.7460938 C111.925781,15.3398467 112.136717,15.8281231 112.558594,16.2109375 C112.980471,16.5937519 113.488278,16.7851562 114.082031,16.7851562 C114.75391,16.7851562 115.390622,16.5253932 115.992188,16.0058594 C116.593753,15.4863255 116.894531,14.7148489 116.894531,13.6914062 L116.894531,11.2890625 C115.121085,11.3515628 113.849613,11.7363246 113.080078,12.4433594 C112.310543,13.1503942 111.925781,13.9179646 111.925781,14.7460938 Z M121.523438,7.45703125 L121.523438,6.9296875 C122.257816,6.89843734 122.869138,6.62304947 123.357422,6.10351562 C123.845706,5.58398178 124.173827,5.00390945 124.341797,4.36328125 C124.509766,3.72265305 124.601562,3.03125371 124.617188,2.2890625 L125.214844,2.2890625 L125.214844,6.70703125 L128.648438,6.70703125 L128.648438,7.45703125 L125.214844,7.45703125 L125.214844,14.125 C125.214844,15.8515711 125.753901,16.7148438 126.832031,16.7148438 C127.292971,16.7148438 127.67578,16.478518 127.980469,16.0058594 C128.285158,15.5332008 128.4375,14.8750042 128.4375,14.03125 L128.4375,12.7070312 L129.035156,12.7070312 L129.035156,14.078125 C129.035156,14.9453168 128.835939,15.7031218 128.4375,16.3515625 C128.039061,17.0000032 127.445316,17.3242188 126.65625,17.3242188 C126.367186,17.3242188 126.08008,17.2871097 125.794922,17.2128906 C125.509764,17.1386715 125.181642,17.0058603 124.810547,16.8144531 C124.439451,16.6230459 124.138673,16.291018 123.908203,15.8183594 C123.677733,15.3457008 123.5625,14.7656284 123.5625,14.078125 L123.5625,7.45703125 L121.523438,7.45703125 Z M131.167969,17.0546875 L131.167969,16.3164062 C132.019536,16.3164062 132.542968,16.2636724 132.738281,16.1582031 C132.933595,16.0527338 133.03125,15.7421901 133.03125,15.2265625 L133.03125,8.76953125 C133.03125,8.17577828 132.931642,7.80859445 132.732422,7.66796875 C132.533202,7.52734305 132.042973,7.45703125 131.261719,7.45703125 L131.261719,6.70703125 L134.613281,6.44921875 L134.613281,15.25 C134.613281,15.7265649 134.699218,16.0234369 134.871094,16.140625 C135.04297,16.2578131 135.519527,16.3164062 136.300781,16.3164062 L136.300781,17.0546875 C134.667961,17.0078123 133.835938,16.984375 133.804688,16.984375 C133.585936,16.984375 132.707039,17.0078123 131.167969,17.0546875 Z M132.175781,2.265625 C132.175781,1.9453109 132.298827,1.65429818 132.544922,1.39257812 C132.791017,1.13085807 133.089842,1 133.441406,1 C133.792971,1 134.093749,1.11913943 134.34375,1.35742188 C134.593751,1.59570432 134.71875,1.90038877 134.71875,2.27148438 C134.71875,2.64257998 134.593751,2.94726443 134.34375,3.18554688 C134.093749,3.42382932 133.792971,3.54296875 133.441406,3.54296875 C133.074217,3.54296875 132.771486,3.41406379 132.533203,3.15625 C132.294921,2.89843621 132.175781,2.60156418 132.175781,2.265625 Z M139.359375,15.7421875 C138.343745,14.6796822 137.835938,13.3886795 137.835938,11.8691406 C137.835938,10.3496018 138.335932,9.04102111 139.335938,7.94335938 C140.335943,6.84569764 141.570305,6.296875 143.039062,6.296875 C144.01563,6.296875 144.87109,6.52929455 145.605469,6.99414062 C146.339847,7.4589867 146.707031,8.08593355 146.707031,8.875 C146.707031,9.22656426 146.603517,9.50195213 146.396484,9.70117188 C146.189452,9.90039162 145.925783,10 145.605469,10 C145.26953,10 145.001954,9.89648541 144.802734,9.68945312 C144.603515,9.48242084 144.503906,9.2187516 144.503906,8.8984375 C144.503906,8.7578118 144.527344,8.6171882 144.574219,8.4765625 C144.621094,8.3359368 144.732421,8.19140699 144.908203,8.04296875 C145.083985,7.89453051 145.324217,7.80859387 145.628906,7.78515625 C145.058591,7.19921582 144.218756,6.90625 143.109375,6.90625 L143.0625,6.90625 C142.249996,6.90625 141.507816,7.28905867 140.835938,8.0546875 C140.164059,8.82031633 139.828125,10.0781163 139.828125,11.828125 C139.828125,12.7421921 139.939452,13.5331998 140.162109,14.2011719 C140.384767,14.869144 140.679686,15.3749983 141.046875,15.71875 C141.414064,16.0625017 141.777342,16.3144523 142.136719,16.4746094 C142.496096,16.6347664 142.851561,16.7148438 143.203125,16.7148438 C144.773445,16.7148438 145.824216,15.8750084 146.355469,14.1953125 C146.402344,14.0390617 146.503905,13.9609375 146.660156,13.9609375 C146.871095,13.9609375 146.976562,14.0390617 146.976562,14.1953125 C146.976562,14.2734379 146.945313,14.4140615 146.882812,14.6171875 C146.820312,14.8203135 146.691407,15.0820296 146.496094,15.4023438 C146.30078,15.7226579 146.064455,16.021483 145.787109,16.2988281 C145.509764,16.5761733 145.126956,16.8164052 144.638672,17.0195312 C144.150388,17.2226573 143.601566,17.3242188 142.992188,17.3242188 C141.58593,17.3242188 140.375005,16.7968803 139.359375,15.7421875 Z M156.445312,16.7382812 L156.445312,13.5742188 C156.445312,13.3945304 156.449219,13.2734378 156.457031,13.2109375 C156.464844,13.1484372 156.492187,13.0937502 156.539062,13.046875 C156.585938,12.9999998 156.65625,12.9765625 156.75,12.9765625 C156.859376,12.9765625 156.935547,12.9999998 156.978516,13.046875 C157.021485,13.0937502 157.058594,13.2070304 157.089844,13.3867188 C157.332032,14.4882868 157.712888,15.3300752 158.232422,15.9121094 C158.751956,16.4941435 159.48437,16.7851562 160.429688,16.7851562 C161.328129,16.7851562 162.003904,16.5859395 162.457031,16.1875 C162.910159,15.7890605 163.136719,15.261722 163.136719,14.6054688 C163.136719,13.4335879 162.304696,12.6992202 160.640625,12.4023438 C159.679683,12.2070303 159.000002,12.0449225 158.601562,11.9160156 C158.203123,11.7871087 157.828127,11.5781264 157.476562,11.2890625 C156.789059,10.7265597 156.445312,10.046879 156.445312,9.25 C156.445312,8.45312102 156.748044,7.76172168 157.353516,7.17578125 C157.958987,6.58984082 158.933587,6.296875 160.277344,6.296875 C161.175786,6.296875 161.929684,6.52343523 162.539062,6.9765625 C162.718751,6.8359368 162.855468,6.70703184 162.949219,6.58984375 C163.160157,6.39453027 163.320312,6.296875 163.429688,6.296875 C163.554688,6.296875 163.628906,6.33789021 163.652344,6.41992188 C163.675781,6.50195354 163.6875,6.65624887 163.6875,6.8828125 L163.6875,9.296875 C163.6875,9.4765634 163.683594,9.59765594 163.675781,9.66015625 C163.667969,9.72265656 163.640625,9.77539041 163.59375,9.81835938 C163.546875,9.86132834 163.472657,9.8828125 163.371094,9.8828125 C163.191405,9.8828125 163.097656,9.80859449 163.089844,9.66015625 C162.964843,7.72264656 162.027353,6.75390625 160.277344,6.75390625 C159.332027,6.75390625 158.64844,6.93554506 158.226562,7.29882812 C157.804685,7.66211119 157.59375,8.08984129 157.59375,8.58203125 C157.59375,8.85547012 157.658202,9.09570209 157.787109,9.30273438 C157.916016,9.50976666 158.064452,9.67382752 158.232422,9.79492188 C158.400391,9.91601623 158.640623,10.0332026 158.953125,10.1464844 C159.265627,10.2597662 159.517577,10.3359373 159.708984,10.375 C159.900392,10.4140627 160.179686,10.4726559 160.546875,10.5507812 C161.828131,10.79297 162.738279,11.1757786 163.277344,11.6992188 C163.949222,12.3710971 164.285156,13.1328082 164.285156,13.984375 C164.285156,14.9296922 163.964847,15.722653 163.324219,16.3632812 C162.683591,17.0039095 161.718756,17.3242188 160.429688,17.3242188 C159.39062,17.3242188 158.507816,16.976566 157.78125,16.28125 C157.6875,16.3750005 157.605469,16.4628902 157.535156,16.5449219 C157.464843,16.6269535 157.416016,16.6835936 157.388672,16.7148438 C157.361328,16.7460939 157.34375,16.7714843 157.335938,16.7910156 C157.328125,16.810547 157.316406,16.8281249 157.300781,16.84375 C156.980467,17.1640641 156.78125,17.3242188 156.703125,17.3242188 C156.578124,17.3242188 156.503906,17.2832035 156.480469,17.2011719 C156.457031,17.1191402 156.445312,16.9648449 156.445312,16.7382812 Z M165.890625,17.0546875 L165.890625,16.3164062 C166.742192,16.3164062 167.265624,16.2636724 167.460938,16.1582031 C167.656251,16.0527338 167.753906,15.7421901 167.753906,15.2265625 L167.753906,8.76953125 C167.753906,8.17577828 167.654298,7.80859445 167.455078,7.66796875 C167.255858,7.52734305 166.765629,7.45703125 165.984375,7.45703125 L165.984375,6.70703125 L169.335938,6.44921875 L169.335938,15.25 C169.335938,15.7265649 169.421874,16.0234369 169.59375,16.140625 C169.765626,16.2578131 170.242184,16.3164062 171.023438,16.3164062 L171.023438,17.0546875 C169.390617,17.0078123 168.558594,16.984375 168.527344,16.984375 C168.308593,16.984375 167.429695,17.0078123 165.890625,17.0546875 Z M166.898438,2.265625 C166.898438,1.9453109 167.021483,1.65429818 167.267578,1.39257812 C167.513673,1.13085807 167.812498,1 168.164062,1 C168.515627,1 168.816405,1.11913943 169.066406,1.35742188 C169.316407,1.59570432 169.441406,1.90038877 169.441406,2.27148438 C169.441406,2.64257998 169.316407,2.94726443 169.066406,3.18554688 C168.816405,3.42382932 168.515627,3.54296875 168.164062,3.54296875 C167.796873,3.54296875 167.494142,3.41406379 167.255859,3.15625 C167.017577,2.89843621 166.898438,2.60156418 166.898438,2.265625 Z M172.195312,7.45703125 L172.195312,6.9296875 C172.929691,6.89843734 173.541013,6.62304947 174.029297,6.10351562 C174.517581,5.58398178 174.845702,5.00390945 175.013672,4.36328125 C175.181641,3.72265305 175.273437,3.03125371 175.289062,2.2890625 L175.886719,2.2890625 L175.886719,6.70703125 L179.320312,6.70703125 L179.320312,7.45703125 L175.886719,7.45703125 L175.886719,14.125 C175.886719,15.8515711 176.425776,16.7148438 177.503906,16.7148438 C177.964846,16.7148438 178.347655,16.478518 178.652344,16.0058594 C178.957033,15.5332008 179.109375,14.8750042 179.109375,14.03125 L179.109375,12.7070312 L179.707031,12.7070312 L179.707031,14.078125 C179.707031,14.9453168 179.507814,15.7031218 179.109375,16.3515625 C178.710936,17.0000032 178.117191,17.3242188 177.328125,17.3242188 C177.039061,17.3242188 176.751955,17.2871097 176.466797,17.2128906 C176.181639,17.1386715 175.853517,17.0058603 175.482422,16.8144531 C175.111326,16.6230459 174.810548,16.291018 174.580078,15.8183594 C174.349608,15.3457008 174.234375,14.7656284 174.234375,14.078125 L174.234375,7.45703125 L172.195312,7.45703125 Z M181.710938,11.7695312 C181.710938,10.2617112 182.195308,8.9726616 183.164062,7.90234375 C184.132817,6.8320259 185.312493,6.296875 186.703125,6.296875 C188.109382,6.296875 189.177731,6.75390168 189.908203,7.66796875 C190.638676,8.58203582 191.003906,9.69530594 191.003906,11.0078125 C191.003906,11.2500012 190.972657,11.394531 190.910156,11.4414062 C190.847656,11.4882815 190.679689,11.5117188 190.40625,11.5117188 L183.703125,11.5117188 C183.703125,13.1445394 183.94531,14.3437462 184.429688,15.109375 C185.101566,16.1796929 186.003901,16.7148438 187.136719,16.7148438 C187.29297,16.7148438 187.464843,16.6992189 187.652344,16.6679688 C187.839845,16.6367186 188.124998,16.5527351 188.507812,16.4160156 C188.890627,16.2792962 189.249998,16.0273456 189.585938,15.6601562 C189.921877,15.2929669 190.187499,14.8203154 190.382812,14.2421875 C190.429688,14.0156239 190.531249,13.90625 190.6875,13.9140625 C190.898439,13.9140625 191.003906,14.0078116 191.003906,14.1953125 C191.003906,14.3359382 190.927735,14.5644515 190.775391,14.8808594 C190.623046,15.1972672 190.402345,15.5429669 190.113281,15.9179688 C189.824217,16.2929706 189.400393,16.6210923 188.841797,16.9023438 C188.2832,17.1835952 187.667972,17.3242188 186.996094,17.3242188 C185.589837,17.3242188 184.357427,16.791021 183.298828,15.7246094 C182.240229,14.6581978 181.710938,13.3398516 181.710938,11.7695312 Z M183.726562,11.0078125 L189.421875,11.0078125 C189.421875,10.6718733 189.392578,10.3164081 189.333984,9.94140625 C189.27539,9.56640438 189.16211,9.11914322 188.994141,8.59960938 C188.826171,8.08007553 188.546877,7.65625164 188.15625,7.328125 C187.765623,6.99999836 187.281253,6.8359375 186.703125,6.8359375 C186.445311,6.8359375 186.177736,6.89062445 185.900391,7 C185.623045,7.10937555 185.316408,7.29687367 184.980469,7.5625 C184.64453,7.82812633 184.359376,8.26171574 184.125,8.86328125 C183.890624,9.46484676 183.757813,10.1796834 183.726562,11.0078125 Z M200.34375,18.953125 C200.34375,18.4374974 200.541014,17.9570335 200.935547,17.5117188 C201.33008,17.066404 201.87109,16.7460947 202.558594,16.5507812 C201.855465,16.1054665 201.503906,15.3945361 201.503906,14.4179688 C201.503906,13.667965 201.749998,13.0039091 202.242188,12.4257812 C201.492184,11.8007781 201.117188,10.9765676 201.117188,9.953125 C201.117188,9.00780777 201.492184,8.18750348 202.242188,7.4921875 C202.992191,6.79687152 203.914057,6.44921875 205.007812,6.44921875 C205.968755,6.44921875 206.816403,6.73827836 207.550781,7.31640625 C208.31641,6.5664025 209.164058,6.18750004 210.09375,6.1796875 C210.507815,6.1796875 210.814452,6.30859246 211.013672,6.56640625 C211.212892,6.82422004 211.3125,7.08984238 211.3125,7.36328125 C211.3125,7.60546996 211.236329,7.78515566 211.083984,7.90234375 C210.93164,8.01953184 210.777345,8.078125 210.621094,8.078125 C210.42578,8.078125 210.259766,8.01367252 210.123047,7.88476562 C209.986327,7.75585873 209.917969,7.58984477 209.917969,7.38671875 C209.917969,7.05077957 210.046874,6.83203176 210.304688,6.73046875 C210.257812,6.71484367 210.179688,6.70703125 210.070312,6.70703125 C209.289059,6.70703125 208.56641,7.01952813 207.902344,7.64453125 C208.558597,8.2539093 208.886719,9.03124527 208.886719,9.9765625 C208.886719,10.9218797 208.511723,11.742184 207.761719,12.4375 C207.011715,13.132816 206.093755,13.4804688 205.007812,13.4804688 C204.109371,13.4804688 203.31641,13.2304713 202.628906,12.7304688 C202.355467,13.0507829 202.21875,13.4296853 202.21875,13.8671875 C202.21875,14.265627 202.339843,14.6210922 202.582031,14.9335938 C202.82422,15.2460953 203.128904,15.425781 203.496094,15.4726562 C203.605469,15.4882813 204.20312,15.4960938 205.289062,15.4960938 C205.929691,15.4960938 206.425779,15.5039062 206.777344,15.5195312 C207.128908,15.5351563 207.556638,15.5957026 208.060547,15.7011719 C208.564456,15.8066412 209.015623,15.9609365 209.414062,16.1640625 C210.45313,16.7421904 210.976562,17.6562438 210.984375,18.90625 C210.984375,19.8203171 210.45899,20.5644503 209.408203,21.1386719 C208.357417,21.7128935 207.105476,22 205.652344,22 C204.183586,22 202.931646,21.7089873 201.896484,21.1269531 C200.861323,20.544919 200.34375,19.8203168 200.34375,18.953125 Z M201.597656,18.953125 C201.597656,19.6093783 201.984371,20.1894506 202.757812,20.6933594 C203.531254,21.1972681 204.5039,21.4492188 205.675781,21.4492188 C206.824224,21.4492188 207.787105,21.2011744 208.564453,20.7050781 C209.341801,20.2089819 209.730469,19.6250034 209.730469,18.953125 C209.730469,18.4765601 209.593751,18.085939 209.320312,17.78125 C209.046874,17.476561 208.630862,17.2636725 208.072266,17.1425781 C207.513669,17.0214838 207.039064,16.9492189 206.648438,16.9257812 C206.257811,16.9023436 205.703129,16.890625 204.984375,16.890625 L203.566406,16.890625 C203.019529,16.9218752 202.554689,17.1367168 202.171875,17.5351562 C201.789061,17.9335957 201.597656,18.4062473 201.597656,18.953125 Z M202.910156,9.9765625 C202.910156,11.9453223 203.609368,12.9296875 205.007812,12.9296875 C205.710941,12.9296875 206.277342,12.6093782 206.707031,11.96875 C206.964845,11.5390604 207.09375,10.8671921 207.09375,9.953125 C207.09375,7.98436516 206.398444,7 205.007812,7 C204.304684,7 203.734377,7.3203093 203.296875,7.9609375 C203.039061,8.39062715 202.910156,9.06249543 202.910156,9.9765625 Z M212.34375,11.7695312 C212.34375,10.2617112 212.82812,8.9726616 213.796875,7.90234375 C214.76563,6.8320259 215.945306,6.296875 217.335938,6.296875 C218.742195,6.296875 219.810543,6.75390168 220.541016,7.66796875 C221.271488,8.58203582 221.636719,9.69530594 221.636719,11.0078125 C221.636719,11.2500012 221.605469,11.394531 221.542969,11.4414062 C221.480468,11.4882815 221.312501,11.5117188 221.039062,11.5117188 L214.335938,11.5117188 C214.335938,13.1445394 214.578123,14.3437462 215.0625,15.109375 C215.734378,16.1796929 216.636713,16.7148438 217.769531,16.7148438 C217.925782,16.7148438 218.097655,16.6992189 218.285156,16.6679688 C218.472657,16.6367186 218.757811,16.5527351 219.140625,16.4160156 C219.523439,16.2792962 219.882811,16.0273456 220.21875,15.6601562 C220.554689,15.2929669 220.820312,14.8203154 221.015625,14.2421875 C221.0625,14.0156239 221.164062,13.90625 221.320312,13.9140625 C221.531251,13.9140625 221.636719,14.0078116 221.636719,14.1953125 C221.636719,14.3359382 221.560548,14.5644515 221.408203,14.8808594 C221.255859,15.1972672 221.035158,15.5429669 220.746094,15.9179688 C220.45703,16.2929706 220.033206,16.6210923 219.474609,16.9023438 C218.916013,17.1835952 218.300785,17.3242188 217.628906,17.3242188 C216.222649,17.3242188 214.99024,16.791021 213.931641,15.7246094 C212.873042,14.6581978 212.34375,13.3398516 212.34375,11.7695312 Z M214.359375,11.0078125 L220.054688,11.0078125 C220.054688,10.6718733 220.025391,10.3164081 219.966797,9.94140625 C219.908203,9.56640438 219.794923,9.11914322 219.626953,8.59960938 C219.458984,8.08007553 219.179689,7.65625164 218.789062,7.328125 C218.398436,6.99999836 217.914065,6.8359375 217.335938,6.8359375 C217.078124,6.8359375 216.810548,6.89062445 216.533203,7 C216.255858,7.10937555 215.94922,7.29687367 215.613281,7.5625 C215.277342,7.82812633 214.992189,8.26171574 214.757812,8.86328125 C214.523436,9.46484676 214.390625,10.1796834 214.359375,11.0078125 Z M223.101562,17.0546875 L223.101562,16.3164062 C223.953129,16.3164062 224.476562,16.2636724 224.671875,16.1582031 C224.867188,16.0527338 224.964844,15.7421901 224.964844,15.2265625 L224.964844,8.79296875 C224.964844,8.19921578 224.861329,7.82812574 224.654297,7.6796875 C224.447265,7.53124926 223.929692,7.45703125 223.101562,7.45703125 L223.101562,6.70703125 L226.476562,6.44921875 L226.476562,8.96875 C227.226566,7.2890541 228.410148,6.44921875 230.027344,6.44921875 C231.230475,6.44921875 232.07031,6.74609078 232.546875,7.33984375 C232.898439,7.73828324 233.111328,8.16015402 233.185547,8.60546875 C233.259766,9.05078348 233.296875,9.85155672 233.296875,11.0078125 L233.296875,15.5898438 C233.3125,15.9257829 233.449217,16.130859 233.707031,16.2050781 C233.964845,16.2792972 234.453121,16.3164062 235.171875,16.3164062 L235.171875,17.0546875 C233.539054,17.0078123 232.640626,16.984375 232.476562,16.984375 C232.351562,16.984375 231.449227,17.0078123 229.769531,17.0546875 L229.769531,16.3164062 C230.621098,16.3164062 231.146483,16.2636724 231.345703,16.1582031 C231.544923,16.0527338 231.644531,15.7421901 231.644531,15.2265625 L231.644531,9.63671875 C231.644531,8.82421469 231.519532,8.17773678 231.269531,7.69726562 C231.01953,7.21679447 230.550785,6.9765625 229.863281,6.9765625 C229.035152,6.9765625 228.289066,7.32421527 227.625,8.01953125 C226.960934,8.71484723 226.628906,9.64843164 226.628906,10.8203125 L226.628906,15.2265625 C226.628906,15.7421901 226.728515,16.0527338 226.927734,16.1582031 C227.126954,16.2636724 227.648433,16.3164062 228.492188,16.3164062 L228.492188,17.0546875 C226.859367,17.0078123 225.964845,16.984375 225.808594,16.984375 C225.683593,16.984375 224.781258,17.0078123 223.101562,17.0546875 Z M236.308594,11.7695312 C236.308594,10.2617112 236.792964,8.9726616 237.761719,7.90234375 C238.730474,6.8320259 239.910149,6.296875 241.300781,6.296875 C242.707038,6.296875 243.775387,6.75390168 244.505859,7.66796875 C245.236332,8.58203582 245.601562,9.69530594 245.601562,11.0078125 C245.601562,11.2500012 245.570313,11.394531 245.507812,11.4414062 C245.445312,11.4882815 245.277345,11.5117188 245.003906,11.5117188 L238.300781,11.5117188 C238.300781,13.1445394 238.542966,14.3437462 239.027344,15.109375 C239.699222,16.1796929 240.601557,16.7148438 241.734375,16.7148438 C241.890626,16.7148438 242.062499,16.6992189 242.25,16.6679688 C242.437501,16.6367186 242.722654,16.5527351 243.105469,16.4160156 C243.488283,16.2792962 243.847655,16.0273456 244.183594,15.6601562 C244.519533,15.2929669 244.785155,14.8203154 244.980469,14.2421875 C245.027344,14.0156239 245.128905,13.90625 245.285156,13.9140625 C245.496095,13.9140625 245.601562,14.0078116 245.601562,14.1953125 C245.601562,14.3359382 245.525391,14.5644515 245.373047,14.8808594 C245.220702,15.1972672 245.000001,15.5429669 244.710938,15.9179688 C244.421874,16.2929706 243.99805,16.6210923 243.439453,16.9023438 C242.880857,17.1835952 242.265628,17.3242188 241.59375,17.3242188 C240.187493,17.3242188 238.955083,16.791021 237.896484,15.7246094 C236.837885,14.6581978 236.308594,13.3398516 236.308594,11.7695312 Z M238.324219,11.0078125 L244.019531,11.0078125 C244.019531,10.6718733 243.990235,10.3164081 243.931641,9.94140625 C243.873047,9.56640438 243.759766,9.11914322 243.591797,8.59960938 C243.423827,8.08007553 243.144533,7.65625164 242.753906,7.328125 C242.363279,6.99999836 241.878909,6.8359375 241.300781,6.8359375 C241.042967,6.8359375 240.775392,6.89062445 240.498047,7 C240.220702,7.10937555 239.914064,7.29687367 239.578125,7.5625 C239.242186,7.82812633 238.957032,8.26171574 238.722656,8.86328125 C238.48828,9.46484676 238.355469,10.1796834 238.324219,11.0078125 Z M246.960938,17.0546875 L246.960938,16.3164062 C247.812504,16.3164062 248.33789,16.2636724 248.537109,16.1582031 C248.736329,16.0527338 248.835938,15.7421901 248.835938,15.2265625 L248.835938,8.79296875 C248.835938,8.19921578 248.732423,7.82812574 248.525391,7.6796875 C248.318358,7.53124926 247.796879,7.45703125 246.960938,7.45703125 L246.960938,6.70703125 L250.300781,6.44921875 L250.300781,9.0859375 C250.527345,8.39843406 250.880857,7.78711205 251.361328,7.25195312 C251.841799,6.7167942 252.472652,6.44921875 253.253906,6.44921875 C253.769534,6.44921875 254.193358,6.59374855 254.525391,6.8828125 C254.857424,7.17187645 255.023438,7.51562301 255.023438,7.9140625 C255.023438,8.26562676 254.916017,8.529296 254.701172,8.70507812 C254.486327,8.88086025 254.250001,8.96875 253.992188,8.96875 C253.703124,8.96875 253.458985,8.87695404 253.259766,8.69335938 C253.060546,8.50976471 252.960938,8.2578141 252.960938,7.9375 C252.960938,7.74218652 253.005859,7.56836014 253.095703,7.41601562 C253.185547,7.26367111 253.265625,7.16015652 253.335938,7.10546875 C253.40625,7.05078098 253.464844,7.01562508 253.511719,7 C253.480469,6.98437492 253.394532,6.9765625 253.253906,6.9765625 C252.371089,6.9765625 251.677737,7.41601123 251.173828,8.29492188 C250.669919,9.17383252 250.417969,10.238275 250.417969,11.4882812 L250.417969,15.1796875 C250.417969,15.6406273 250.513671,15.9453118 250.705078,16.09375 C250.896485,16.2421882 251.410152,16.3164062 252.246094,16.3164062 L252.75,16.3164062 L252.75,17.0546875 C252.109372,17.0078123 251.093757,16.984375 249.703125,16.984375 C249.507812,16.984375 249.257814,16.9882812 248.953125,16.9960938 C248.648436,17.0039063 248.296877,17.0156249 247.898438,17.03125 C247.499998,17.0468751 247.187501,17.0546875 246.960938,17.0546875 Z M256.675781,14.7695312 C256.675781,13.4101495 257.476554,12.3710973 259.078125,11.6523438 C260.039067,11.1914039 261.511709,10.9023443 263.496094,10.7851562 L263.496094,9.90625 C263.496094,8.91405754 263.236331,8.15429951 262.716797,7.62695312 C262.197263,7.09960674 261.609378,6.8359375 260.953125,6.8359375 C259.781244,6.8359375 258.914065,7.20312133 258.351562,7.9375 C258.828127,7.95312508 259.152343,8.08007693 259.324219,8.31835938 C259.496095,8.55664182 259.582031,8.79687379 259.582031,9.0390625 C259.582031,9.3593766 259.482423,9.62304584 259.283203,9.83007812 C259.083983,10.0371104 258.816408,10.140625 258.480469,10.140625 C258.160155,10.140625 257.894532,10.0410166 257.683594,9.84179688 C257.472655,9.64257713 257.367188,9.36718926 257.367188,9.015625 C257.367188,8.23437109 257.7207,7.58594008 258.427734,7.0703125 C259.134769,6.55468492 259.992182,6.296875 261,6.296875 C262.312507,6.296875 263.406246,6.73827684 264.28125,7.62109375 C264.554689,7.89453262 264.759765,8.20702949 264.896484,8.55859375 C265.033204,8.91015801 265.109375,9.20117072 265.125,9.43164062 C265.140625,9.66211053 265.148438,10.003904 265.148438,10.4570312 L265.148438,15.25 C265.148438,15.3437505 265.164062,15.4687492 265.195312,15.625 C265.226563,15.7812508 265.314452,15.9589834 265.458984,16.1582031 C265.603516,16.3574229 265.796874,16.4570312 266.039062,16.4570312 C266.61719,16.4570312 266.902344,15.9453176 266.894531,14.921875 L266.894531,13.5742188 L267.503906,13.5742188 L267.503906,14.921875 C267.503906,15.7734418 267.279299,16.3652327 266.830078,16.6972656 C266.380857,17.0292985 265.949221,17.1953125 265.535156,17.1953125 C265.003904,17.1953125 264.570314,17.000002 264.234375,16.609375 C263.898436,16.218748 263.707031,15.7578152 263.660156,15.2265625 C263.417968,15.8359405 263.021487,16.3378887 262.470703,16.7324219 C261.919919,17.1269551 261.269535,17.3242188 260.519531,17.3242188 C259.941403,17.3242188 259.380862,17.2519538 258.837891,17.1074219 C258.294919,16.9628899 257.79883,16.6894551 257.349609,16.2871094 C256.900388,15.8847636 256.675781,15.3789093 256.675781,14.7695312 Z M258.527344,14.7460938 C258.527344,15.3398467 258.738279,15.8281231 259.160156,16.2109375 C259.582033,16.5937519 260.089841,16.7851562 260.683594,16.7851562 C261.355472,16.7851562 261.992184,16.5253932 262.59375,16.0058594 C263.195316,15.4863255 263.496094,14.7148489 263.496094,13.6914062 L263.496094,11.2890625 C261.722647,11.3515628 260.451176,11.7363246 259.681641,12.4433594 C258.912106,13.1503942 258.527344,13.9179646 258.527344,14.7460938 Z M268.125,7.45703125 L268.125,6.9296875 C268.859379,6.89843734 269.470701,6.62304947 269.958984,6.10351562 C270.447268,5.58398178 270.77539,5.00390945 270.943359,4.36328125 C271.111329,3.72265305 271.203125,3.03125371 271.21875,2.2890625 L271.816406,2.2890625 L271.816406,6.70703125 L275.25,6.70703125 L275.25,7.45703125 L271.816406,7.45703125 L271.816406,14.125 C271.816406,15.8515711 272.355463,16.7148438 273.433594,16.7148438 C273.894534,16.7148438 274.277342,16.478518 274.582031,16.0058594 C274.88672,15.5332008 275.039062,14.8750042 275.039062,14.03125 L275.039062,12.7070312 L275.636719,12.7070312 L275.636719,14.078125 C275.636719,14.9453168 275.437502,15.7031218 275.039062,16.3515625 C274.640623,17.0000032 274.046879,17.3242188 273.257812,17.3242188 C272.968749,17.3242188 272.681642,17.2871097 272.396484,17.2128906 C272.111327,17.1386715 271.783205,17.0058603 271.412109,16.8144531 C271.041014,16.6230459 270.740236,16.291018 270.509766,15.8183594 C270.279296,15.3457008 270.164062,14.7656284 270.164062,14.078125 L270.164062,7.45703125 L268.125,7.45703125 Z M279.222656,15.765625 C278.167963,14.7187448 277.640625,13.4355545 277.640625,11.9160156 C277.640625,10.3964768 278.158198,9.08008369 279.193359,7.96679688 C280.228521,6.85351006 281.488274,6.296875 282.972656,6.296875 C284.425789,6.296875 285.673823,6.84960385 286.716797,7.95507812 C287.759771,9.0605524 288.28125,10.3828048 288.28125,11.921875 C288.28125,13.429695 287.755865,14.707026 286.705078,15.7539062 C285.654292,16.8007865 284.402351,17.3242188 282.949219,17.3242188 C281.527337,17.3242188 280.285162,16.8046927 279.222656,15.765625 Z M279.632812,11.7226562 C279.632812,13.2773515 279.835935,14.4062465 280.242188,15.109375 C280.867191,16.1796929 281.777338,16.7148438 282.972656,16.7148438 C283.566409,16.7148438 284.111326,16.5546891 284.607422,16.234375 C285.103518,15.9140609 285.48828,15.4843777 285.761719,14.9453125 C286.113283,14.242184 286.289062,13.167976 286.289062,11.7226562 C286.289062,10.1835861 286.078127,9.07422215 285.65625,8.39453125 C285.031247,7.35546355 284.128912,6.8359375 282.949219,6.8359375 C282.433591,6.8359375 281.923831,6.97070178 281.419922,7.24023438 C280.916013,7.50976697 280.51172,7.91015359 280.207031,8.44140625 C279.824217,9.14453477 279.632812,10.2382738 279.632812,11.7226562 Z M289.640625,17.0546875 L289.640625,16.3164062 C290.492192,16.3164062 291.017577,16.2636724 291.216797,16.1582031 C291.416017,16.0527338 291.515625,15.7421901 291.515625,15.2265625 L291.515625,8.79296875 C291.515625,8.19921578 291.41211,7.82812574 291.205078,7.6796875 C290.998046,7.53124926 290.476567,7.45703125 289.640625,7.45703125 L289.640625,6.70703125 L292.980469,6.44921875 L292.980469,9.0859375 C293.207032,8.39843406 293.560544,7.78711205 294.041016,7.25195312 C294.521487,6.7167942 295.15234,6.44921875 295.933594,6.44921875 C296.449221,6.44921875 296.873045,6.59374855 297.205078,6.8828125 C297.537111,7.17187645 297.703125,7.51562301 297.703125,7.9140625 C297.703125,8.26562676 297.595704,8.529296 297.380859,8.70507812 C297.166015,8.88086025 296.929689,8.96875 296.671875,8.96875 C296.382811,8.96875 296.138673,8.87695404 295.939453,8.69335938 C295.740233,8.50976471 295.640625,8.2578141 295.640625,7.9375 C295.640625,7.74218652 295.685546,7.56836014 295.775391,7.41601562 C295.865235,7.26367111 295.945312,7.16015652 296.015625,7.10546875 C296.085938,7.05078098 296.144531,7.01562508 296.191406,7 C296.160156,6.98437492 296.074219,6.9765625 295.933594,6.9765625 C295.050777,6.9765625 294.357424,7.41601123 293.853516,8.29492188 C293.349607,9.17383252 293.097656,10.238275 293.097656,11.4882812 L293.097656,15.1796875 C293.097656,15.6406273 293.193358,15.9453118 293.384766,16.09375 C293.576173,16.2421882 294.08984,16.3164062 294.925781,16.3164062 L295.429688,16.3164062 L295.429688,17.0546875 C294.789059,17.0078123 293.773444,16.984375 292.382812,16.984375 C292.187499,16.984375 291.937502,16.9882812 291.632812,16.9960938 C291.328123,17.0039063 290.976564,17.0156249 290.578125,17.03125 C290.179686,17.0468751 289.867189,17.0546875 289.640625,17.0546875 Z M307.125,7.45703125 L307.125,6.70703125 L309.011719,6.70703125 L309.011719,3.953125 C309.011719,2.76561906 309.396481,1.83203465 310.166016,1.15234375 C310.935551,0.472652852 311.792964,0.1328125 312.738281,0.1328125 C313.363284,0.1328125 313.878904,0.30077957 314.285156,0.63671875 C314.691408,0.97265793 314.894531,1.36718523 314.894531,1.8203125 C314.894531,2.12500152 314.802735,2.37695213 314.619141,2.57617188 C314.435546,2.77539162 314.175783,2.875 313.839844,2.875 C313.51953,2.875 313.267579,2.77343852 313.083984,2.5703125 C312.90039,2.36718648 312.808594,2.12500141 312.808594,1.84375 C312.808594,1.32812242 313.046873,0.992188281 313.523438,0.8359375 C313.281249,0.726561953 313.019533,0.667968789 312.738281,0.66015625 C312.160153,0.66015625 311.646487,0.957028281 311.197266,1.55078125 C310.748045,2.14453422 310.523438,2.93749504 310.523438,3.9296875 L310.523438,6.70703125 L313.335938,6.70703125 L313.335938,7.45703125 L310.605469,7.45703125 L310.605469,15.1796875 C310.605469,15.6406273 310.701171,15.9453118 310.892578,16.09375 C311.083985,16.2421882 311.593746,16.3164062 312.421875,16.3164062 L312.925781,16.3164062 L312.925781,17.0546875 C312.285153,17.0078123 311.269538,16.984375 309.878906,16.984375 C309.683593,16.984375 309.435548,16.9882812 309.134766,16.9960938 C308.833983,17.0039063 308.482424,17.0156249 308.080078,17.03125 C307.677732,17.0468751 307.367189,17.0546875 307.148438,17.0546875 L307.148438,16.3164062 C308.000004,16.3164062 308.523437,16.2636724 308.71875,16.1582031 C308.914063,16.0527338 309.011719,15.7421901 309.011719,15.2265625 L309.011719,7.45703125 L307.125,7.45703125 Z M315.890625,15.765625 C314.835932,14.7187448 314.308594,13.4355545 314.308594,11.9160156 C314.308594,10.3964768 314.826167,9.08008369 315.861328,7.96679688 C316.89649,6.85351006 318.156243,6.296875 319.640625,6.296875 C321.093757,6.296875 322.341792,6.84960385 323.384766,7.95507812 C324.42774,9.0605524 324.949219,10.3828048 324.949219,11.921875 C324.949219,13.429695 324.423833,14.707026 323.373047,15.7539062 C322.32226,16.8007865 321.07032,17.3242188 319.617188,17.3242188 C318.195305,17.3242188 316.95313,16.8046927 315.890625,15.765625 Z M316.300781,11.7226562 C316.300781,13.2773515 316.503904,14.4062465 316.910156,15.109375 C317.535159,16.1796929 318.445307,16.7148438 319.640625,16.7148438 C320.234378,16.7148438 320.779294,16.5546891 321.275391,16.234375 C321.771487,15.9140609 322.156249,15.4843777 322.429688,14.9453125 C322.781252,14.242184 322.957031,13.167976 322.957031,11.7226562 C322.957031,10.1835861 322.746096,9.07422215 322.324219,8.39453125 C321.699216,7.35546355 320.796881,6.8359375 319.617188,6.8359375 C319.10156,6.8359375 318.591799,6.97070178 318.087891,7.24023438 C317.583982,7.50976697 317.179689,7.91015359 316.875,8.44140625 C316.492186,9.14453477 316.300781,10.2382738 316.300781,11.7226562 Z M326.308594,17.0546875 L326.308594,16.3164062 C327.160161,16.3164062 327.685546,16.2636724 327.884766,16.1582031 C328.083985,16.0527338 328.183594,15.7421901 328.183594,15.2265625 L328.183594,8.79296875 C328.183594,8.19921578 328.080079,7.82812574 327.873047,7.6796875 C327.666015,7.53124926 327.144535,7.45703125 326.308594,7.45703125 L326.308594,6.70703125 L329.648438,6.44921875 L329.648438,9.0859375 C329.875001,8.39843406 330.228513,7.78711205 330.708984,7.25195312 C331.189456,6.7167942 331.820309,6.44921875 332.601562,6.44921875 C333.11719,6.44921875 333.541014,6.59374855 333.873047,6.8828125 C334.20508,7.17187645 334.371094,7.51562301 334.371094,7.9140625 C334.371094,8.26562676 334.263673,8.529296 334.048828,8.70507812 C333.833983,8.88086025 333.597658,8.96875 333.339844,8.96875 C333.05078,8.96875 332.806642,8.87695404 332.607422,8.69335938 C332.408202,8.50976471 332.308594,8.2578141 332.308594,7.9375 C332.308594,7.74218652 332.353515,7.56836014 332.443359,7.41601562 C332.533204,7.26367111 332.613281,7.16015652 332.683594,7.10546875 C332.753907,7.05078098 332.8125,7.01562508 332.859375,7 C332.828125,6.98437492 332.742188,6.9765625 332.601562,6.9765625 C331.718746,6.9765625 331.025393,7.41601123 330.521484,8.29492188 C330.017576,9.17383252 329.765625,10.238275 329.765625,11.4882812 L329.765625,15.1796875 C329.765625,15.6406273 329.861327,15.9453118 330.052734,16.09375 C330.244142,16.2421882 330.757808,16.3164062 331.59375,16.3164062 L332.097656,16.3164062 L332.097656,17.0546875 C331.457028,17.0078123 330.441413,16.984375 329.050781,16.984375 C328.855468,16.984375 328.60547,16.9882812 328.300781,16.9960938 C327.996092,17.0039063 327.644533,17.0156249 327.246094,17.03125 C326.847654,17.0468751 326.535157,17.0546875 326.308594,17.0546875 Z M343.792969,16.7382812 L343.792969,13.5742188 C343.792969,13.3945304 343.796875,13.2734378 343.804688,13.2109375 C343.8125,13.1484372 343.839844,13.0937502 343.886719,13.046875 C343.933594,12.9999998 344.003906,12.9765625 344.097656,12.9765625 C344.207032,12.9765625 344.283203,12.9999998 344.326172,13.046875 C344.369141,13.0937502 344.40625,13.2070304 344.4375,13.3867188 C344.679689,14.4882868 345.060544,15.3300752 345.580078,15.9121094 C346.099612,16.4941435 346.832027,16.7851562 347.777344,16.7851562 C348.675786,16.7851562 349.35156,16.5859395 349.804688,16.1875 C350.257815,15.7890605 350.484375,15.261722 350.484375,14.6054688 C350.484375,13.4335879 349.652352,12.6992202 347.988281,12.4023438 C347.027339,12.2070303 346.347658,12.0449225 345.949219,11.9160156 C345.550779,11.7871087 345.175783,11.5781264 344.824219,11.2890625 C344.136715,10.7265597 343.792969,10.046879 343.792969,9.25 C343.792969,8.45312102 344.0957,7.76172168 344.701172,7.17578125 C345.306644,6.58984082 346.281243,6.296875 347.625,6.296875 C348.523442,6.296875 349.277341,6.52343523 349.886719,6.9765625 C350.066407,6.8359368 350.203125,6.70703184 350.296875,6.58984375 C350.507814,6.39453027 350.667968,6.296875 350.777344,6.296875 C350.902344,6.296875 350.976562,6.33789021 351,6.41992188 C351.023438,6.50195354 351.035156,6.65624887 351.035156,6.8828125 L351.035156,9.296875 C351.035156,9.4765634 351.03125,9.59765594 351.023438,9.66015625 C351.015625,9.72265656 350.988281,9.77539041 350.941406,9.81835938 C350.894531,9.86132834 350.820313,9.8828125 350.71875,9.8828125 C350.539062,9.8828125 350.445313,9.80859449 350.4375,9.66015625 C350.312499,7.72264656 349.375009,6.75390625 347.625,6.75390625 C346.679683,6.75390625 345.996096,6.93554506 345.574219,7.29882812 C345.152342,7.66211119 344.941406,8.08984129 344.941406,8.58203125 C344.941406,8.85547012 345.005859,9.09570209 345.134766,9.30273438 C345.263673,9.50976666 345.412109,9.67382752 345.580078,9.79492188 C345.748048,9.91601623 345.98828,10.0332026 346.300781,10.1464844 C346.613283,10.2597662 346.865233,10.3359373 347.056641,10.375 C347.248048,10.4140627 347.527342,10.4726559 347.894531,10.5507812 C349.175788,10.79297 350.085935,11.1757786 350.625,11.6992188 C351.296878,12.3710971 351.632812,13.1328082 351.632812,13.984375 C351.632812,14.9296922 351.312503,15.722653 350.671875,16.3632812 C350.031247,17.0039095 349.066413,17.3242188 347.777344,17.3242188 C346.738276,17.3242188 345.855472,16.976566 345.128906,16.28125 C345.035156,16.3750005 344.953125,16.4628902 344.882812,16.5449219 C344.8125,16.6269535 344.763672,16.6835936 344.736328,16.7148438 C344.708984,16.7460939 344.691406,16.7714843 344.683594,16.7910156 C344.675781,16.810547 344.664063,16.8281249 344.648438,16.84375 C344.328123,17.1640641 344.128907,17.3242188 344.050781,17.3242188 C343.925781,17.3242188 343.851563,17.2832035 343.828125,17.2011719 C343.804687,17.1191402 343.792969,16.9648449 343.792969,16.7382812 Z M353.109375,11.7695312 C353.109375,10.2617112 353.593745,8.9726616 354.5625,7.90234375 C355.531255,6.8320259 356.710931,6.296875 358.101562,6.296875 C359.50782,6.296875 360.576168,6.75390168 361.306641,7.66796875 C362.037113,8.58203582 362.402344,9.69530594 362.402344,11.0078125 C362.402344,11.2500012 362.371094,11.394531 362.308594,11.4414062 C362.246093,11.4882815 362.078126,11.5117188 361.804688,11.5117188 L355.101562,11.5117188 C355.101562,13.1445394 355.343748,14.3437462 355.828125,15.109375 C356.500003,16.1796929 357.402338,16.7148438 358.535156,16.7148438 C358.691407,16.7148438 358.86328,16.6992189 359.050781,16.6679688 C359.238282,16.6367186 359.523436,16.5527351 359.90625,16.4160156 C360.289064,16.2792962 360.648436,16.0273456 360.984375,15.6601562 C361.320314,15.2929669 361.585937,14.8203154 361.78125,14.2421875 C361.828125,14.0156239 361.929687,13.90625 362.085938,13.9140625 C362.296876,13.9140625 362.402344,14.0078116 362.402344,14.1953125 C362.402344,14.3359382 362.326173,14.5644515 362.173828,14.8808594 C362.021484,15.1972672 361.800783,15.5429669 361.511719,15.9179688 C361.222655,16.2929706 360.798831,16.6210923 360.240234,16.9023438 C359.681638,17.1835952 359.06641,17.3242188 358.394531,17.3242188 C356.988274,17.3242188 355.755865,16.791021 354.697266,15.7246094 C353.638667,14.6581978 353.109375,13.3398516 353.109375,11.7695312 Z M355.125,11.0078125 L360.820312,11.0078125 C360.820312,10.6718733 360.791016,10.3164081 360.732422,9.94140625 C360.673828,9.56640438 360.560548,9.11914322 360.392578,8.59960938 C360.224609,8.08007553 359.945314,7.65625164 359.554688,7.328125 C359.164061,6.99999836 358.67969,6.8359375 358.101562,6.8359375 C357.843749,6.8359375 357.576173,6.89062445 357.298828,7 C357.021483,7.10937555 356.714845,7.29687367 356.378906,7.5625 C356.042967,7.82812633 355.757814,8.26171574 355.523438,8.86328125 C355.289061,9.46484676 355.15625,10.1796834 355.125,11.0078125 Z M363.761719,17.0546875 L363.761719,16.3164062 C364.613286,16.3164062 365.138671,16.2636724 365.337891,16.1582031 C365.53711,16.0527338 365.636719,15.7421901 365.636719,15.2265625 L365.636719,8.79296875 C365.636719,8.19921578 365.533204,7.82812574 365.326172,7.6796875 C365.11914,7.53124926 364.59766,7.45703125 363.761719,7.45703125 L363.761719,6.70703125 L367.101562,6.44921875 L367.101562,9.0859375 C367.328126,8.39843406 367.681638,7.78711205 368.162109,7.25195312 C368.642581,6.7167942 369.273434,6.44921875 370.054688,6.44921875 C370.570315,6.44921875 370.994139,6.59374855 371.326172,6.8828125 C371.658205,7.17187645 371.824219,7.51562301 371.824219,7.9140625 C371.824219,8.26562676 371.716798,8.529296 371.501953,8.70507812 C371.287108,8.88086025 371.050783,8.96875 370.792969,8.96875 C370.503905,8.96875 370.259767,8.87695404 370.060547,8.69335938 C369.861327,8.50976471 369.761719,8.2578141 369.761719,7.9375 C369.761719,7.74218652 369.80664,7.56836014 369.896484,7.41601562 C369.986329,7.26367111 370.066406,7.16015652 370.136719,7.10546875 C370.207032,7.05078098 370.265625,7.01562508 370.3125,7 C370.28125,6.98437492 370.195313,6.9765625 370.054688,6.9765625 C369.171871,6.9765625 368.478518,7.41601123 367.974609,8.29492188 C367.470701,9.17383252 367.21875,10.238275 367.21875,11.4882812 L367.21875,15.1796875 C367.21875,15.6406273 367.314452,15.9453118 367.505859,16.09375 C367.697267,16.2421882 368.210933,16.3164062 369.046875,16.3164062 L369.550781,16.3164062 L369.550781,17.0546875 C368.910153,17.0078123 367.894538,16.984375 366.503906,16.984375 C366.308593,16.984375 366.058595,16.9882812 365.753906,16.9960938 C365.449217,17.0039063 365.097658,17.0156249 364.699219,17.03125 C364.300779,17.0468751 363.988282,17.0546875 363.761719,17.0546875 Z M373.265625,17.0546875 L373.265625,16.3164062 C374.117192,16.3164062 374.640624,16.2636724 374.835938,16.1582031 C375.031251,16.0527338 375.128906,15.7421901 375.128906,15.2265625 L375.128906,8.76953125 C375.128906,8.17577828 375.029298,7.80859445 374.830078,7.66796875 C374.630858,7.52734305 374.140629,7.45703125 373.359375,7.45703125 L373.359375,6.70703125 L376.710938,6.44921875 L376.710938,15.25 C376.710938,15.7265649 376.796874,16.0234369 376.96875,16.140625 C377.140626,16.2578131 377.617184,16.3164062 378.398438,16.3164062 L378.398438,17.0546875 C376.765617,17.0078123 375.933594,16.984375 375.902344,16.984375 C375.683593,16.984375 374.804695,17.0078123 373.265625,17.0546875 Z M374.273438,2.265625 C374.273438,1.9453109 374.396483,1.65429818 374.642578,1.39257812 C374.888673,1.13085807 375.187498,1 375.539062,1 C375.890627,1 376.191405,1.11913943 376.441406,1.35742188 C376.691407,1.59570432 376.816406,1.90038877 376.816406,2.27148438 C376.816406,2.64257998 376.691407,2.94726443 376.441406,3.18554688 C376.191405,3.42382932 375.890627,3.54296875 375.539062,3.54296875 C375.171873,3.54296875 374.869142,3.41406379 374.630859,3.15625 C374.392577,2.89843621 374.273438,2.60156418 374.273438,2.265625 Z M381.363281,15.765625 C380.308588,14.7187448 379.78125,13.4355545 379.78125,11.9160156 C379.78125,10.3964768 380.298823,9.08008369 381.333984,7.96679688 C382.369146,6.85351006 383.628899,6.296875 385.113281,6.296875 C386.566414,6.296875 387.814448,6.84960385 388.857422,7.95507812 C389.900396,9.0605524 390.421875,10.3828048 390.421875,11.921875 C390.421875,13.429695 389.89649,14.707026 388.845703,15.7539062 C387.794917,16.8007865 386.542976,17.3242188 385.089844,17.3242188 C383.667962,17.3242188 382.425787,16.8046927 381.363281,15.765625 Z M381.773438,11.7226562 C381.773438,13.2773515 381.97656,14.4062465 382.382812,15.109375 C383.007816,16.1796929 383.917963,16.7148438 385.113281,16.7148438 C385.707034,16.7148438 386.251951,16.5546891 386.748047,16.234375 C387.244143,15.9140609 387.628905,15.4843777 387.902344,14.9453125 C388.253908,14.242184 388.429688,13.167976 388.429688,11.7226562 C388.429688,10.1835861 388.218752,9.07422215 387.796875,8.39453125 C387.171872,7.35546355 386.269537,6.8359375 385.089844,6.8359375 C384.574216,6.8359375 384.064456,6.97070178 383.560547,7.24023438 C383.056638,7.50976697 382.652345,7.91015359 382.347656,8.44140625 C381.964842,9.14453477 381.773438,10.2382738 381.773438,11.7226562 Z M391.886719,7.45703125 L391.886719,6.70703125 L395.414062,6.44921875 L395.414062,14.4179688 C395.414062,14.8007832 395.429687,15.1035145 395.460938,15.3261719 C395.492188,15.5488292 395.572265,15.7890612 395.701172,16.046875 C395.830079,16.3046888 396.04492,16.4921869 396.345703,16.609375 C396.646486,16.7265631 397.03906,16.7851562 397.523438,16.7851562 C398.390629,16.7851562 399.091794,16.4296911 399.626953,15.71875 C400.162112,15.0078089 400.429688,14.1250053 400.429688,13.0703125 L400.429688,8.79296875 C400.429688,8.19921578 400.32422,7.82812574 400.113281,7.6796875 C399.902343,7.53124926 399.382817,7.45703125 398.554688,7.45703125 L398.554688,6.70703125 L402.082031,6.44921875 L402.082031,14.96875 C402.082031,15.562503 402.185546,15.9355461 402.392578,16.0878906 C402.59961,16.2402351 403.12109,16.3164062 403.957031,16.3164062 L403.957031,17.0546875 L400.5,17.3242188 L400.5,15.15625 C399.828122,16.5937572 398.796882,17.3164062 397.40625,17.3242188 C396.703121,17.3242188 396.111331,17.2343759 395.630859,17.0546875 C395.150388,16.8749991 394.789064,16.6738292 394.546875,16.4511719 C394.304686,16.2285145 394.119141,15.9023459 393.990234,15.4726562 C393.861327,15.0429666 393.789063,14.6953138 393.773438,14.4296875 C393.757812,14.1640612 393.75,13.7734401 393.75,13.2578125 L393.75,9.66015625 C393.75,8.57421332 393.671876,7.93554783 393.515625,7.74414062 C393.359374,7.55273342 392.816411,7.45703125 391.886719,7.45703125 Z M405.222656,16.7382812 L405.222656,13.5742188 C405.222656,13.3945304 405.226562,13.2734378 405.234375,13.2109375 C405.242188,13.1484372 405.269531,13.0937502 405.316406,13.046875 C405.363281,12.9999998 405.433593,12.9765625 405.527344,12.9765625 C405.636719,12.9765625 405.71289,12.9999998 405.755859,13.046875 C405.798828,13.0937502 405.835937,13.2070304 405.867188,13.3867188 C406.109376,14.4882868 406.490232,15.3300752 407.009766,15.9121094 C407.529299,16.4941435 408.261714,16.7851562 409.207031,16.7851562 C410.105473,16.7851562 410.781248,16.5859395 411.234375,16.1875 C411.687502,15.7890605 411.914062,15.261722 411.914062,14.6054688 C411.914062,13.4335879 411.08204,12.6992202 409.417969,12.4023438 C408.457026,12.2070303 407.777346,12.0449225 407.378906,11.9160156 C406.980467,11.7871087 406.605471,11.5781264 406.253906,11.2890625 C405.566403,10.7265597 405.222656,10.046879 405.222656,9.25 C405.222656,8.45312102 405.525388,7.76172168 406.130859,7.17578125 C406.736331,6.58984082 407.710931,6.296875 409.054688,6.296875 C409.953129,6.296875 410.707028,6.52343523 411.316406,6.9765625 C411.496095,6.8359368 411.632812,6.70703184 411.726562,6.58984375 C411.937501,6.39453027 412.097656,6.296875 412.207031,6.296875 C412.332032,6.296875 412.40625,6.33789021 412.429688,6.41992188 C412.453125,6.50195354 412.464844,6.65624887 412.464844,6.8828125 L412.464844,9.296875 C412.464844,9.4765634 412.460938,9.59765594 412.453125,9.66015625 C412.445312,9.72265656 412.417969,9.77539041 412.371094,9.81835938 C412.324219,9.86132834 412.250001,9.8828125 412.148438,9.8828125 C411.968749,9.8828125 411.875,9.80859449 411.867188,9.66015625 C411.742187,7.72264656 410.804696,6.75390625 409.054688,6.75390625 C408.10937,6.75390625 407.425783,6.93554506 407.003906,7.29882812 C406.582029,7.66211119 406.371094,8.08984129 406.371094,8.58203125 C406.371094,8.85547012 406.435546,9.09570209 406.564453,9.30273438 C406.69336,9.50976666 406.841796,9.67382752 407.009766,9.79492188 C407.177735,9.91601623 407.417967,10.0332026 407.730469,10.1464844 C408.04297,10.2597662 408.294921,10.3359373 408.486328,10.375 C408.677735,10.4140627 408.957029,10.4726559 409.324219,10.5507812 C410.605475,10.79297 411.515622,11.1757786 412.054688,11.6992188 C412.726566,12.3710971 413.0625,13.1328082 413.0625,13.984375 C413.0625,14.9296922 412.742191,15.722653 412.101562,16.3632812 C411.460934,17.0039095 410.4961,17.3242188 409.207031,17.3242188 C408.167964,17.3242188 407.28516,16.976566 406.558594,16.28125 C406.464843,16.3750005 406.382813,16.4628902 406.3125,16.5449219 C406.242187,16.6269535 406.19336,16.6835936 406.166016,16.7148438 C406.138672,16.7460939 406.121094,16.7714843 406.113281,16.7910156 C406.105469,16.810547 406.09375,16.8281249 406.078125,16.84375 C405.757811,17.1640641 405.558594,17.3242188 405.480469,17.3242188 C405.355468,17.3242188 405.28125,17.2832035 405.257812,17.2011719 C405.234375,17.1191402 405.222656,16.9648449 405.222656,16.7382812 Z M422.519531,20.96875 C423.371098,20.96875 423.896483,20.9160162 424.095703,20.8105469 C424.294923,20.7050776 424.394531,20.39844 424.394531,19.890625 L424.394531,8.65234375 C424.394531,8.12109109 424.294923,7.78906316 424.095703,7.65625 C423.896483,7.52343684 423.371098,7.45703125 422.519531,7.45703125 L422.519531,6.70703125 L425.976562,6.44921875 L425.976562,8.03125 C426.937505,6.97655723 428.058587,6.44921875 429.339844,6.44921875 C430.699226,6.44921875 431.874995,6.97655723 432.867188,8.03125 C433.85938,9.08594277 434.355469,10.36718 434.355469,11.875 C434.355469,13.3984451 433.82813,14.6874947 432.773438,15.7421875 C431.718745,16.7968803 430.460945,17.3242188 429,17.3242188 C428.203121,17.3242188 427.537112,17.1191427 427.001953,16.7089844 C426.466794,16.2988261 426.148438,15.9414078 426.046875,15.6367188 L426.046875,19.890625 C426.046875,20.4062526 426.148436,20.7148432 426.351562,20.8164062 C426.554689,20.9179693 427.078121,20.96875 427.921875,20.96875 L427.921875,21.7070312 C426.242179,21.660156 425.339844,21.6367188 425.214844,21.6367188 C425.058593,21.6367188 424.160164,21.660156 422.519531,21.7070312 L422.519531,20.96875 Z M426.046875,14.3242188 C426.046875,14.5664075 426.064453,14.7304683 426.099609,14.8164062 C426.134766,14.9023442 426.230468,15.0742175 426.386719,15.3320312 C427.019534,16.3007861 427.851557,16.7851562 428.882812,16.7851562 L428.90625,16.7851562 C429.820317,16.7851562 430.624997,16.318364 431.320312,15.3847656 C432.015628,14.4511672 432.363281,13.281257 432.363281,11.875 C432.363281,10.5312433 432.046878,9.39062969 431.414062,8.453125 C430.781247,7.51562031 430.027348,7.046875 429.152344,7.046875 C428.527341,7.046875 427.941409,7.21484207 427.394531,7.55078125 C426.847654,7.88672043 426.398439,8.35937195 426.046875,8.96875 L426.046875,14.3242188 Z M436.5,11.7695312 C436.5,10.2617112 436.98437,8.9726616 437.953125,7.90234375 C438.92188,6.8320259 440.101556,6.296875 441.492188,6.296875 C442.898445,6.296875 443.966793,6.75390168 444.697266,7.66796875 C445.427738,8.58203582 445.792969,9.69530594 445.792969,11.0078125 C445.792969,11.2500012 445.761719,11.394531 445.699219,11.4414062 C445.636718,11.4882815 445.468751,11.5117188 445.195312,11.5117188 L438.492188,11.5117188 C438.492188,13.1445394 438.734373,14.3437462 439.21875,15.109375 C439.890628,16.1796929 440.792963,16.7148438 441.925781,16.7148438 C442.082032,16.7148438 442.253905,16.6992189 442.441406,16.6679688 C442.628907,16.6367186 442.914061,16.5527351 443.296875,16.4160156 C443.679689,16.2792962 444.039061,16.0273456 444.375,15.6601562 C444.710939,15.2929669 444.976562,14.8203154 445.171875,14.2421875 C445.21875,14.0156239 445.320312,13.90625 445.476562,13.9140625 C445.687501,13.9140625 445.792969,14.0078116 445.792969,14.1953125 C445.792969,14.3359382 445.716798,14.5644515 445.564453,14.8808594 C445.412109,15.1972672 445.191408,15.5429669 444.902344,15.9179688 C444.61328,16.2929706 444.189456,16.6210923 443.630859,16.9023438 C443.072263,17.1835952 442.457035,17.3242188 441.785156,17.3242188 C440.378899,17.3242188 439.14649,16.791021 438.087891,15.7246094 C437.029292,14.6581978 436.5,13.3398516 436.5,11.7695312 Z M438.515625,11.0078125 L444.210938,11.0078125 C444.210938,10.6718733 444.181641,10.3164081 444.123047,9.94140625 C444.064453,9.56640438 443.951173,9.11914322 443.783203,8.59960938 C443.615234,8.08007553 443.335939,7.65625164 442.945312,7.328125 C442.554686,6.99999836 442.070315,6.8359375 441.492188,6.8359375 C441.234374,6.8359375 440.966798,6.89062445 440.689453,7 C440.412108,7.10937555 440.10547,7.29687367 439.769531,7.5625 C439.433592,7.82812633 439.148439,8.26171574 438.914062,8.86328125 C438.679686,9.46484676 438.546875,10.1796834 438.515625,11.0078125 Z M448.734375,15.765625 C447.679682,14.7187448 447.152344,13.4355545 447.152344,11.9160156 C447.152344,10.3964768 447.669917,9.08008369 448.705078,7.96679688 C449.74024,6.85351006 450.999993,6.296875 452.484375,6.296875 C453.937507,6.296875 455.185542,6.84960385 456.228516,7.95507812 C457.27149,9.0605524 457.792969,10.3828048 457.792969,11.921875 C457.792969,13.429695 457.267583,14.707026 456.216797,15.7539062 C455.16601,16.8007865 453.91407,17.3242188 452.460938,17.3242188 C451.039055,17.3242188 449.79688,16.8046927 448.734375,15.765625 Z M449.144531,11.7226562 C449.144531,13.2773515 449.347654,14.4062465 449.753906,15.109375 C450.378909,16.1796929 451.289057,16.7148438 452.484375,16.7148438 C453.078128,16.7148438 453.623044,16.5546891 454.119141,16.234375 C454.615237,15.9140609 454.999999,15.4843777 455.273438,14.9453125 C455.625002,14.242184 455.800781,13.167976 455.800781,11.7226562 C455.800781,10.1835861 455.589846,9.07422215 455.167969,8.39453125 C454.542966,7.35546355 453.640631,6.8359375 452.460938,6.8359375 C451.94531,6.8359375 451.435549,6.97070178 450.931641,7.24023438 C450.427732,7.50976697 450.023439,7.91015359 449.71875,8.44140625 C449.335936,9.14453477 449.144531,10.2382738 449.144531,11.7226562 Z M459.152344,20.96875 C460.003911,20.96875 460.529296,20.9160162 460.728516,20.8105469 C460.927735,20.7050776 461.027344,20.39844 461.027344,19.890625 L461.027344,8.65234375 C461.027344,8.12109109 460.927735,7.78906316 460.728516,7.65625 C460.529296,7.52343684 460.003911,7.45703125 459.152344,7.45703125 L459.152344,6.70703125 L462.609375,6.44921875 L462.609375,8.03125 C463.570317,6.97655723 464.6914,6.44921875 465.972656,6.44921875 C467.332038,6.44921875 468.507808,6.97655723 469.5,8.03125 C470.492192,9.08594277 470.988281,10.36718 470.988281,11.875 C470.988281,13.3984451 470.460943,14.6874947 469.40625,15.7421875 C468.351557,16.7968803 467.093757,17.3242188 465.632812,17.3242188 C464.835934,17.3242188 464.169925,17.1191427 463.634766,16.7089844 C463.099607,16.2988261 462.781251,15.9414078 462.679688,15.6367188 L462.679688,19.890625 C462.679688,20.4062526 462.781249,20.7148432 462.984375,20.8164062 C463.187501,20.9179693 463.710933,20.96875 464.554688,20.96875 L464.554688,21.7070312 C462.874992,21.660156 461.972657,21.6367188 461.847656,21.6367188 C461.691405,21.6367188 460.792977,21.660156 459.152344,21.7070312 L459.152344,20.96875 Z M462.679688,14.3242188 C462.679688,14.5664075 462.697265,14.7304683 462.732422,14.8164062 C462.767578,14.9023442 462.86328,15.0742175 463.019531,15.3320312 C463.652347,16.3007861 464.48437,16.7851562 465.515625,16.7851562 L465.539062,16.7851562 C466.45313,16.7851562 467.257809,16.318364 467.953125,15.3847656 C468.648441,14.4511672 468.996094,13.281257 468.996094,11.875 C468.996094,10.5312433 468.679691,9.39062969 468.046875,8.453125 C467.414059,7.51562031 466.660161,7.046875 465.785156,7.046875 C465.160153,7.046875 464.574221,7.21484207 464.027344,7.55078125 C463.480466,7.88672043 463.031252,8.35937195 462.679688,8.96875 L462.679688,14.3242188 Z M472.59375,17.0546875 L472.59375,16.3164062 C473.445317,16.3164062 473.968749,16.2636724 474.164062,16.1582031 C474.359376,16.0527338 474.457031,15.7421901 474.457031,15.2265625 L474.457031,2.74609375 C474.457031,2.15234078 474.353517,1.78125074 474.146484,1.6328125 C473.939452,1.48437426 473.421879,1.41015625 472.59375,1.41015625 L472.59375,0.66015625 L476.039062,0.40234375 L476.039062,15.2265625 C476.039062,15.7421901 476.140624,16.0527338 476.34375,16.1582031 C476.546876,16.2636724 477.070308,16.3164062 477.914062,16.3164062 L477.914062,17.0546875 C477.718749,17.0546875 477.417971,17.0468751 477.011719,17.03125 C476.605467,17.0156249 476.253908,17.0039063 475.957031,16.9960938 C475.660155,16.9882812 475.425782,16.984375 475.253906,16.984375 C475.066405,16.984375 474.179695,17.0078123 472.59375,17.0546875 Z M479.109375,11.7695312 C479.109375,10.2617112 479.593745,8.9726616 480.5625,7.90234375 C481.531255,6.8320259 482.710931,6.296875 484.101562,6.296875 C485.50782,6.296875 486.576168,6.75390168 487.306641,7.66796875 C488.037113,8.58203582 488.402344,9.69530594 488.402344,11.0078125 C488.402344,11.2500012 488.371094,11.394531 488.308594,11.4414062 C488.246093,11.4882815 488.078126,11.5117188 487.804688,11.5117188 L481.101562,11.5117188 C481.101562,13.1445394 481.343748,14.3437462 481.828125,15.109375 C482.500003,16.1796929 483.402338,16.7148438 484.535156,16.7148438 C484.691407,16.7148438 484.86328,16.6992189 485.050781,16.6679688 C485.238282,16.6367186 485.523436,16.5527351 485.90625,16.4160156 C486.289064,16.2792962 486.648436,16.0273456 486.984375,15.6601562 C487.320314,15.2929669 487.585937,14.8203154 487.78125,14.2421875 C487.828125,14.0156239 487.929687,13.90625 488.085938,13.9140625 C488.296876,13.9140625 488.402344,14.0078116 488.402344,14.1953125 C488.402344,14.3359382 488.326173,14.5644515 488.173828,14.8808594 C488.021484,15.1972672 487.800783,15.5429669 487.511719,15.9179688 C487.222655,16.2929706 486.798831,16.6210923 486.240234,16.9023438 C485.681638,17.1835952 485.06641,17.3242188 484.394531,17.3242188 C482.988274,17.3242188 481.755865,16.791021 480.697266,15.7246094 C479.638667,14.6581978 479.109375,13.3398516 479.109375,11.7695312 Z M481.125,11.0078125 L486.820312,11.0078125 C486.820312,10.6718733 486.791016,10.3164081 486.732422,9.94140625 C486.673828,9.56640438 486.560548,9.11914322 486.392578,8.59960938 C486.224609,8.08007553 485.945314,7.65625164 485.554688,7.328125 C485.164061,6.99999836 484.67969,6.8359375 484.101562,6.8359375 C483.843749,6.8359375 483.576173,6.89062445 483.298828,7 C483.021483,7.10937555 482.714845,7.29687367 482.378906,7.5625 C482.042967,7.82812633 481.757814,8.26171574 481.523438,8.86328125 C481.289061,9.46484676 481.15625,10.1796834 481.125,11.0078125 Z" id="The-fun-static-site" fill="#000000"></path>
    </g>
</svg>