<?xml version="1.0" encoding="UTF-8"?>
<svg width="389px" height="34px" viewBox="0 0 389 34" version="1.1" xmlns="http://www.w3.org/2000/svg" xmlns:xlink="http://www.w3.org/1999/xlink">
    <!-- Generator: Sketch 51.3 (57544) - http://www.bohemiancoding.com/sketch -->
    <title>zero-config</title>
    <desc>Created with Sketch.</desc>
    <defs></defs>
    <g id="Page-1" stroke="none" stroke-width="1" fill="none" fill-rule="evenodd">
        <path d="M0,24.7675781 C0,24.5566396 0.0820304297,24.3164076 0.24609375,24.046875 L14.2558594,1.91601562 L8.59570312,1.91601562 C7.15428967,1.91601562 5.95898912,2.07714683 5.00976562,2.39941406 C4.06054213,2.7216813 3.33398689,3.22558251 2.83007812,3.91113281 C2.32616936,4.59668312 1.97461037,5.31737903 1.77539062,6.07324219 C1.57617088,6.82910534 1.4414066,7.76952562 1.37109375,8.89453125 L0.45703125,8.89453125 L0.861328125,0.791015625 L17.4287109,0.791015625 C17.516602,0.791015625 17.6074214,0.814452891 17.7011719,0.861328125 C17.7949223,0.908203359 17.8564452,0.969726182 17.8857422,1.04589844 C17.9150392,1.12207069 17.9296875,1.23046805 17.9296875,1.37109375 C17.9296875,1.55859469 17.8417978,1.78710803 17.6660156,2.05664062 L3.70898438,24.1523438 L9.61523438,24.1523438 C10.9160221,24.1523438 12.0205033,24.0146498 12.9287109,23.7392578 C13.8369186,23.4638658 14.5546849,23.1123068 15.0820312,22.6845703 C15.6093776,22.2568338 16.0283188,21.6503946 16.3388672,20.8652344 C16.6494156,20.0800742 16.860351,19.3212927 16.9716797,18.5888672 C17.0830084,17.8564417 17.1738278,16.9160214 17.2441406,15.7675781 L18.140625,15.7675781 L17.5253906,25.3828125 L0.931640625,25.3828125 C0.521482324,25.3828125 0.263672402,25.3535159 0.158203125,25.2949219 C0.0527338477,25.2363278 0,25.0605483 0,24.7675781 Z M20.9707031,17.4550781 C20.9707031,15.1933481 21.6972584,13.2597737 23.1503906,11.6542969 C24.6035229,10.0488201 26.3730364,9.24609375 28.4589844,9.24609375 C30.5683699,9.24609375 32.170893,9.93163377 33.2666016,11.3027344 C34.3623102,12.673835 34.9101562,14.3437402 34.9101562,16.3125 C34.9101562,16.6757831 34.8632817,16.8925778 34.7695312,16.9628906 C34.6757808,17.0332035 34.4238302,17.0683594 34.0136719,17.0683594 L23.9589844,17.0683594 C23.9589844,19.5175904 24.322262,21.3164005 25.0488281,22.4648438 C26.0566457,24.0703205 27.4101478,24.8730469 29.109375,24.8730469 C29.3437512,24.8730469 29.6015611,24.8496096 29.8828125,24.8027344 C30.1640639,24.7558591 30.591794,24.6298838 31.1660156,24.4248047 C31.7402372,24.2197255 32.2792944,23.8417996 32.7832031,23.2910156 C33.2871119,22.7402316 33.6855454,22.0312543 33.9785156,21.1640625 C34.0488285,20.8242171 34.2011707,20.6601562 34.4355469,20.671875 C34.7519547,20.671875 34.9101562,20.8124986 34.9101562,21.09375 C34.9101562,21.3046886 34.7958996,21.6474586 34.5673828,22.1220703 C34.338866,22.5966821 34.0078147,23.1152316 33.5742188,23.6777344 C33.1406228,24.2402372 32.504887,24.7324198 31.6669922,25.1542969 C30.8290974,25.576174 29.906255,25.7871094 28.8984375,25.7871094 C26.789052,25.7871094 24.9404376,24.9873127 23.3525391,23.3876953 C21.7646405,21.7880779 20.9707031,19.8105587 20.9707031,17.4550781 Z M23.9941406,16.3125 L32.5371094,16.3125 C32.5371094,15.8085912 32.4931645,15.2753934 32.4052734,14.7128906 C32.3173824,14.1503878 32.1474622,13.4794961 31.8955078,12.7001953 C31.6435534,11.9208945 31.2246123,11.2851587 30.6386719,10.7929688 C30.0527314,10.3007788 29.3261762,10.0546875 28.4589844,10.0546875 C28.0722637,10.0546875 27.6709005,10.1367179 27.2548828,10.3007812 C26.8388651,10.4648446 26.3789088,10.7460918 25.875,11.1445312 C25.3710912,11.5429707 24.9433611,12.1933549 24.5917969,13.0957031 C24.2402326,13.9980514 24.0410159,15.0703063 23.9941406,16.3125 Z M36.9492188,25.3828125 L36.9492188,24.2753906 C38.2265689,24.2753906 39.0146469,24.1962899 39.3134766,24.0380859 C39.6123062,23.879882 39.7617188,23.4140664 39.7617188,22.640625 L39.7617188,12.9902344 C39.7617188,12.0996049 39.6064469,11.5429699 39.2958984,11.3203125 C38.98535,11.0976551 38.2031313,10.9863281 36.9492188,10.9863281 L36.9492188,9.86132812 L41.9589844,9.47460938 L41.9589844,13.4296875 C42.2988298,12.3984323 42.829098,11.4814493 43.5498047,10.6787109 C44.2705114,9.87597255 45.216791,9.47460938 46.3886719,9.47460938 C47.1621132,9.47460938 47.7978491,9.69140408 48.2958984,10.125 C48.7939478,10.5585959 49.0429688,11.0742158 49.0429688,11.671875 C49.0429688,12.1992214 48.8818375,12.5947252 48.5595703,12.8583984 C48.2373031,13.1220716 47.8828144,13.2539062 47.4960938,13.2539062 C47.0624978,13.2539062 46.6962906,13.1162123 46.3974609,12.8408203 C46.0986313,12.5654283 45.9492188,12.1875024 45.9492188,11.7070312 C45.9492188,11.414061 46.0166009,11.1533215 46.1513672,10.9248047 C46.2861335,10.6962879 46.4062495,10.541016 46.5117188,10.4589844 C46.617188,10.3769527 46.7050778,10.3242189 46.7753906,10.3007812 C46.7285154,10.2773436 46.5996104,10.265625 46.3886719,10.265625 C45.0644465,10.265625 44.0244178,10.9247981 43.2685547,12.2431641 C42.5126915,13.56153 42.1347656,15.1581938 42.1347656,17.0332031 L42.1347656,22.5703125 C42.1347656,23.2617222 42.2783189,23.7187489 42.5654297,23.9414062 C42.8525405,24.1640636 43.6230406,24.2753906 44.8769531,24.2753906 L45.6328125,24.2753906 L45.6328125,25.3828125 C44.6718702,25.3124996 43.1484479,25.2773438 41.0625,25.2773438 C40.7695298,25.2773438 40.3945335,25.2832031 39.9375,25.2949219 C39.4804665,25.3066407 38.953128,25.3242186 38.3554688,25.3476562 C37.7578095,25.3710939 37.2890642,25.3828125 36.9492188,25.3828125 Z M53.3847656,23.4492188 C51.8027265,21.8788984 51.0117188,19.954113 51.0117188,17.6748047 C51.0117188,15.3954964 51.7880782,13.4209068 53.3408203,11.7509766 C54.8935625,10.0810463 56.783192,9.24609375 59.0097656,9.24609375 C61.189464,9.24609375 63.0615156,10.075187 64.6259766,11.7333984 C66.1904375,13.3916099 66.9726562,15.3749885 66.9726562,17.6835938 C66.9726562,19.9453238 66.1845782,21.8613203 64.6083984,23.4316406 C63.0322187,25.001961 61.1543078,25.7871094 58.9746094,25.7871094 C56.8417862,25.7871094 54.9785236,25.0078203 53.3847656,23.4492188 Z M54,17.3847656 C54,19.7168085 54.3046845,21.410151 54.9140625,22.4648438 C55.8515672,24.0703205 57.2167879,24.8730469 59.0097656,24.8730469 C59.9003951,24.8730469 60.7177697,24.6328149 61.4619141,24.1523438 C62.2060584,23.6718726 62.7832011,23.0273478 63.1933594,22.21875 C63.7207058,21.1640572 63.984375,19.5527452 63.984375,17.3847656 C63.984375,15.0761603 63.6679719,13.4121145 63.0351562,12.3925781 C62.0976516,10.8339766 60.7441495,10.0546875 58.9746094,10.0546875 C58.201168,10.0546875 57.4365272,10.2568339 56.6806641,10.6611328 C55.9248009,11.0654317 55.3183617,11.6660116 54.8613281,12.4628906 C54.2871065,13.5175834 54,15.158192 54,17.3847656 Z M68.3613281,18.6855469 L68.3613281,16.5585938 L77.9414062,16.5585938 L77.9414062,18.6855469 L68.3613281,18.6855469 Z M83.4960938,23.4140625 C81.9726486,21.8203045 81.2109375,19.8838005 81.2109375,17.6044922 C81.2109375,15.3251839 81.96093,13.3623129 83.4609375,11.7158203 C84.960945,10.0693277 86.812489,9.24609375 89.015625,9.24609375 C90.4804761,9.24609375 91.7636664,9.59472308 92.8652344,10.2919922 C93.9668024,10.9892613 94.5175781,11.9296816 94.5175781,13.1132812 C94.5175781,13.6406276 94.3623062,14.0537094 94.0517578,14.3525391 C93.7412094,14.6513687 93.3457055,14.8007812 92.8652344,14.8007812 C92.3613256,14.8007812 91.9599624,14.6455094 91.6611328,14.3349609 C91.3623032,14.0244125 91.2128906,13.6289087 91.2128906,13.1484375 C91.2128906,12.9374989 91.2480465,12.7265636 91.3183594,12.515625 C91.3886722,12.3046864 91.5556627,12.0878917 91.8193359,11.8652344 C92.0830091,11.642577 92.4433571,11.5136721 92.9003906,11.4785156 C92.0449176,10.599605 90.7851646,10.1601562 89.1210938,10.1601562 L89.0507812,10.1601562 C87.8320252,10.1601562 86.718755,10.7343693 85.7109375,11.8828125 C84.70312,13.0312557 84.1992188,14.9179556 84.1992188,17.5429688 C84.1992188,18.9140694 84.3662093,20.1005809 84.7001953,21.1025391 C85.0341814,22.1044972 85.4765597,22.8632787 86.0273438,23.3789062 C86.5781278,23.8945338 87.1230442,24.2724597 87.6621094,24.5126953 C88.2011746,24.7529309 88.7343724,24.8730469 89.2617188,24.8730469 C91.6171993,24.8730469 93.1933554,23.6132938 93.9902344,21.09375 C94.0605472,20.8593738 94.2128895,20.7421875 94.4472656,20.7421875 C94.7636735,20.7421875 94.921875,20.8593738 94.921875,21.09375 C94.921875,21.2109381 94.8750005,21.4218735 94.78125,21.7265625 C94.6874995,22.0312515 94.4941421,22.4238257 94.2011719,22.9042969 C93.9082017,23.384768 93.553713,23.8330057 93.1376953,24.2490234 C92.7216776,24.6650411 92.1474646,25.0253891 91.4150391,25.3300781 C90.6826135,25.6347671 89.8593796,25.7871094 88.9453125,25.7871094 C86.835927,25.7871094 85.0195389,24.9961017 83.4960938,23.4140625 Z M99.3339844,23.4492188 C97.7519452,21.8788984 96.9609375,19.954113 96.9609375,17.6748047 C96.9609375,15.3954964 97.7372969,13.4209068 99.2900391,11.7509766 C100.842781,10.0810463 102.732411,9.24609375 104.958984,9.24609375 C107.138683,9.24609375 109.010734,10.075187 110.575195,11.7333984 C112.139656,13.3916099 112.921875,15.3749885 112.921875,17.6835938 C112.921875,19.9453238 112.133797,21.8613203 110.557617,23.4316406 C108.981437,25.001961 107.103527,25.7871094 104.923828,25.7871094 C102.791005,25.7871094 100.927742,25.0078203 99.3339844,23.4492188 Z M99.9492188,17.3847656 C99.9492188,19.7168085 100.253903,21.410151 100.863281,22.4648438 C101.800786,24.0703205 103.166007,24.8730469 104.958984,24.8730469 C105.849614,24.8730469 106.666988,24.6328149 107.411133,24.1523438 C108.155277,23.6718726 108.73242,23.0273478 109.142578,22.21875 C109.669925,21.1640572 109.933594,19.5527452 109.933594,17.3847656 C109.933594,15.0761603 109.617191,13.4121145 108.984375,12.3925781 C108.04687,10.8339766 106.693368,10.0546875 104.923828,10.0546875 C104.150387,10.0546875 103.385746,10.2568339 102.629883,10.6611328 C101.87402,11.0654317 101.26758,11.6660116 100.810547,12.4628906 C100.236325,13.5175834 99.9492188,15.158192 99.9492188,17.3847656 Z M115.119141,25.3828125 L115.119141,24.2753906 C116.396491,24.2753906 117.181639,24.1962899 117.474609,24.0380859 C117.76758,23.879882 117.914062,23.4140664 117.914062,22.640625 L117.914062,12.9902344 C117.914062,12.0996049 117.758791,11.5429699 117.448242,11.3203125 C117.137694,11.0976551 116.361334,10.9863281 115.119141,10.9863281 L115.119141,9.86132812 L120.181641,9.47460938 L120.181641,13.2539062 C121.306646,10.7343624 123.082019,9.47460938 125.507812,9.47460938 C127.312509,9.47460938 128.572262,9.91991742 129.287109,10.8105469 C129.814456,11.4082061 130.133789,12.0410123 130.245117,12.7089844 C130.356446,13.3769565 130.412109,14.5781163 130.412109,16.3125 L130.412109,23.1855469 C130.435547,23.6894556 130.640623,23.9970698 131.027344,24.1083984 C131.414064,24.2197271 132.146479,24.2753906 133.224609,24.2753906 L133.224609,25.3828125 C130.775378,25.3124996 129.427736,25.2773438 129.181641,25.2773438 C128.99414,25.2773438 127.640638,25.3124996 125.121094,25.3828125 L125.121094,24.2753906 C126.398444,24.2753906 127.186522,24.1962899 127.485352,24.0380859 C127.784181,23.879882 127.933594,23.4140664 127.933594,22.640625 L127.933594,14.2558594 C127.933594,13.0371033 127.746096,12.0673864 127.371094,11.3466797 C126.996092,10.625973 126.292974,10.265625 125.261719,10.265625 C124.019525,10.265625 122.900396,10.7871042 121.904297,11.8300781 C120.908198,12.8730521 120.410156,14.2734287 120.410156,16.03125 L120.410156,22.640625 C120.410156,23.4140664 120.559569,23.879882 120.858398,24.0380859 C121.157228,24.1962899 121.939447,24.2753906 123.205078,24.2753906 L123.205078,25.3828125 C120.755847,25.3124996 119.414064,25.2773438 119.179688,25.2773438 C118.992187,25.2773438 117.638684,25.3124996 115.119141,25.3828125 Z M134.894531,25.3828125 L134.894531,24.2753906 L135.193359,24.2753906 C136.318365,24.2753906 137.018553,24.1787119 137.293945,23.9853516 C137.569337,23.7919912 137.707031,23.3320349 137.707031,22.6054688 L137.707031,10.9863281 L134.894531,10.9863281 L134.894531,9.89648438 L137.707031,9.89648438 L137.707031,5.87109375 C137.707031,3.97264676 138.503898,2.51953629 140.097656,1.51171875 C141.691414,0.503901211 143.460928,0 145.40625,0 C146.753913,0 147.867183,0.348629326 148.746094,1.04589844 C149.625004,1.74316755 150.064453,2.58397945 150.064453,3.56835937 C150.064453,4.09570576 149.900392,4.51464688 149.572266,4.82519531 C149.244139,5.13574374 148.851565,5.29101562 148.394531,5.29101562 C147.937498,5.29101562 147.547853,5.13574374 147.225586,4.82519531 C146.903319,4.51464688 146.742188,4.11914303 146.742188,3.63867188 C146.742188,3.15820072 146.903319,2.76855618 147.225586,2.46972656 C147.547853,2.17089694 147.960935,2.00976574 148.464844,1.98632812 C147.574214,1.21288676 146.531256,0.826171875 145.335938,0.826171875 C144.058587,0.826171875 142.851568,1.24218334 141.714844,2.07421875 C140.578119,2.90625416 140.009766,4.18358514 140.009766,5.90625 L140.009766,9.89648438 L144.914062,9.89648438 L144.914062,9.82617188 L150.134766,9.43945312 L150.134766,22.7988281 C150.134766,23.419925 150.295897,23.8212882 150.618164,24.0029297 C150.940431,24.1845712 151.582026,24.2753906 152.542969,24.2753906 L152.894531,24.2753906 L152.894531,25.3828125 C151.523431,25.3124996 150.15821,25.2773438 148.798828,25.2773438 C147.49804,25.2773438 146.203131,25.3124996 144.914062,25.3828125 L144.914062,24.2753906 L145.265625,24.2753906 C146.29688,24.2753906 146.956053,24.1787119 147.243164,23.9853516 C147.530275,23.7919912 147.673828,23.3554721 147.673828,22.6757812 L147.673828,14.2558594 C147.673828,14.1386713 147.679687,13.9716808 147.691406,13.7548828 C147.703125,13.5380849 147.708984,13.382813 147.708984,13.2890625 C147.708984,12.3515578 147.594728,11.7333999 147.366211,11.4345703 C147.137694,11.1357407 146.583989,10.9863281 145.705078,10.9863281 L140.115234,10.9863281 L140.115234,22.6054688 C140.115234,23.3203161 140.247069,23.7773428 140.510742,23.9765625 C140.774415,24.1757822 141.486322,24.2753906 142.646484,24.2753906 L142.927734,24.2753906 L142.927734,25.3828125 C141.556634,25.3124996 140.173835,25.2773438 138.779297,25.2773438 C137.490228,25.2773438 136.195319,25.3124996 134.894531,25.3828125 Z M154.898438,28.2304688 C154.898438,27.4570274 155.194333,26.7363315 155.786133,26.0683594 C156.377933,25.4003873 157.189448,24.9199233 158.220703,24.6269531 C157.16601,23.958981 156.638672,22.8925854 156.638672,21.4277344 C156.638672,20.3027287 157.007809,19.306645 157.746094,18.4394531 C156.621088,17.5019484 156.058594,16.2656327 156.058594,14.7304688 C156.058594,13.3124929 156.621088,12.0820365 157.746094,11.0390625 C158.871099,9.99608854 160.253898,9.47460938 161.894531,9.47460938 C163.335945,9.47460938 164.607416,9.90819879 165.708984,10.7753906 C166.857428,9.650385 168.128899,9.08203131 169.523438,9.0703125 C170.144534,9.0703125 170.604491,9.26366994 170.90332,9.65039062 C171.20215,10.0371113 171.351562,10.4355448 171.351562,10.8457031 C171.351562,11.2089862 171.237306,11.4785147 171.008789,11.6542969 C170.780272,11.830079 170.548829,11.9179688 170.314453,11.9179688 C170.021483,11.9179688 169.772462,11.82129 169.567383,11.6279297 C169.362304,11.4345693 169.259766,11.1855484 169.259766,10.8808594 C169.259766,10.3769506 169.453123,10.0488289 169.839844,9.89648438 C169.769531,9.87304676 169.652345,9.86132812 169.488281,9.86132812 C168.3164,9.86132812 167.232427,10.3300734 166.236328,11.2675781 C167.220708,12.1816452 167.712891,13.3476492 167.712891,14.765625 C167.712891,16.1836008 167.150396,17.4140573 166.025391,18.4570312 C164.900385,19.5000052 163.523446,20.0214844 161.894531,20.0214844 C160.546868,20.0214844 159.357427,19.6464881 158.326172,18.8964844 C157.916014,19.3769555 157.710938,19.9453092 157.710938,20.6015625 C157.710938,21.1992217 157.892576,21.7324195 158.255859,22.2011719 C158.619142,22.6699242 159.076169,22.9394528 159.626953,23.0097656 C159.791016,23.0332032 160.687492,23.0449219 162.316406,23.0449219 C163.277349,23.0449219 164.021482,23.0566405 164.548828,23.0800781 C165.076175,23.1035157 165.71777,23.1943351 166.473633,23.3525391 C167.229496,23.510743 167.906247,23.742186 168.503906,24.046875 C170.062508,24.9140668 170.847656,26.2851469 170.859375,28.1601562 C170.859375,29.5312569 170.071297,30.6474566 168.495117,31.5087891 C166.918937,32.3701215 165.041027,32.8007812 162.861328,32.8007812 C160.658192,32.8007812 158.780281,32.3642622 157.227539,31.4912109 C155.674797,30.6181597 154.898438,29.5312565 154.898438,28.2304688 Z M156.779297,28.2304688 C156.779297,29.2148487 157.359369,30.0849572 158.519531,30.8408203 C159.679693,31.5966835 161.138663,31.9746094 162.896484,31.9746094 C164.619149,31.9746094 166.063471,31.6025428 167.229492,30.8583984 C168.395514,30.1142541 168.978516,29.2382863 168.978516,28.2304688 C168.978516,27.5156214 168.77344,26.9296898 168.363281,26.4726562 C167.953123,26.0156227 167.329106,25.69629 166.491211,25.5146484 C165.653316,25.3330069 164.941409,25.2246096 164.355469,25.1894531 C163.769528,25.1542967 162.937505,25.1367188 161.859375,25.1367188 L159.732422,25.1367188 C158.912105,25.183594 158.214847,25.5058564 157.640625,26.1035156 C157.066403,26.7011749 156.779297,27.4101521 156.779297,28.2304688 Z M158.748047,14.765625 C158.748047,17.7187648 159.796865,19.1953125 161.894531,19.1953125 C162.949224,19.1953125 163.798825,18.7148486 164.443359,17.7539062 C164.83008,17.1093718 165.023438,16.1015694 165.023438,14.7304688 C165.023438,11.777329 163.980479,10.3007812 161.894531,10.3007812 C160.839838,10.3007812 159.984378,10.7812452 159.328125,11.7421875 C158.941404,12.386722 158.748047,13.3945244 158.748047,14.765625 Z M173.056641,10.9863281 L173.056641,9.86132812 L178.347656,9.47460938 L178.347656,21.4277344 C178.347656,22.001956 178.371094,22.456053 178.417969,22.7900391 C178.464844,23.1240251 178.58496,23.4843731 178.77832,23.8710938 C178.971681,24.2578144 179.293943,24.5390616 179.745117,24.7148438 C180.196291,24.8906259 180.785153,24.9785156 181.511719,24.9785156 C182.812507,24.9785156 183.864254,24.4453178 184.666992,23.3789062 C185.469731,22.3124947 185.871094,20.9882892 185.871094,19.40625 L185.871094,12.9902344 C185.871094,12.0996049 185.712892,11.5429699 185.396484,11.3203125 C185.080077,11.0976551 184.300787,10.9863281 183.058594,10.9863281 L183.058594,9.86132812 L188.349609,9.47460938 L188.349609,22.2539062 C188.349609,23.1445357 188.504881,23.7041004 188.81543,23.9326172 C189.125978,24.161134 189.908197,24.2753906 191.162109,24.2753906 L191.162109,25.3828125 L185.976562,25.7871094 L185.976562,22.5351562 C184.968745,24.691417 183.421885,25.7753906 181.335938,25.7871094 C180.281245,25.7871094 179.393558,25.6523451 178.672852,25.3828125 C177.952145,25.1132799 177.410158,24.8115251 177.046875,24.4775391 C176.683592,24.143553 176.405274,23.6543001 176.211914,23.0097656 C176.018554,22.3652312 175.910156,21.843752 175.886719,21.4453125 C175.863281,21.046873 175.851562,20.4609414 175.851562,19.6875 L175.851562,14.2910156 C175.851562,12.6621012 175.734376,11.704103 175.5,11.4169922 C175.265624,11.1298814 174.451179,10.9863281 173.056641,10.9863281 Z M192.867188,25.3828125 L192.867188,24.2753906 C194.144538,24.2753906 194.932616,24.1962899 195.231445,24.0380859 C195.530275,23.879882 195.679688,23.4140664 195.679688,22.640625 L195.679688,12.9902344 C195.679688,12.0996049 195.524416,11.5429699 195.213867,11.3203125 C194.903319,11.0976551 194.1211,10.9863281 192.867188,10.9863281 L192.867188,9.86132812 L197.876953,9.47460938 L197.876953,13.4296875 C198.216799,12.3984323 198.747067,11.4814493 199.467773,10.6787109 C200.18848,9.87597255 201.13476,9.47460938 202.306641,9.47460938 C203.080082,9.47460938 203.715818,9.69140408 204.213867,10.125 C204.711917,10.5585959 204.960938,11.0742158 204.960938,11.671875 C204.960938,12.1992214 204.799806,12.5947252 204.477539,12.8583984 C204.155272,13.1220716 203.800783,13.2539062 203.414062,13.2539062 C202.980467,13.2539062 202.614259,13.1162123 202.31543,12.8408203 C202.0166,12.5654283 201.867188,12.1875024 201.867188,11.7070312 C201.867188,11.414061 201.93457,11.1533215 202.069336,10.9248047 C202.204102,10.6962879 202.324218,10.541016 202.429688,10.4589844 C202.535157,10.3769527 202.623047,10.3242189 202.693359,10.3007812 C202.646484,10.2773436 202.517579,10.265625 202.306641,10.265625 C200.982415,10.265625 199.942387,10.9247981 199.186523,12.2431641 C198.43066,13.56153 198.052734,15.1581938 198.052734,17.0332031 L198.052734,22.5703125 C198.052734,23.2617222 198.196288,23.7187489 198.483398,23.9414062 C198.770509,24.1640636 199.541009,24.2753906 200.794922,24.2753906 L201.550781,24.2753906 L201.550781,25.3828125 C200.589839,25.3124996 199.066417,25.2773438 196.980469,25.2773438 C196.687499,25.2773438 196.312502,25.2832031 195.855469,25.2949219 C195.398435,25.3066407 194.871097,25.3242186 194.273438,25.3476562 C193.675778,25.3710939 193.207033,25.3828125 192.867188,25.3828125 Z M207.439453,21.9550781 C207.439453,19.9160054 208.640613,18.3574273 211.042969,17.2792969 C212.484382,16.5878872 214.693344,16.1542978 217.669922,15.9785156 L217.669922,14.6601562 C217.669922,13.1718676 217.280277,12.0322305 216.500977,11.2412109 C215.721676,10.4501914 214.839849,10.0546875 213.855469,10.0546875 C212.097647,10.0546875 210.796879,10.6054632 209.953125,11.7070312 C210.667972,11.7304689 211.154296,11.9208967 211.412109,12.2783203 C211.669923,12.635744 211.798828,12.9960919 211.798828,13.359375 C211.798828,13.8398462 211.649416,14.23535 211.350586,14.5458984 C211.051756,14.8564469 210.650393,15.0117188 210.146484,15.0117188 C209.666013,15.0117188 209.26758,14.8623062 208.951172,14.5634766 C208.634764,14.2646469 208.476562,13.8515651 208.476562,13.3242188 C208.476562,12.1523379 209.006831,11.1796914 210.067383,10.40625 C211.127935,9.63280863 212.414055,9.24609375 213.925781,9.24609375 C215.894541,9.24609375 217.53515,9.9081965 218.847656,11.2324219 C219.257815,11.6425802 219.565429,12.1113255 219.770508,12.6386719 C219.975587,13.1660183 220.089844,13.6025373 220.113281,13.9482422 C220.136719,14.293947 220.148438,14.8066372 220.148438,15.4863281 L220.148438,22.6757812 C220.148438,22.816407 220.171875,23.0039051 220.21875,23.2382812 C220.265625,23.4726574 220.39746,23.7392563 220.614258,24.0380859 C220.831056,24.3369156 221.121092,24.4863281 221.484375,24.4863281 C222.351567,24.4863281 222.779297,23.7187577 222.767578,22.1835938 L222.767578,20.1621094 L223.681641,20.1621094 L223.681641,22.1835938 C223.681641,23.4609439 223.34473,24.3486303 222.670898,24.8466797 C221.997067,25.3447291 221.349612,25.59375 220.728516,25.59375 C219.931637,25.59375 219.281253,25.3007842 218.777344,24.7148438 C218.273435,24.1289033 217.986328,23.437504 217.916016,22.640625 C217.552733,23.5546921 216.958012,24.3076142 216.131836,24.8994141 C215.30566,25.4912139 214.330084,25.7871094 213.205078,25.7871094 C212.337886,25.7871094 211.497074,25.678712 210.682617,25.4619141 C209.86816,25.2451161 209.124027,24.834964 208.450195,24.2314453 C207.776364,23.6279267 207.439453,22.8691452 207.439453,21.9550781 Z M210.216797,21.9199219 C210.216797,22.8105513 210.5332,23.5429659 211.166016,24.1171875 C211.798831,24.6914091 212.560542,24.9785156 213.451172,24.9785156 C214.458989,24.9785156 215.414058,24.5888711 216.316406,23.8095703 C217.218755,23.0302695 217.669922,21.8730546 217.669922,20.3378906 L217.669922,16.734375 C215.009752,16.8281255 213.102545,17.4052681 211.948242,18.4658203 C210.79394,19.5263725 210.216797,20.6777282 210.216797,21.9199219 Z M224.613281,10.9863281 L224.613281,10.1953125 C225.714849,10.1484373 226.631832,9.73535546 227.364258,8.95605469 C228.096683,8.17675392 228.588866,7.30664543 228.84082,6.34570312 C229.092775,5.38476082 229.230469,4.34766182 229.253906,3.234375 L230.150391,3.234375 L230.150391,9.86132812 L235.300781,9.86132812 L235.300781,10.9863281 L230.150391,10.9863281 L230.150391,20.9882812 C230.150391,23.5781379 230.958976,24.8730469 232.576172,24.8730469 C233.267582,24.8730469 233.841795,24.5185582 234.298828,23.8095703 C234.755862,23.1005824 234.984375,22.1132876 234.984375,20.8476562 L234.984375,18.8613281 L235.880859,18.8613281 L235.880859,20.9179688 C235.880859,22.2187565 235.582034,23.3554639 234.984375,24.328125 C234.386716,25.3007861 233.4961,25.7871094 232.3125,25.7871094 C231.878904,25.7871094 231.448244,25.7314459 231.020508,25.6201172 C230.592771,25.5087885 230.100589,25.3095717 229.543945,25.0224609 C228.987302,24.7353501 228.536135,24.2373082 228.19043,23.5283203 C227.844725,22.8193324 227.671875,21.9492239 227.671875,20.9179688 L227.671875,10.9863281 L224.613281,10.9863281 Z M239.080078,25.3828125 L239.080078,24.2753906 C240.357428,24.2753906 241.142577,24.1962899 241.435547,24.0380859 C241.728517,23.879882 241.875,23.4140664 241.875,22.640625 L241.875,12.9550781 C241.875,12.0644487 241.725587,11.5136729 241.426758,11.3027344 C241.127928,11.0917958 240.392584,10.9863281 239.220703,10.9863281 L239.220703,9.86132812 L244.248047,9.47460938 L244.248047,22.6757812 C244.248047,23.3906286 244.376952,23.8359366 244.634766,24.0117188 C244.892579,24.1875009 245.607416,24.2753906 246.779297,24.2753906 L246.779297,25.3828125 C244.330066,25.3124996 243.082031,25.2773438 243.035156,25.2773438 C242.70703,25.2773438 241.388683,25.3124996 239.080078,25.3828125 Z M240.591797,3.19921875 C240.591797,2.7187476 240.776365,2.28222853 241.145508,1.88964844 C241.51465,1.49706835 241.962888,1.30078125 242.490234,1.30078125 C243.017581,1.30078125 243.468748,1.4794904 243.84375,1.83691406 C244.218752,2.19433772 244.40625,2.6513644 244.40625,3.20800781 C244.40625,3.76465122 244.218752,4.2216779 243.84375,4.57910156 C243.468748,4.93652522 243.017581,5.11523438 242.490234,5.11523438 C241.93945,5.11523438 241.485353,4.92187693 241.12793,4.53515625 C240.770506,4.14843557 240.591797,3.70312752 240.591797,3.19921875 Z M251.226562,23.4492188 C249.644523,21.8788984 248.853516,19.954113 248.853516,17.6748047 C248.853516,15.3954964 249.629875,13.4209068 251.182617,11.7509766 C252.735359,10.0810463 254.624989,9.24609375 256.851562,9.24609375 C259.031261,9.24609375 260.903312,10.075187 262.467773,11.7333984 C264.032234,13.3916099 264.814453,15.3749885 264.814453,17.6835938 C264.814453,19.9453238 264.026375,21.8613203 262.450195,23.4316406 C260.874016,25.001961 258.996105,25.7871094 256.816406,25.7871094 C254.683583,25.7871094 252.82032,25.0078203 251.226562,23.4492188 Z M251.841797,17.3847656 C251.841797,19.7168085 252.146481,21.410151 252.755859,22.4648438 C253.693364,24.0703205 255.058585,24.8730469 256.851562,24.8730469 C257.742192,24.8730469 258.559567,24.6328149 259.303711,24.1523438 C260.047855,23.6718726 260.624998,23.0273478 261.035156,22.21875 C261.562503,21.1640572 261.826172,19.5527452 261.826172,17.3847656 C261.826172,15.0761603 261.509769,13.4121145 260.876953,12.3925781 C259.939448,10.8339766 258.585946,10.0546875 256.816406,10.0546875 C256.042965,10.0546875 255.278324,10.2568339 254.522461,10.6611328 C253.766598,11.0654317 253.160159,11.6660116 252.703125,12.4628906 C252.128903,13.5175834 251.841797,15.158192 251.841797,17.3847656 Z M267.011719,25.3828125 L267.011719,24.2753906 C268.289069,24.2753906 269.074217,24.1962899 269.367188,24.0380859 C269.660158,23.879882 269.806641,23.4140664 269.806641,22.640625 L269.806641,12.9902344 C269.806641,12.0996049 269.651369,11.5429699 269.34082,11.3203125 C269.030272,11.0976551 268.253912,10.9863281 267.011719,10.9863281 L267.011719,9.86132812 L272.074219,9.47460938 L272.074219,13.2539062 C273.199224,10.7343624 274.974597,9.47460938 277.400391,9.47460938 C279.205087,9.47460938 280.46484,9.91991742 281.179688,10.8105469 C281.707034,11.4082061 282.026367,12.0410123 282.137695,12.7089844 C282.249024,13.3769565 282.304688,14.5781163 282.304688,16.3125 L282.304688,23.1855469 C282.328125,23.6894556 282.533201,23.9970698 282.919922,24.1083984 C283.306643,24.2197271 284.039057,24.2753906 285.117188,24.2753906 L285.117188,25.3828125 C282.667957,25.3124996 281.320314,25.2773438 281.074219,25.2773438 C280.886718,25.2773438 279.533216,25.3124996 277.013672,25.3828125 L277.013672,24.2753906 C278.291022,24.2753906 279.0791,24.1962899 279.37793,24.0380859 C279.676759,23.879882 279.826172,23.4140664 279.826172,22.640625 L279.826172,14.2558594 C279.826172,13.0371033 279.638674,12.0673864 279.263672,11.3466797 C278.88867,10.625973 278.185552,10.265625 277.154297,10.265625 C275.912103,10.265625 274.792974,10.7871042 273.796875,11.8300781 C272.800776,12.8730521 272.302734,14.2734287 272.302734,16.03125 L272.302734,22.640625 C272.302734,23.4140664 272.452147,23.879882 272.750977,24.0380859 C273.049806,24.1962899 273.832025,24.2753906 275.097656,24.2753906 L275.097656,25.3828125 C272.648425,25.3124996 271.306642,25.2773438 271.072266,25.2773438 C270.884765,25.2773438 269.531263,25.3124996 267.011719,25.3828125 Z M298.986328,1.91601562 L298.986328,0.791015625 C299.830082,0.861328477 301.605455,0.896484375 304.3125,0.896484375 C306.996107,0.896484375 308.759761,0.861328477 309.603516,0.791015625 L309.603516,1.91601562 L308.742188,1.91601562 C307.4414,1.91601562 306.641603,2.02441298 306.342773,2.24121094 C306.043944,2.4580089 305.894531,2.91210592 305.894531,3.60351562 L305.894531,17.3144531 C305.894531,18.9199299 306.117185,20.2763617 306.5625,21.3837891 C307.007815,22.4912165 307.576168,23.2910132 308.267578,23.7832031 C308.958988,24.2753931 309.588864,24.6123038 310.157227,24.7939453 C310.725589,24.9755868 311.285153,25.0664062 311.835938,25.0664062 C313.664072,25.0664062 315.272454,24.339851 316.661133,22.8867188 C318.049812,21.4335865 318.744141,19.4941528 318.744141,17.0683594 L318.744141,4.5703125 C318.744141,4.20702943 318.720703,3.91992293 318.673828,3.70898438 C318.626953,3.49804582 318.500978,3.22851727 318.295898,2.90039062 C318.090819,2.57226398 317.712893,2.3261727 317.162109,2.16210938 C316.611325,1.99804605 315.902348,1.91601562 315.035156,1.91601562 L315.035156,0.791015625 C317.625013,0.861328477 319.054686,0.896484375 319.324219,0.896484375 C319.558595,0.896484375 320.97069,0.861328477 323.560547,0.791015625 L323.560547,1.91601562 C322.693355,1.91601562 321.984378,1.99218674 321.433594,2.14453125 C320.88281,2.29687576 320.507813,2.54296705 320.308594,2.8828125 C320.109374,3.22265795 319.983399,3.51269411 319.930664,3.75292969 C319.877929,3.99316526 319.851562,4.31249801 319.851562,4.7109375 L319.851562,16.2421875 C319.851562,17.4140684 319.816407,18.240232 319.746094,18.7207031 C319.429686,20.8066511 318.530281,22.5703053 317.047852,24.0117188 C315.565422,25.4531322 313.804698,26.1738281 311.765625,26.1738281 C309.292956,26.1738281 307.163095,25.3037196 305.375977,23.5634766 C303.588858,21.8232335 302.695312,19.693372 302.695312,17.1738281 L302.695312,3.60351562 C302.695312,2.91210592 302.54297,2.4580089 302.238281,2.24121094 C301.933592,2.02441298 301.136725,1.91601562 299.847656,1.91601562 L298.986328,1.91601562 Z M325.986328,24.9082031 L325.986328,20.1621094 C325.986328,19.8925768 325.992187,19.710938 326.003906,19.6171875 C326.015625,19.523437 326.05664,19.4414066 326.126953,19.3710938 C326.197266,19.3007809 326.302734,19.265625 326.443359,19.265625 C326.607423,19.265625 326.721679,19.3007809 326.786133,19.3710938 C326.850586,19.4414066 326.90625,19.6113268 326.953125,19.8808594 C327.316408,21.5332114 327.887691,22.7958941 328.666992,23.6689453 C329.446293,24.5419966 330.544915,24.9785156 331.962891,24.9785156 C333.310554,24.9785156 334.324215,24.6796905 335.003906,24.0820312 C335.683597,23.484372 336.023438,22.6933643 336.023438,21.7089844 C336.023438,19.9511631 334.775403,18.8496116 332.279297,18.4042969 C330.837883,18.1113267 329.818362,17.868165 329.220703,17.6748047 C328.623044,17.4814443 328.06055,17.1679709 327.533203,16.734375 C326.501948,15.8906208 325.986328,14.8710997 325.986328,13.6757812 C325.986328,12.4804628 326.440425,11.4433638 327.348633,10.5644531 C328.25684,9.68554248 329.71874,9.24609375 331.734375,9.24609375 C333.082038,9.24609375 334.212886,9.5859341 335.126953,10.265625 C335.396486,10.0546864 335.601562,9.861329 335.742188,9.68554688 C336.058595,9.39257666 336.298827,9.24609375 336.462891,9.24609375 C336.650392,9.24609375 336.761719,9.30761657 336.796875,9.43066406 C336.832031,9.55371155 336.849609,9.78515455 336.849609,10.125 L336.849609,13.7460938 C336.849609,14.0156263 336.84375,14.1972652 336.832031,14.2910156 C336.820312,14.3847661 336.779297,14.4638669 336.708984,14.5283203 C336.638672,14.5927738 336.527345,14.625 336.375,14.625 C336.105467,14.625 335.964844,14.513673 335.953125,14.2910156 C335.765624,11.3847511 334.359388,9.93164062 331.734375,9.93164062 C330.316399,9.93164062 329.291019,10.2040988 328.658203,10.7490234 C328.025387,11.293948 327.708984,11.9355432 327.708984,12.6738281 C327.708984,13.0839864 327.805663,13.4443344 327.999023,13.7548828 C328.192384,14.0654312 328.415038,14.3115225 328.666992,14.4931641 C328.918947,14.6748056 329.279295,14.8505851 329.748047,15.0205078 C330.216799,15.1904305 330.594725,15.3046872 330.881836,15.3632812 C331.168947,15.4218753 331.587888,15.509765 332.138672,15.6269531 C334.060556,15.9902362 335.425777,16.5644492 336.234375,17.3496094 C337.242193,18.3574269 337.746094,19.4999936 337.746094,20.7773438 C337.746094,22.1953196 337.26563,23.3847608 336.304688,24.3457031 C335.343745,25.3066454 333.896494,25.7871094 331.962891,25.7871094 C330.404289,25.7871094 329.080084,25.2656302 327.990234,24.2226562 C327.849609,24.363282 327.726563,24.4951166 327.621094,24.6181641 C327.515624,24.7412116 327.442383,24.8261716 327.401367,24.8730469 C327.360351,24.9199221 327.333984,24.9580077 327.322266,24.9873047 C327.310547,25.0166017 327.292969,25.0429686 327.269531,25.0664062 C326.78906,25.5468774 326.490235,25.7871094 326.373047,25.7871094 C326.185546,25.7871094 326.074219,25.7255866 326.039062,25.6025391 C326.003906,25.4794916 325.986328,25.2480486 325.986328,24.9082031 Z M340.470703,21.9550781 C340.470703,19.9160054 341.671863,18.3574273 344.074219,17.2792969 C345.515632,16.5878872 347.724594,16.1542978 350.701172,15.9785156 L350.701172,14.6601562 C350.701172,13.1718676 350.311527,12.0322305 349.532227,11.2412109 C348.752926,10.4501914 347.871099,10.0546875 346.886719,10.0546875 C345.128897,10.0546875 343.828129,10.6054632 342.984375,11.7070312 C343.699222,11.7304689 344.185546,11.9208967 344.443359,12.2783203 C344.701173,12.635744 344.830078,12.9960919 344.830078,13.359375 C344.830078,13.8398462 344.680666,14.23535 344.381836,14.5458984 C344.083006,14.8564469 343.681643,15.0117188 343.177734,15.0117188 C342.697263,15.0117188 342.29883,14.8623062 341.982422,14.5634766 C341.666014,14.2646469 341.507812,13.8515651 341.507812,13.3242188 C341.507812,12.1523379 342.038081,11.1796914 343.098633,10.40625 C344.159185,9.63280863 345.445305,9.24609375 346.957031,9.24609375 C348.925791,9.24609375 350.5664,9.9081965 351.878906,11.2324219 C352.289065,11.6425802 352.596679,12.1113255 352.801758,12.6386719 C353.006837,13.1660183 353.121094,13.6025373 353.144531,13.9482422 C353.167969,14.293947 353.179688,14.8066372 353.179688,15.4863281 L353.179688,22.6757812 C353.179688,22.816407 353.203125,23.0039051 353.25,23.2382812 C353.296875,23.4726574 353.42871,23.7392563 353.645508,24.0380859 C353.862306,24.3369156 354.152342,24.4863281 354.515625,24.4863281 C355.382817,24.4863281 355.810547,23.7187577 355.798828,22.1835938 L355.798828,20.1621094 L356.712891,20.1621094 L356.712891,22.1835938 C356.712891,23.4609439 356.37598,24.3486303 355.702148,24.8466797 C355.028317,25.3447291 354.380862,25.59375 353.759766,25.59375 C352.962887,25.59375 352.312503,25.3007842 351.808594,24.7148438 C351.304685,24.1289033 351.017578,23.437504 350.947266,22.640625 C350.583983,23.5546921 349.989262,24.3076142 349.163086,24.8994141 C348.33691,25.4912139 347.361334,25.7871094 346.236328,25.7871094 C345.369136,25.7871094 344.528324,25.678712 343.713867,25.4619141 C342.89941,25.2451161 342.155277,24.834964 341.481445,24.2314453 C340.807614,23.6279267 340.470703,22.8691452 340.470703,21.9550781 Z M343.248047,21.9199219 C343.248047,22.8105513 343.56445,23.5429659 344.197266,24.1171875 C344.830081,24.6914091 345.591792,24.9785156 346.482422,24.9785156 C347.490239,24.9785156 348.445308,24.5888711 349.347656,23.8095703 C350.250005,23.0302695 350.701172,21.8730546 350.701172,20.3378906 L350.701172,16.734375 C348.041002,16.8281255 346.133795,17.4052681 344.979492,18.4658203 C343.82519,19.5263725 343.248047,20.6777282 343.248047,21.9199219 Z M357.960938,28.2304688 C357.960938,27.4570274 358.256833,26.7363315 358.848633,26.0683594 C359.440433,25.4003873 360.251948,24.9199233 361.283203,24.6269531 C360.22851,23.958981 359.701172,22.8925854 359.701172,21.4277344 C359.701172,20.3027287 360.070309,19.306645 360.808594,18.4394531 C359.683588,17.5019484 359.121094,16.2656327 359.121094,14.7304688 C359.121094,13.3124929 359.683588,12.0820365 360.808594,11.0390625 C361.933599,9.99608854 363.316398,9.47460938 364.957031,9.47460938 C366.398445,9.47460938 367.669916,9.90819879 368.771484,10.7753906 C369.919928,9.650385 371.191399,9.08203131 372.585938,9.0703125 C373.207034,9.0703125 373.666991,9.26366994 373.96582,9.65039062 C374.26465,10.0371113 374.414062,10.4355448 374.414062,10.8457031 C374.414062,11.2089862 374.299806,11.4785147 374.071289,11.6542969 C373.842772,11.830079 373.611329,11.9179688 373.376953,11.9179688 C373.083983,11.9179688 372.834962,11.82129 372.629883,11.6279297 C372.424804,11.4345693 372.322266,11.1855484 372.322266,10.8808594 C372.322266,10.3769506 372.515623,10.0488289 372.902344,9.89648438 C372.832031,9.87304676 372.714845,9.86132812 372.550781,9.86132812 C371.3789,9.86132812 370.294927,10.3300734 369.298828,11.2675781 C370.283208,12.1816452 370.775391,13.3476492 370.775391,14.765625 C370.775391,16.1836008 370.212896,17.4140573 369.087891,18.4570312 C367.962885,19.5000052 366.585946,20.0214844 364.957031,20.0214844 C363.609368,20.0214844 362.419927,19.6464881 361.388672,18.8964844 C360.978514,19.3769555 360.773438,19.9453092 360.773438,20.6015625 C360.773438,21.1992217 360.955076,21.7324195 361.318359,22.2011719 C361.681642,22.6699242 362.138669,22.9394528 362.689453,23.0097656 C362.853516,23.0332032 363.749992,23.0449219 365.378906,23.0449219 C366.339849,23.0449219 367.083982,23.0566405 367.611328,23.0800781 C368.138675,23.1035157 368.78027,23.1943351 369.536133,23.3525391 C370.291996,23.510743 370.968747,23.742186 371.566406,24.046875 C373.125008,24.9140668 373.910156,26.2851469 373.921875,28.1601562 C373.921875,29.5312569 373.133797,30.6474566 371.557617,31.5087891 C369.981437,32.3701215 368.103527,32.8007812 365.923828,32.8007812 C363.720692,32.8007812 361.842781,32.3642622 360.290039,31.4912109 C358.737297,30.6181597 357.960938,29.5312565 357.960938,28.2304688 Z M359.841797,28.2304688 C359.841797,29.2148487 360.421869,30.0849572 361.582031,30.8408203 C362.742193,31.5966835 364.201163,31.9746094 365.958984,31.9746094 C367.681649,31.9746094 369.125971,31.6025428 370.291992,30.8583984 C371.458014,30.1142541 372.041016,29.2382863 372.041016,28.2304688 C372.041016,27.5156214 371.83594,26.9296898 371.425781,26.4726562 C371.015623,26.0156227 370.391606,25.69629 369.553711,25.5146484 C368.715816,25.3330069 368.003909,25.2246096 367.417969,25.1894531 C366.832028,25.1542967 366.000005,25.1367188 364.921875,25.1367188 L362.794922,25.1367188 C361.974605,25.183594 361.277347,25.5058564 360.703125,26.1035156 C360.128903,26.7011749 359.841797,27.4101521 359.841797,28.2304688 Z M361.810547,14.765625 C361.810547,17.7187648 362.859365,19.1953125 364.957031,19.1953125 C366.011724,19.1953125 366.861325,18.7148486 367.505859,17.7539062 C367.89258,17.1093718 368.085938,16.1015694 368.085938,14.7304688 C368.085938,11.777329 367.042979,10.3007812 364.957031,10.3007812 C363.902338,10.3007812 363.046878,10.7812452 362.390625,11.7421875 C362.003904,12.386722 361.810547,13.3945244 361.810547,14.765625 Z M375.960938,17.4550781 C375.960938,15.1933481 376.687493,13.2597737 378.140625,11.6542969 C379.593757,10.0488201 381.363271,9.24609375 383.449219,9.24609375 C385.558604,9.24609375 387.161127,9.93163377 388.256836,11.3027344 C389.352545,12.673835 389.900391,14.3437402 389.900391,16.3125 C389.900391,16.6757831 389.853516,16.8925778 389.759766,16.9628906 C389.666015,17.0332035 389.414065,17.0683594 389.003906,17.0683594 L378.949219,17.0683594 C378.949219,19.5175904 379.312496,21.3164005 380.039062,22.4648438 C381.04688,24.0703205 382.400382,24.8730469 384.099609,24.8730469 C384.333986,24.8730469 384.591795,24.8496096 384.873047,24.8027344 C385.154298,24.7558591 385.582028,24.6298838 386.15625,24.4248047 C386.730472,24.2197255 387.269529,23.8417996 387.773438,23.2910156 C388.277346,22.7402316 388.67578,22.0312543 388.96875,21.1640625 C389.039063,20.8242171 389.191405,20.6601562 389.425781,20.671875 C389.742189,20.671875 389.900391,20.8124986 389.900391,21.09375 C389.900391,21.3046886 389.786134,21.6474586 389.557617,22.1220703 C389.3291,22.5966821 388.998049,23.1152316 388.564453,23.6777344 C388.130857,24.2402372 387.495121,24.7324198 386.657227,25.1542969 C385.819332,25.576174 384.896489,25.7871094 383.888672,25.7871094 C381.779286,25.7871094 379.930672,24.9873127 378.342773,23.3876953 C376.754875,21.7880779 375.960938,19.8105587 375.960938,17.4550781 Z M378.984375,16.3125 L387.527344,16.3125 C387.527344,15.8085912 387.483399,15.2753934 387.395508,14.7128906 C387.307617,14.1503878 387.137697,13.4794961 386.885742,12.7001953 C386.633788,11.9208945 386.214847,11.2851587 385.628906,10.7929688 C385.042966,10.3007788 384.316411,10.0546875 383.449219,10.0546875 C383.062498,10.0546875 382.661135,10.1367179 382.245117,10.3007812 C381.829099,10.4648446 381.369143,10.7460918 380.865234,11.1445312 C380.361326,11.5429707 379.933596,12.1933549 379.582031,13.0957031 C379.230467,13.9980514 379.03125,15.0703063 378.984375,16.3125 Z" id="Zero-configuration-U" fill="#000000"></path>
    </g>
</svg>